<svg width="241" height="63" viewBox="0 0 241 63" fill="none" xmlns="http://www.w3.org/2000/svg">
<path d="M111.558 8.59148C111.419 8.22838 111.159 7.89642 110.778 7.59559C110.397 7.27959 109.97 7.01697 109.499 6.80773C109.027 6.59849 108.541 6.46519 108.04 6.40781C107.539 6.33527 107.107 6.36086 106.744 6.48459C106.629 7.39537 106.611 8.26 106.693 9.07848C106.774 9.89697 106.901 10.791 107.074 11.7605C107.301 11.6377 107.543 11.5451 107.801 11.4827C108.058 11.4204 108.308 11.3657 108.55 11.3186C108.792 11.2563 109.02 11.1866 109.231 11.1093C109.458 11.0168 109.655 10.8942 109.82 10.7415C109.942 10.8165 110.087 10.861 110.254 10.8751C110.42 10.8892 110.58 10.9185 110.732 10.963C110.809 11.1445 110.909 11.3031 111.031 11.4388C111.153 11.5745 111.238 11.7483 111.284 11.9604C111.12 12.2496 110.871 12.456 110.538 12.5795C110.22 12.7029 109.872 12.8114 109.493 12.9049C109.13 12.9831 108.759 13.069 108.38 13.1625C108.017 13.2407 107.714 13.3792 107.473 13.5779C107.521 13.9113 107.607 14.2823 107.731 14.691C107.87 15.0845 108.009 15.493 108.148 15.9168C108.303 16.3405 108.449 16.7566 108.589 17.1652C108.743 17.5737 108.867 17.9596 108.96 18.323C108.523 18.7202 108.145 18.882 107.826 18.8082C107.522 18.7192 107.263 18.5162 107.048 18.1991C106.849 17.8667 106.695 17.4734 106.586 17.0191C106.476 16.5648 106.398 16.1634 106.35 15.8149C106.229 15.7853 106.145 15.7707 106.1 15.771C106.069 15.7712 105.994 15.7869 105.872 15.818C105.689 15.6524 105.514 15.4336 105.345 15.1617C105.176 14.8898 105.053 14.61 104.975 14.3224C104.913 14.0195 104.911 13.7237 104.97 13.4352C105.043 13.1465 105.216 12.8951 105.488 12.681C105.454 12.12 105.382 11.5366 105.272 10.9306C105.161 10.3247 105.074 9.71856 105.009 9.1123C104.945 8.50605 104.933 7.91461 104.975 7.33799C105.017 6.76137 105.172 6.22192 105.442 5.71963C105.381 5.67453 105.35 5.60648 105.35 5.51548C105.349 5.40932 105.348 5.30316 105.348 5.19699C105.482 4.90793 105.701 4.71691 106.004 4.62392C106.321 4.51566 106.685 4.48293 107.095 4.52574C107.505 4.55338 107.937 4.63395 108.393 4.76745C108.864 4.90086 109.328 5.05707 109.784 5.23607C110.24 5.39991 110.659 5.57158 111.039 5.75108C111.434 5.93048 111.762 6.08759 112.02 6.22239C112.416 6.43212 112.683 6.74129 112.823 7.14988C112.977 7.54321 112.911 7.96832 112.626 8.4252C112.475 8.48686 112.316 8.54099 112.15 8.58759C111.983 8.61902 111.786 8.62032 111.558 8.59148ZM117.297 5.20942C117.343 5.19395 117.366 5.21655 117.366 5.27722C117.623 5.23002 117.927 5.24319 118.276 5.31673C118.626 5.39027 118.937 5.50197 119.211 5.65184C119.395 5.96914 119.488 6.29462 119.491 6.62828C119.493 6.94677 119.449 7.27314 119.361 7.6074C119.272 7.92649 119.16 8.24573 119.026 8.56512C118.906 8.86925 118.817 9.17318 118.759 9.4769C118.608 9.69023 118.413 9.95693 118.172 10.277C117.947 10.5818 117.714 10.9171 117.474 11.2826C117.248 11.633 117.039 12.0059 116.844 12.4016C116.665 12.7971 116.553 13.177 116.51 13.5413C116.467 13.9056 116.515 14.2465 116.653 14.5641C116.807 14.8816 117.09 15.1527 117.501 15.3776C117.683 15.4674 117.866 15.5344 118.048 15.5787C118.23 15.623 118.42 15.6673 118.618 15.7115C118.815 15.7405 119.005 15.7848 119.187 15.8442C119.37 15.9037 119.552 15.9935 119.735 16.1136C119.917 16.0518 120.113 16.005 120.326 15.9732C120.553 15.9262 120.773 15.902 120.985 15.9007C121.212 15.8992 121.425 15.9205 121.622 15.9647C121.835 15.9936 122.017 16.0607 122.17 16.1659C121.961 16.6981 121.637 17.0415 121.198 17.196C120.759 17.3354 120.274 17.3917 119.743 17.3648C119.212 17.3228 118.658 17.2431 118.081 17.1255C117.519 16.9927 117.003 16.9203 116.532 16.9082C116.152 16.7439 115.825 16.5792 115.551 16.4141C115.277 16.2491 115.01 16.0082 114.75 15.6914C114.674 15.7071 114.644 15.7831 114.66 15.9195C114.691 16.0406 114.7 16.1392 114.685 16.2151C114.504 16.2921 114.36 16.3765 114.254 16.4682C114.164 16.5446 114.134 16.6661 114.166 16.8328C113.908 16.7586 113.688 16.7677 113.506 16.8598C113.34 16.9368 113.151 17.0594 112.94 17.2276C112.74 16.7739 112.577 16.2744 112.452 15.7293C112.327 15.1689 112.217 14.6009 112.123 14.0251C112.043 13.4341 111.963 12.8432 111.883 12.2522C111.804 11.6612 111.709 11.1082 111.6 10.5932C111.582 10.3052 111.558 10.0172 111.526 9.72922C111.508 9.42599 111.537 9.16038 111.611 8.93239C111.686 8.68923 111.828 8.50628 112.04 8.38356C112.267 8.26073 112.623 8.22805 113.109 8.28553C113.14 8.39149 113.178 8.48982 113.224 8.58052C113.27 8.67122 113.332 8.75424 113.408 8.82957C114.292 7.17056 115.588 5.96384 117.297 5.20942ZM114.642 9.73147C114.735 9.9432 114.767 10.1857 114.738 10.4589C114.725 10.732 114.696 11.0127 114.653 11.3012C114.609 11.5745 114.58 11.8325 114.567 12.0753C114.553 12.318 114.608 12.5073 114.73 12.643C115.015 12.2619 115.316 11.8732 115.632 11.4768C115.948 11.0803 116.241 10.6689 116.511 10.2424C116.782 9.81599 117.014 9.36704 117.208 8.89559C117.402 8.40897 117.535 7.89241 117.607 7.34593C117.137 7.36418 116.774 7.46516 116.517 7.64885C116.26 7.83254 116.034 8.04637 115.839 8.29032C115.658 8.53418 115.486 8.79316 115.321 9.06725C115.155 9.32617 114.929 9.54758 114.642 9.73147ZM114.731 12.8705C114.747 12.9462 114.762 12.9764 114.777 12.9612C114.792 12.9307 114.8 12.9003 114.8 12.87C114.799 12.8245 114.791 12.7942 114.776 12.7792C114.761 12.7641 114.746 12.7945 114.731 12.8705ZM117.273 15.379C117.304 15.4092 117.304 15.4092 117.273 15.379C117.258 15.3488 117.258 15.3488 117.273 15.379ZM124.595 8.98351C124.247 9.00097 123.883 9.07919 123.505 9.21818C123.127 9.34201 122.787 9.51867 122.485 9.74816C122.198 9.97755 121.98 10.252 121.83 10.5715C121.696 10.8909 121.683 11.255 121.792 11.6638C122.262 11.6152 122.716 11.5439 123.156 11.45C123.595 11.341 124.034 11.2395 124.473 11.1456C124.928 11.0516 125.39 10.9803 125.86 10.9317C126.329 10.868 126.83 10.8495 127.361 10.8764C127.392 10.9672 127.423 11.058 127.453 11.1488C127.484 11.2396 127.553 11.2998 127.659 11.3294C127.706 11.4959 127.692 11.6022 127.616 11.6482C127.541 11.6942 127.48 11.7629 127.435 11.8541C127.176 11.689 126.888 11.6606 126.57 11.7688C126.252 11.8619 126.034 12.0454 125.914 12.3192C125.52 12.3673 125.195 12.4756 124.938 12.6441C124.681 12.7974 124.401 12.9282 124.099 13.0364C124.099 13.1122 124.13 13.1575 124.191 13.1723C124.251 13.1719 124.267 13.2248 124.237 13.3312C124.025 13.3174 123.873 13.3412 123.783 13.4024C123.692 13.4485 123.594 13.4795 123.488 13.4954C123.442 13.5109 123.427 13.5337 123.443 13.5639C123.458 13.579 123.473 13.6017 123.488 13.6319C123.519 13.6469 123.542 13.6695 123.557 13.6997C123.573 13.7299 123.55 13.7604 123.49 13.7911C123.399 13.8524 123.308 13.8833 123.217 13.8839C123.141 13.8693 123.065 13.8546 122.989 13.8399C122.913 13.8101 122.837 13.7878 122.761 13.7732C122.685 13.7585 122.617 13.7665 122.557 13.7973C122.846 14.0077 123.173 14.1572 123.538 14.2458C123.918 14.3192 124.312 14.3697 124.722 14.3973C125.132 14.4249 125.541 14.445 125.951 14.4575C126.376 14.4547 126.778 14.4824 127.157 14.5405C127.204 14.6767 127.204 14.7829 127.159 14.859C127.129 14.9199 127.084 14.9733 127.024 15.0192C126.979 15.065 126.934 15.1184 126.888 15.1793C126.858 15.225 126.874 15.2932 126.935 15.3838C126.844 15.354 126.73 15.3396 126.594 15.3405C126.472 15.3261 126.351 15.3345 126.23 15.3657C126.109 15.3968 126.003 15.4506 125.913 15.527C125.837 15.5882 125.792 15.6719 125.778 15.7781C125.43 15.9018 125.051 15.9498 124.641 15.9221C124.246 15.8792 123.836 15.8061 123.411 15.7027C122.986 15.5993 122.553 15.4808 122.112 15.3472C121.671 15.2136 121.238 15.1103 120.813 15.0373C120.736 14.8103 120.591 14.652 120.378 14.5624C120.165 14.4728 119.974 14.3527 119.807 14.2021C119.652 13.7026 119.557 13.18 119.523 12.6342C119.505 12.0883 119.539 11.5496 119.626 11.0182C119.729 10.4715 119.885 9.94726 120.094 9.44537C120.318 8.94338 120.596 8.48655 120.927 8.07486C121.152 7.72454 121.476 7.47215 121.9 7.3177C122.339 7.14798 122.763 7.08452 123.173 7.12732C123.583 7.17013 123.917 7.32718 124.177 7.59848C124.436 7.85461 124.5 8.23337 124.366 8.73476C124.352 8.82586 124.382 8.87116 124.458 8.87066C124.549 8.87006 124.595 8.90768 124.595 8.98351ZM135.207 7.04819C135.041 7.18578 134.952 7.35321 134.938 7.55047C134.924 7.74774 134.94 7.95996 134.987 8.18716C134.76 8.27965 134.548 8.31897 134.351 8.3051C134.154 8.29123 133.964 8.24697 133.781 8.17234C133.614 8.08244 133.454 7.97732 133.302 7.85699C133.164 7.72139 133.042 7.58569 132.935 7.44989C132.784 7.52672 132.633 7.58838 132.481 7.63488C132.345 7.66611 132.209 7.70492 132.072 7.75132C131.951 7.79761 131.83 7.85908 131.71 7.93571C131.604 7.99707 131.506 8.08872 131.416 8.21065C131.369 8.07445 131.308 8.01418 131.232 8.02985C131.172 8.03025 131.096 8.05349 131.005 8.09959C130.93 8.13042 130.854 8.16125 130.779 8.19209C130.703 8.20775 130.634 8.1627 130.573 8.05693C130.498 8.13326 130.43 8.22471 130.37 8.33127C130.325 8.42257 130.273 8.51392 130.213 8.60532C130.152 8.69671 130.085 8.78058 130.009 8.85691C129.949 8.91797 129.858 8.96407 129.737 8.9952C129.724 9.34412 129.659 9.70098 129.54 10.0658C129.421 10.4154 129.294 10.7727 129.16 11.1375C129.041 11.5023 128.945 11.8746 128.871 12.2542C128.813 12.6186 128.831 12.9825 128.924 13.3459C129.033 13.7699 129.225 14.1402 129.5 14.4569C129.79 14.7583 130.126 14.9988 130.506 15.1783C130.902 15.3577 131.327 15.4686 131.782 15.5111C132.253 15.5536 132.73 15.5125 133.215 15.388C132.953 14.8285 132.684 14.2919 132.408 13.778C132.147 13.2489 131.795 12.8493 131.353 12.5792C131.291 12.2459 131.334 11.9423 131.484 11.6683C131.634 11.3943 131.791 11.1051 131.956 10.8006C132.427 10.8734 132.784 11.0379 133.029 11.2941C133.288 11.5502 133.495 11.8522 133.649 12.2C133.803 12.5327 133.941 12.8882 134.065 13.2666C134.189 13.6449 134.358 13.9927 134.573 14.3098C134.8 14.2324 134.958 14.1025 135.048 13.9199C135.153 13.7372 135.273 13.562 135.408 13.3943C135.145 12.6225 134.807 11.9194 134.393 11.2851C133.995 10.6356 133.536 10.1153 133.018 9.72439C133.078 9.61783 133.093 9.53431 133.062 9.47385C133.031 9.39822 132.978 9.3379 132.902 9.2929C132.841 9.23263 132.779 9.17237 132.718 9.1121C132.657 9.03667 132.626 8.93829 132.625 8.81695C132.731 8.67976 132.859 8.58791 133.01 8.54142C133.177 8.47965 133.344 8.45581 133.51 8.46988C133.693 8.48385 133.86 8.52067 134.012 8.58033C134.179 8.6399 134.331 8.71474 134.468 8.80484C134.393 8.88117 134.371 8.98748 134.402 9.12378C134.403 9.19961 134.456 9.22201 134.562 9.19098C134.683 9.15985 134.781 9.1592 134.857 9.18904C134.828 9.2954 134.821 9.37886 134.836 9.43943C134.867 9.48473 134.905 9.5224 134.951 9.55243C134.997 9.58246 135.035 9.62013 135.065 9.66543C135.096 9.71073 135.104 9.77893 135.089 9.87003C135.348 9.98966 135.6 10.1928 135.844 10.4793C136.089 10.7507 136.303 11.0678 136.487 11.4306C136.672 11.7934 136.811 12.1793 136.905 12.5881C136.998 12.9819 137.031 13.3684 137.003 13.7478C136.975 14.112 136.864 14.4464 136.669 14.751C136.488 15.0404 136.202 15.2697 135.809 15.4392C135.931 15.5597 136.007 15.6729 136.038 15.7789C136.085 15.8848 136.108 15.9908 136.109 16.097C136.109 16.2031 136.095 16.317 136.065 16.4385C136.051 16.5448 136.044 16.6737 136.045 16.8254C135.924 16.8565 135.788 16.8953 135.636 16.9418C135.5 16.9882 135.356 17.0195 135.205 17.0357C135.068 17.0366 134.939 17.0223 134.818 16.9927C134.696 16.948 134.597 16.8652 134.52 16.7444C133.991 17.0209 133.469 17.1912 132.954 17.2552C132.454 17.3192 131.961 17.3148 131.475 17.2422C130.989 17.1544 130.503 17.0211 130.016 16.8423C129.53 16.6483 129.043 16.4316 128.556 16.1921C128.097 15.5733 127.774 14.9005 127.587 14.1737C127.416 13.4316 127.358 12.6813 127.413 11.9225C127.469 11.1638 127.639 10.4271 127.922 9.7124C128.205 8.98252 128.58 8.32029 129.046 7.72571C129.513 7.13114 130.063 6.62701 130.697 6.21333C131.347 5.79955 132.058 5.52187 132.83 5.38028C133.287 5.60479 133.713 5.85224 134.109 6.12264C134.505 6.39304 134.871 6.70156 135.207 7.04819ZM139.912 8.9283C139.791 8.94426 139.708 9.00547 139.663 9.11194C139.618 9.20323 139.527 9.24175 139.391 9.22748C139.214 10.0325 139.242 10.8058 139.474 11.5475C139.706 12.274 140.074 12.8782 140.578 13.3603C141.097 13.8422 141.713 14.1566 142.427 14.3036C143.141 14.4354 143.891 14.3092 144.677 13.9248C144.84 13.3019 144.82 12.7105 144.62 12.1507C144.434 11.5907 144.18 11.0464 143.858 10.5176C143.551 9.97364 143.229 9.44491 142.892 8.93145C142.57 8.40272 142.362 7.85808 142.267 7.29752C142.403 7.20563 142.531 7.12136 142.652 7.04473C142.773 6.9681 142.887 6.91427 142.992 6.88324C143.114 6.85211 143.235 6.85132 143.356 6.88085C143.493 6.89512 143.645 6.95479 143.813 7.05985C143.968 7.54418 144.213 8.03549 144.55 8.53379C144.902 9.01682 145.224 9.53796 145.516 10.0972C145.823 10.6564 146.055 11.2615 146.211 11.9127C146.367 12.5638 146.341 13.2844 146.134 14.0745C146.031 14.515 145.828 14.8652 145.526 15.125C145.24 15.3696 144.87 15.5616 144.415 15.7011C143.976 15.8253 143.476 15.9044 142.916 15.9384C142.37 15.9724 141.794 15.9989 141.187 16.0181C140.367 15.8263 139.697 15.4818 139.178 14.9848C138.674 14.4876 138.291 13.9061 138.029 13.2405C137.782 12.5596 137.648 11.8325 137.628 11.0591C137.608 10.2706 137.678 9.48899 137.84 8.71441C137.99 8.50109 138.194 8.34808 138.451 8.25538C138.709 8.14752 139.042 8.115 139.452 8.1578C139.529 8.2938 139.62 8.40695 139.727 8.49725C139.849 8.57229 139.91 8.71597 139.912 8.9283ZM151.855 8.80426C151.506 8.82172 151.143 8.89995 150.764 9.03894C150.386 9.16276 150.046 9.33942 149.744 9.56891C149.457 9.7983 149.239 10.0727 149.09 10.3922C148.955 10.7116 148.943 11.0757 149.051 11.4845C149.521 11.4359 149.976 11.3647 150.415 11.2708C150.854 11.1617 151.293 11.0603 151.733 10.9664C152.187 10.8724 152.649 10.8011 153.119 10.7525C153.589 10.6887 154.089 10.6703 154.62 10.6971C154.651 10.7879 154.682 10.8787 154.713 10.9695C154.744 11.0603 154.812 11.1205 154.919 11.1502C154.965 11.3167 154.951 11.423 154.875 11.469C154.8 11.515 154.74 11.5836 154.695 11.6749C154.436 11.5098 154.148 11.4813 153.83 11.5896C153.512 11.6827 153.293 11.8661 153.174 12.1399C152.78 12.188 152.454 12.2963 152.197 12.4648C151.941 12.6182 151.661 12.749 151.358 12.8571C151.359 12.9329 151.389 12.9782 151.45 12.993C151.511 12.9926 151.526 13.0456 151.497 13.152C151.284 13.1382 151.133 13.1619 151.042 13.2232C150.951 13.2693 150.853 13.3003 150.747 13.3161C150.702 13.3316 150.687 13.3545 150.702 13.3847C150.717 13.3998 150.733 13.4224 150.748 13.4526C150.778 13.4676 150.801 13.4902 150.817 13.5204C150.832 13.5507 150.809 13.5812 150.749 13.6119C150.658 13.6732 150.568 13.7041 150.477 13.7047C150.401 13.69 150.325 13.6753 150.249 13.6607C150.173 13.6308 150.097 13.6086 150.021 13.5939C149.945 13.5793 149.877 13.5873 149.816 13.618C150.106 13.8285 150.433 13.978 150.797 14.0666C151.177 14.1399 151.572 14.1904 151.981 14.218C152.391 14.2457 152.801 14.2657 153.21 14.2782C153.635 14.2754 154.037 14.3031 154.417 14.3613C154.463 14.4975 154.464 14.6036 154.419 14.6798C154.389 14.7406 154.344 14.794 154.283 14.8399C154.238 14.8857 154.193 14.9391 154.148 15.0001C154.118 15.0458 154.133 15.1139 154.195 15.2045C154.104 15.1748 153.99 15.1604 153.853 15.1613C153.732 15.1469 153.611 15.1553 153.489 15.1864C153.368 15.2175 153.262 15.2713 153.172 15.3477C153.096 15.4089 153.052 15.4926 153.037 15.5989C152.689 15.7225 152.31 15.7705 151.9 15.7429C151.506 15.7 151.096 15.6268 150.671 15.5234C150.245 15.4201 149.812 15.3016 149.371 15.168C148.931 15.0344 148.498 14.9311 148.073 14.858C147.995 14.631 147.85 14.4727 147.637 14.3831C147.424 14.2935 147.234 14.1734 147.066 14.0229C146.911 13.5234 146.817 13.0007 146.783 12.4549C146.764 11.9091 146.798 11.3704 146.886 10.839C146.988 10.2923 147.144 9.76801 147.353 9.26612C147.578 8.76414 147.855 8.3073 148.186 7.89562C148.411 7.54529 148.736 7.2929 149.159 7.13845C149.598 6.96873 150.022 6.90527 150.432 6.94808C150.842 6.99088 151.177 7.14793 151.436 7.41923C151.696 7.67537 151.759 8.05413 151.626 8.55551C151.611 8.64661 151.642 8.69191 151.718 8.69141C151.809 8.69081 151.854 8.72843 151.855 8.80426ZM161.636 5.00887C161.787 4.9927 161.901 5.02229 161.977 5.09762C162.054 5.15779 162.168 5.17979 162.319 5.16362C162.274 5.28525 162.245 5.37645 162.23 5.43722C162.23 5.48272 162.23 5.52821 162.231 5.57371C162.246 5.60395 162.269 5.6493 162.3 5.70976C162.331 5.75506 162.369 5.82306 162.415 5.91376C162.339 5.92942 162.294 5.92214 162.278 5.89191C162.263 5.86167 162.225 5.84676 162.164 5.84716C162.076 6.18141 162.025 6.55334 162.012 6.96293C162 7.37252 161.995 7.80481 161.998 8.2598C162.001 8.69963 161.981 9.15477 161.939 9.62522C161.912 10.0956 161.824 10.5436 161.675 10.9692C161.721 11.0448 161.782 11.0975 161.858 11.1273C161.949 11.157 162.018 11.2097 162.064 11.2852C162.019 11.3765 162.004 11.46 162.02 11.5357C162.035 11.6115 162.051 11.6872 162.067 11.7629C162.098 11.8386 162.113 11.9143 162.114 11.9901C162.114 12.0508 162.069 12.1193 161.979 12.1958C162.162 12.4827 162.263 12.7854 162.28 13.1038C162.313 13.4221 162.3 13.7407 162.241 14.0596C162.182 14.3633 162.093 14.6672 161.974 14.9714C161.87 15.2602 161.781 15.5338 161.706 15.7921C161.19 15.7349 160.727 15.5559 160.315 15.2553C159.919 14.9545 159.53 14.6083 159.148 14.2164C158.781 13.8245 158.415 13.425 158.048 13.0179C157.681 12.6108 157.285 12.2721 156.858 12.0019C156.938 12.5778 156.987 13.1765 157.007 13.7982C157.026 14.4048 157.037 14.9507 157.04 15.4361C156.89 15.6797 156.709 15.825 156.497 15.8719C156.3 15.9187 156.05 15.9052 155.746 15.8313C155.7 15.7558 155.662 15.6726 155.631 15.5818C155.6 15.491 155.561 15.4003 155.515 15.3096C155.484 15.2188 155.438 15.1433 155.377 15.083C155.316 15.0227 155.232 14.9929 155.126 14.9936C155.061 14.3115 155.034 13.5837 155.044 12.8101C155.054 12.0214 154.995 11.1952 154.868 10.3315C154.821 10.0436 154.789 9.76324 154.772 9.49035C154.77 9.21735 154.814 8.98956 154.904 8.80696C154.993 8.62437 155.144 8.50204 155.356 8.43998C155.583 8.36265 155.902 8.37572 156.312 8.4792C156.71 9.05292 157.146 9.57332 157.619 10.0404C158.107 10.4922 158.641 10.9134 159.22 11.3039C159.251 11.4099 159.244 11.4781 159.198 11.5088C159.153 11.5242 159.138 11.5774 159.154 11.6683C159.291 11.6978 159.405 11.7501 159.496 11.8253C159.603 11.8853 159.694 11.9529 159.771 12.0283C159.862 12.1035 159.954 12.1787 160.045 12.254C160.137 12.3292 160.251 12.3891 160.388 12.4337C160.445 11.8722 160.471 11.2577 160.466 10.5904C160.462 9.9231 160.481 9.26322 160.522 8.61077C160.578 7.94305 160.68 7.29778 160.827 6.67497C160.975 6.05215 161.244 5.49678 161.636 5.00887ZM159.452 12.0531C159.483 12.0833 159.483 12.0908 159.452 12.0759C159.437 12.0456 159.437 12.0381 159.452 12.0531ZM169.847 6.43365C169.987 6.87258 170.261 7.14378 170.672 7.24725C171.097 7.33545 171.575 7.37023 172.106 7.35157C172.651 7.31765 173.205 7.28367 173.766 7.24965C174.327 7.21563 174.828 7.28817 175.269 7.46727C175.33 7.57304 175.422 7.67861 175.544 7.78397C175.681 7.87407 175.803 7.97186 175.91 8.07732C176.016 8.18279 176.086 8.30367 176.117 8.43997C176.163 8.57617 176.119 8.73571 175.983 8.91861C175.847 8.93467 175.733 8.93542 175.642 8.92085C175.551 8.90628 175.46 8.88413 175.369 8.8544C175.293 8.85489 175.255 8.87031 175.255 8.90064C175.271 8.91571 175.286 8.93836 175.301 8.96859C175.332 8.99873 175.347 9.02896 175.347 9.05929C175.363 9.07436 175.34 9.08209 175.279 9.08249C175.112 9.05325 174.938 9.03165 174.756 9.01768C174.589 9.00361 174.437 8.97428 174.3 8.92968C174.315 8.86891 174.33 8.8309 174.345 8.81563C174.375 8.80026 174.398 8.80011 174.413 8.81518C174.443 8.81498 174.474 8.81478 174.504 8.81458C174.534 8.81438 174.565 8.79902 174.595 8.76848C174.428 8.72408 174.222 8.67993 173.98 8.63603C173.737 8.59212 173.486 8.56344 173.228 8.54996C172.97 8.53649 172.728 8.56084 172.501 8.623C172.273 8.67 172.107 8.77726 172.002 8.94478C172.047 8.82315 172.039 8.76254 171.978 8.76294C171.918 8.74817 171.872 8.71055 171.841 8.65009C171.69 8.74208 171.531 8.79621 171.364 8.81248C171.213 8.81347 171.053 8.8221 170.887 8.83837C170.735 8.83936 170.584 8.85553 170.432 8.88686C170.296 8.91809 170.16 8.99482 170.024 9.11705C170.088 9.55647 170.091 9.99629 170.033 10.4365C169.975 10.8616 169.978 11.2862 170.041 11.7105C170.105 12.1499 170.199 12.5816 170.323 13.0054C170.462 13.4292 170.601 13.8529 170.741 14.2767C170.88 14.7005 170.996 15.1319 171.09 15.5712C171.184 15.9952 171.225 16.4348 171.213 16.8899C170.713 17.0145 170.326 16.9867 170.052 16.8065C169.778 16.6112 169.548 16.3548 169.364 16.0375C169.18 15.7202 169.011 15.3801 168.857 15.0171C168.718 14.654 168.527 14.3671 168.283 14.1564C168.327 14.0196 168.357 13.8677 168.371 13.7008C168.4 13.5186 168.444 13.3666 168.504 13.2449C168.321 13.0034 168.19 12.7161 168.112 12.3829C168.049 12.0345 168.009 11.6784 167.991 11.3145C167.973 10.9354 167.963 10.5563 167.961 10.1771C167.973 9.79788 167.971 9.44905 167.954 9.13066C167.847 9.02519 167.733 8.97286 167.612 8.97366C167.505 8.97435 167.392 8.99027 167.271 9.0214C167.15 9.05253 167.021 9.08371 166.885 9.11494C166.763 9.1309 166.634 9.109 166.497 9.04923C166.377 9.14103 166.302 9.27044 166.272 9.43747C166.243 9.6045 166.168 9.73391 166.047 9.82571C165.668 9.79787 165.373 9.8529 165.161 9.99079C164.965 10.1286 164.799 10.251 164.663 10.3581C164.481 10.2834 164.283 10.2241 164.07 10.18C163.858 10.1207 163.66 10.0613 163.478 10.0019C163.295 9.92723 163.135 9.82969 162.998 9.70926C162.861 9.57366 162.776 9.39221 162.744 9.16492C162.894 8.89092 163.113 8.67715 163.4 8.52359C163.702 8.36993 164.027 8.24646 164.376 8.15317C164.739 8.05977 165.118 7.98145 165.512 7.91819C165.906 7.85493 166.277 7.78424 166.625 7.70612C166.973 7.62799 167.276 7.52741 167.533 7.40439C167.805 7.2661 167.993 7.07527 168.098 6.83191C168.385 6.64802 168.657 6.53248 168.915 6.48528C169.187 6.42282 169.498 6.40561 169.847 6.43365ZM176.206 5.57282C176.074 6.24103 175.934 6.91688 175.787 7.60037C175.64 8.26868 175.523 8.95955 175.437 9.67297C175.366 10.3863 175.34 11.122 175.36 11.8803C175.396 12.6232 175.522 13.3959 175.74 14.1983C176.075 14.3933 176.462 14.5272 176.903 14.6002C177.343 14.6731 177.775 14.6779 178.199 14.6144C178.639 14.5509 179.032 14.4193 179.38 14.2199C179.727 14.0053 179.983 13.7078 180.147 13.3276C180.375 13.3261 180.557 13.3173 180.693 13.3012C180.83 13.27 180.982 13.3069 181.149 13.412C181.167 13.8062 181.109 14.1706 180.974 14.5052C180.84 14.8397 180.651 15.0078 180.409 15.0094C180.094 15.5575 179.702 15.9392 179.233 16.1546C178.764 16.3549 178.249 16.4493 177.688 16.4378C177.142 16.4111 176.58 16.3086 176.003 16.1304C175.425 15.9522 174.878 15.7434 174.36 15.5042C174.009 15.1121 173.771 14.6663 173.646 14.1666C173.522 13.6517 173.457 13.1137 173.454 12.5526C173.465 11.9913 173.522 11.4146 173.624 10.8224C173.727 10.2151 173.829 9.61529 173.931 9.0231C174.048 8.43082 174.136 7.86148 174.193 7.3151C174.265 6.76861 174.277 6.26802 174.228 5.81333C174.364 5.70627 174.515 5.59152 174.681 5.46909C174.862 5.34657 175.044 5.25437 175.225 5.19251C175.407 5.13065 175.581 5.12192 175.748 5.16632C175.916 5.21072 176.068 5.34622 176.206 5.57282ZM185.944 12.2202C186.005 12.2198 186.035 12.2044 186.035 12.1741C186.035 12.1438 186.019 12.1211 185.989 12.1061C185.973 12.0759 185.958 12.0684 185.943 12.0837C185.928 12.0989 185.928 12.1444 185.944 12.2202C185.673 12.4798 185.364 12.7473 185.017 13.0225C184.685 13.2977 184.322 13.5276 183.929 13.7122C183.551 13.8967 183.165 14.013 182.771 14.0611C182.377 14.1092 181.99 14.0435 181.61 13.864C181.441 13.6376 181.28 13.396 181.127 13.1391C180.989 12.867 180.866 12.5948 180.758 12.3225C180.665 12.035 180.602 11.7472 180.57 11.4593C180.553 11.1712 180.581 10.8828 180.655 10.5942C180.473 10.5044 180.373 10.3609 180.357 10.1639C180.34 9.96681 180.346 9.75443 180.375 9.52674C180.404 9.29905 180.425 9.07898 180.439 8.86656C180.468 8.65403 180.437 8.4874 180.345 8.36666C180.405 8.2146 180.479 8.07002 180.57 7.93293C180.66 7.78067 180.765 7.65105 180.885 7.54409C181.006 7.43713 181.15 7.36793 181.316 7.3365C181.483 7.28991 181.688 7.29615 181.931 7.35521C182.16 7.67221 182.284 8.06574 182.303 8.5358C182.321 9.00585 182.332 9.49113 182.335 9.99162C182.338 10.4769 182.394 10.9316 182.503 11.3555C182.612 11.7795 182.872 12.1039 183.283 12.3287C183.464 12.1758 183.63 12.0079 183.78 11.8249C183.946 11.6266 184.104 11.4284 184.254 11.2303C184.42 11.032 184.585 10.8413 184.751 10.6582C184.916 10.4752 185.105 10.3147 185.316 10.1768C185.301 10.1162 185.263 10.0861 185.202 10.0865C185.156 10.0716 185.118 10.0491 185.088 10.019C185.193 9.92732 185.276 9.81302 185.336 9.67613C185.395 9.52406 185.516 9.43227 185.698 9.40074C185.652 9.24937 185.65 9.06738 185.694 8.85475C185.754 8.62686 185.813 8.39896 185.872 8.17107C185.931 7.94317 185.975 7.71538 186.004 7.48768C186.033 7.24482 186.001 7.01753 185.908 6.8058C186.075 6.69854 186.195 6.56124 186.27 6.39391C186.344 6.21142 186.45 6.06664 186.585 5.95958C186.828 5.92765 187.033 5.93389 187.2 5.97829C187.382 6.02259 187.564 6.06689 187.747 6.11119C187.809 6.33829 187.879 6.55775 187.956 6.76958C188.033 6.96625 188.102 7.16296 188.164 7.35973C188.226 7.55649 188.258 7.76104 188.259 7.97336C188.276 8.17043 188.239 8.39059 188.15 8.63385C188.089 8.61908 188.051 8.59658 188.036 8.56635C188.02 8.53611 187.975 8.52883 187.899 8.5445C187.977 8.90799 187.995 9.25671 187.952 9.59067C187.923 9.92453 187.888 10.2509 187.844 10.5697C187.816 10.8883 187.803 11.1994 187.805 11.5027C187.822 11.7907 187.915 12.0783 188.084 12.3654C187.824 14.4753 187.77 16.5384 187.92 18.5546C188.069 20.586 188.355 22.5255 188.777 24.3731C188.944 24.463 189.126 24.4997 189.324 24.4832C189.521 24.4819 189.718 24.4655 189.915 24.4338C189.991 24.5698 190.023 24.6834 190.008 24.7745C189.993 24.8656 189.964 24.9492 189.919 25.0253C189.874 25.1166 189.829 25.2079 189.784 25.2992C189.754 25.3904 189.755 25.5117 189.786 25.6632C189.605 25.7099 189.423 25.7111 189.24 25.6668C189.073 25.6376 188.906 25.5932 188.739 25.5336C188.587 25.4891 188.427 25.4371 188.26 25.3775C188.093 25.3179 187.933 25.2886 187.782 25.2896C187.305 24.3221 186.965 23.3081 186.761 22.2478C186.557 21.1874 186.413 20.1039 186.33 18.9973C186.247 17.8906 186.186 16.7687 186.148 15.6314C186.126 14.4789 186.058 13.3418 185.944 12.2202ZM197.938 5.31617C198.073 5.20911 198.255 5.18516 198.483 5.24433C198.711 5.28833 198.886 5.33268 199.007 5.37739C199.254 6.02794 199.501 6.68608 199.748 7.35181C200.01 8.00226 200.28 8.6375 200.557 9.25753C200.834 9.87755 201.126 10.4671 201.433 11.0263C201.74 11.5855 202.07 12.0914 202.421 12.5441C202.692 12.1935 202.955 11.8429 203.211 11.4924C203.481 11.1266 203.722 10.7458 203.931 10.3501C204.156 9.95429 204.335 9.52844 204.469 9.07255C204.602 8.61666 204.675 8.11568 204.687 7.56959C204.898 7.49236 205.08 7.385 205.23 7.2475C205.396 7.10991 205.57 6.97985 205.751 6.85732C205.888 6.91709 206.002 6.99217 206.094 7.08257C206.201 7.15771 206.315 7.23279 206.437 7.30782C206.422 7.44442 206.438 7.5884 206.485 7.73977C206.531 7.89113 206.586 8.04245 206.647 8.19371C206.709 8.34497 206.755 8.49634 206.787 8.6478C206.833 8.79917 206.849 8.94315 206.835 9.07974C207.019 9.44254 207.174 9.81312 207.297 10.1915C207.421 10.5698 207.537 10.9482 207.646 11.3267C207.77 11.6899 207.894 12.0607 208.017 12.439C208.141 12.8174 208.288 13.1956 208.457 13.5737C208.852 13.6924 209.112 13.9258 209.235 14.2738C209.374 14.6066 209.399 15.0311 209.312 15.5473C209.237 15.6237 209.161 15.6924 209.086 15.7536C209.025 15.8147 208.95 15.8758 208.859 15.9371C208.387 15.652 207.976 15.3286 207.625 14.9669C207.273 14.5901 206.96 14.1902 206.684 13.7673C206.423 13.3292 206.185 12.853 205.969 12.3388C205.769 11.8244 205.575 11.2721 205.39 10.6818C205.058 11.0176 204.78 11.4214 204.556 11.893C204.346 12.3646 204.107 12.8136 203.837 13.2401C203.566 13.6513 203.235 14.0024 202.842 14.2931C202.45 14.5687 201.927 14.6783 201.275 14.6219C200.74 13.9429 200.295 13.2027 199.941 12.4011C199.602 11.5995 199.278 10.813 198.97 10.0415C198.82 10.27 198.738 10.5284 198.725 10.8166C198.726 11.0896 198.751 11.3852 198.799 11.7034C198.861 12.0063 198.924 12.3168 198.987 12.6349C199.049 12.953 199.082 13.2561 199.084 13.5443C199.101 13.8324 199.057 14.0905 198.952 14.3187C198.848 14.5469 198.659 14.7301 198.387 14.8684C198.403 14.9896 198.419 15.0578 198.434 15.0729C198.449 15.0728 198.487 15.1332 198.549 15.2541C198.413 15.2853 198.292 15.3316 198.186 15.393C198.08 15.4544 197.974 15.5233 197.869 15.5998C197.778 15.6611 197.672 15.7225 197.551 15.7839C197.446 15.8301 197.317 15.8537 197.165 15.8547C197.024 15.2186 196.838 14.598 196.607 13.9929C196.391 13.3876 196.197 12.7898 196.026 12.1994C195.871 11.5937 195.768 11.0029 195.719 10.4269C195.685 9.85075 195.772 9.27383 195.981 8.69611C196.148 8.72535 196.322 8.74695 196.504 8.76092C196.701 8.75962 196.884 8.78117 197.051 8.82558C197.082 8.99221 197.144 9.12072 197.235 9.21112C197.342 9.30142 197.358 9.43023 197.283 9.59756C197.418 9.26301 197.483 8.90615 197.481 8.52699C197.494 8.14773 197.491 7.76857 197.473 7.38951C197.471 6.99519 197.491 6.62346 197.534 6.27434C197.577 5.91005 197.712 5.59066 197.938 5.31617ZM197.287 10.2118L197.424 10.2109C197.454 10.1652 197.454 10.1273 197.423 10.0972C197.408 10.0669 197.377 10.052 197.332 10.0523C197.301 10.0373 197.271 10.0375 197.241 10.0529C197.21 10.0682 197.195 10.0911 197.196 10.1214C197.257 10.1513 197.287 10.1815 197.287 10.2118ZM212.187 14.6184C212.4 14.7232 212.537 14.9043 212.6 15.1617C212.662 15.404 212.709 15.6767 212.742 15.9798C212.455 16.194 212.129 16.2872 211.765 16.2592C211.416 16.216 211.104 16.0816 210.83 15.8559C210.843 15.5524 210.796 15.3177 210.689 15.1515C210.581 14.9702 210.444 14.8195 210.276 14.6992C210.276 14.6234 210.291 14.5778 210.321 14.5624C210.351 14.5319 210.366 14.4787 210.365 14.4029C210.35 14.3272 210.304 14.2895 210.228 14.29C210.152 14.2905 210.122 14.2452 210.136 14.1541C210.1 13.3354 210.027 12.6078 209.917 11.9715C209.807 11.3201 209.711 10.6989 209.632 10.1079C209.691 9.86482 209.712 9.58409 209.694 9.2657C209.692 8.9472 209.683 8.62118 209.665 8.28762C209.648 7.95406 209.646 7.63556 209.659 7.33214C209.672 7.02871 209.731 6.77048 209.836 6.55746C209.941 6.32926 210.114 6.16887 210.356 6.07628C210.598 5.96852 210.939 5.95869 211.38 6.0468C211.475 6.72868 211.54 7.41077 211.575 8.09305C211.625 8.76007 211.667 9.44231 211.702 10.1398C211.752 10.8219 211.81 11.5344 211.876 12.2772C211.941 13.0199 212.045 13.8003 212.187 14.6184ZM220.398 4.62247C220.549 4.6063 220.663 4.63589 220.74 4.71122C220.816 4.77139 220.93 4.79339 221.081 4.77722C221.037 4.89885 221.007 4.99005 220.992 5.05082C220.992 5.09632 220.993 5.14181 220.993 5.18731C221.008 5.21755 221.031 5.2629 221.062 5.32336C221.093 5.36866 221.131 5.43666 221.177 5.52736C221.101 5.54302 221.056 5.53574 221.041 5.50551C221.025 5.47527 220.987 5.46036 220.926 5.46076C220.838 5.79501 220.787 6.16694 220.775 6.57653C220.762 6.98612 220.757 7.41841 220.76 7.8734C220.763 8.31323 220.743 8.76837 220.701 9.23882C220.674 9.70918 220.586 10.1572 220.437 10.5828C220.483 10.6584 220.544 10.7111 220.62 10.7409C220.711 10.7706 220.78 10.8233 220.826 10.8988C220.781 10.9901 220.766 11.0736 220.782 11.1493C220.798 11.2251 220.813 11.3008 220.829 11.3765C220.86 11.4522 220.875 11.5279 220.876 11.6037C220.876 11.6644 220.831 11.7329 220.741 11.8094C220.925 12.0963 221.025 12.399 221.042 12.7174C221.075 13.0357 221.062 13.3543 221.003 13.6732C220.945 13.9769 220.856 14.2808 220.736 14.585C220.632 14.8738 220.543 15.1474 220.469 15.4057C219.953 15.3485 219.489 15.1695 219.077 14.8689C218.681 14.5681 218.292 14.2219 217.91 13.83C217.544 13.4381 217.177 13.0386 216.81 12.6315C216.444 12.2244 216.047 11.8857 215.621 11.6155C215.7 12.1914 215.75 12.7901 215.769 13.4118C215.788 14.0184 215.799 14.5643 215.802 15.0497C215.652 15.2933 215.471 15.4386 215.259 15.4855C215.062 15.5323 214.812 15.5188 214.508 15.4449C214.462 15.3694 214.424 15.2862 214.393 15.1954C214.362 15.1046 214.323 15.0139 214.277 14.9232C214.246 14.8324 214.2 14.7569 214.139 14.6966C214.078 14.6363 213.995 14.6065 213.888 14.6072C213.823 13.9251 213.796 13.1973 213.806 12.4237C213.816 11.635 213.757 10.8088 213.63 9.94508C213.583 9.65722 213.551 9.37684 213.534 9.10395C213.532 8.83095 213.576 8.60316 213.666 8.42056C213.756 8.23797 213.906 8.11564 214.118 8.05358C214.345 7.97625 214.664 7.98932 215.074 8.0928C215.472 8.66652 215.908 9.18692 216.381 9.65398C216.87 10.1058 217.403 10.527 217.982 10.9175C218.013 11.0235 218.006 11.0917 217.961 11.1224C217.915 11.1378 217.9 11.191 217.916 11.2819C218.053 11.3114 218.167 11.3637 218.258 11.4389C218.365 11.4989 218.456 11.5665 218.533 11.6419C218.624 11.7171 218.716 11.7923 218.807 11.8676C218.899 11.9428 219.013 12.0027 219.15 12.0473C219.207 11.4858 219.233 10.8713 219.229 10.204C219.224 9.5367 219.243 8.87682 219.284 8.22437C219.34 7.55665 219.442 6.91138 219.59 6.28857C219.737 5.66575 220.007 5.11038 220.398 4.62247ZM218.214 11.6667C218.245 11.6969 218.245 11.7044 218.215 11.6895C218.199 11.6592 218.199 11.6517 218.214 11.6667ZM227.168 8.30903C226.819 8.32649 226.456 8.40471 226.078 8.5437C225.699 8.66753 225.359 8.84418 225.057 9.07367C224.771 9.30306 224.553 9.5775 224.403 9.89699C224.269 10.2164 224.256 10.5805 224.365 10.9893C224.835 10.9407 225.289 10.8694 225.728 10.7755C226.167 10.6665 226.607 10.565 227.046 10.4711C227.5 10.3771 227.962 10.3058 228.432 10.2573C228.902 10.1935 229.402 10.175 229.933 10.2019C229.964 10.2927 229.995 10.3835 230.026 10.4743C230.057 10.5651 230.126 10.6253 230.232 10.6549C230.279 10.8215 230.264 10.9277 230.189 10.9737C230.113 11.0197 230.053 11.0884 230.008 11.1797C229.749 11.0145 229.461 10.9861 229.143 11.0944C228.825 11.1874 228.606 11.3709 228.487 11.6447C228.093 11.6928 227.767 11.8011 227.511 11.9696C227.254 12.123 226.974 12.2537 226.672 12.3619C226.672 12.4377 226.703 12.483 226.763 12.4978C226.824 12.4974 226.84 12.5504 226.81 12.6567C226.598 12.643 226.446 12.6667 226.355 12.728C226.265 12.7741 226.166 12.805 226.06 12.8209C226.015 12.8364 226 12.8592 226.015 12.8895C226.031 12.9045 226.046 12.9272 226.061 12.9574C226.092 12.9724 226.115 12.995 226.13 13.0252C226.145 13.0554 226.123 13.0859 226.062 13.1167C225.972 13.1779 225.881 13.2088 225.79 13.2094C225.714 13.1948 225.638 13.1801 225.562 13.1654C225.486 13.1356 225.41 13.1134 225.334 13.0987C225.258 13.084 225.19 13.0921 225.13 13.1228C225.419 13.3332 225.746 13.4827 226.111 13.5713C226.49 13.6447 226.885 13.6952 227.295 13.7228C227.704 13.7505 228.114 13.7705 228.524 13.783C228.948 13.7802 229.35 13.8079 229.73 13.8661C229.776 14.0022 229.777 14.1084 229.732 14.1845C229.702 14.2454 229.657 14.2988 229.597 14.3447C229.551 14.3905 229.506 14.4439 229.461 14.5048C229.431 14.5505 229.447 14.6187 229.508 14.7093C229.417 14.6795 229.303 14.6651 229.167 14.666C229.045 14.6517 228.924 14.66 228.803 14.6912C228.682 14.7223 228.576 14.7761 228.485 14.8525C228.41 14.9137 228.365 14.9974 228.35 15.1037C228.002 15.2273 227.624 15.2753 227.214 15.2476C226.819 15.2047 226.409 15.1316 225.984 15.0282C225.558 14.9248 225.125 14.8063 224.685 14.6727C224.244 14.5391 223.811 14.4358 223.386 14.3628C223.309 14.1358 223.163 13.9775 222.951 13.8879C222.738 13.7983 222.547 13.6782 222.379 13.5276C222.224 13.0281 222.13 12.5055 222.096 11.9597C222.077 11.4138 222.112 10.8752 222.199 10.3437C222.302 9.79706 222.458 9.27277 222.667 8.77089C222.891 8.2689 223.168 7.81207 223.499 7.40038C223.725 7.05006 224.049 6.79767 224.473 6.64321C224.911 6.47349 225.336 6.41003 225.745 6.45284C226.155 6.49565 226.49 6.6527 226.75 6.924C227.009 7.18013 227.072 7.55889 226.939 8.06028C226.924 8.15138 226.955 8.19667 227.031 8.19618C227.122 8.19558 227.168 8.23319 227.168 8.30903ZM236.686 6.10789C236.748 6.19849 236.771 6.32725 236.757 6.49418C237.138 6.70402 237.587 6.97407 238.105 7.30434C238.623 7.63461 239.088 8.01831 239.5 8.45544C239.928 8.87731 240.249 9.34537 240.465 9.85963C240.68 10.3587 240.684 10.8895 240.475 11.4521C240.493 11.8312 240.42 12.2108 240.255 12.5911C240.091 12.9713 239.866 13.3216 239.58 13.642C239.309 13.9623 239 14.2374 238.652 14.4671C238.305 14.6818 237.949 14.8282 237.586 14.9064C237.254 15.1664 236.899 15.3811 236.521 15.5504C236.158 15.7197 235.788 15.8813 235.409 16.0355C235.031 16.1897 234.661 16.3589 234.298 16.5433C233.95 16.7276 233.626 16.9573 233.324 17.2322C233.157 17.1423 233.004 17.0523 232.867 16.9622C232.73 16.857 232.57 16.767 232.388 16.6924C231.984 15.2238 231.565 13.8161 231.132 12.4691C230.698 11.122 230.212 9.83605 229.673 8.61106C229.792 8.26144 229.865 7.91211 229.894 7.56309C229.921 7.1989 229.995 6.81166 230.113 6.40137C230.536 6.04975 231.004 5.78883 231.519 5.61861C232.048 5.44829 232.602 5.36124 233.178 5.35745C233.769 5.33839 234.361 5.40275 234.954 5.55052C235.546 5.68313 236.124 5.86892 236.686 6.10789ZM239.015 10.8474C238.905 10.2566 238.614 9.72771 238.14 9.26065C237.667 8.79358 237.111 8.4029 236.472 8.08859C235.833 7.75912 235.164 7.51327 234.465 7.35103C233.766 7.17362 233.136 7.07917 232.575 7.0677C232.469 7.15939 232.379 7.24341 232.303 7.31974C232.243 7.39597 232.176 7.47225 232.1 7.54858C232.04 7.60964 231.957 7.67086 231.851 7.73222C231.761 7.79348 231.64 7.85495 231.488 7.91661C231.385 8.2813 231.348 8.53938 231.38 8.69084C231.411 8.82714 231.487 8.90247 231.609 8.91684C231.73 8.93121 231.882 8.91505 232.063 8.86835C232.26 8.82155 232.457 8.78234 232.654 8.75071C232.866 8.71898 233.071 8.72522 233.269 8.76942C233.466 8.79846 233.641 8.91864 233.794 9.12997C233.63 9.58606 233.535 10.072 233.508 10.5879C233.496 11.1036 233.538 11.619 233.632 12.1341C233.726 12.6492 233.859 13.1564 234.029 13.6558C234.214 14.1399 234.429 14.5859 234.674 14.9938C235.068 14.8092 235.529 14.5863 236.058 14.325C236.602 14.0635 237.101 13.7645 237.553 13.4278C238.021 13.0759 238.406 12.6942 238.706 12.2827C239.007 11.8561 239.11 11.3777 239.015 10.8474ZM231.586 8.98524C231.586 8.92457 231.601 8.89414 231.631 8.89394C231.662 8.89374 231.684 8.90876 231.7 8.93899C231.73 8.95396 231.738 8.96907 231.723 8.98434C231.708 8.99961 231.662 8.99991 231.586 8.98524ZM112.565 30.1976C112.399 30.3352 112.309 30.5026 112.295 30.6999C112.281 30.8971 112.298 31.1094 112.345 31.3365C112.118 31.429 111.906 31.4684 111.708 31.4545C111.511 31.4406 111.321 31.3964 111.139 31.3217C110.971 31.2318 110.811 31.1267 110.659 31.0064C110.522 30.8708 110.399 30.7351 110.292 30.5993C110.141 30.6761 109.99 30.7378 109.838 30.7843C109.702 30.8155 109.566 30.8543 109.43 30.9007C109.309 30.947 109.188 31.0085 109.067 31.0851C108.961 31.1465 108.863 31.2381 108.773 31.36C108.727 31.2238 108.666 31.1636 108.59 31.1792C108.529 31.1796 108.453 31.2029 108.363 31.249C108.287 31.2798 108.211 31.3106 108.136 31.3415C108.06 31.3571 107.992 31.3121 107.93 31.2063C107.855 31.2827 107.787 31.3741 107.727 31.4807C107.682 31.572 107.63 31.6633 107.57 31.7547C107.51 31.8461 107.442 31.93 107.367 32.0063C107.306 32.0674 107.216 32.1135 107.095 32.1446C107.082 32.4935 107.016 32.8504 106.897 33.2152C106.778 33.5648 106.651 33.922 106.517 34.2869C106.398 34.6517 106.302 35.0239 106.229 35.4036C106.17 35.768 106.188 36.1319 106.281 36.4953C106.39 36.9192 106.582 37.2896 106.858 37.6063C107.148 37.9077 107.483 38.1482 107.863 38.3277C108.259 38.5071 108.684 38.618 109.139 38.6605C109.61 38.7029 110.087 38.6619 110.572 38.5374C110.31 37.9779 110.042 37.4412 109.765 36.9274C109.504 36.3983 109.152 35.9986 108.711 35.7285C108.648 35.3953 108.691 35.0917 108.841 34.8177C108.991 34.5437 109.148 34.2545 109.313 33.95C109.784 34.0228 110.141 34.1873 110.386 34.4435C110.645 34.6996 110.852 35.0016 111.006 35.3494C111.16 35.6821 111.299 36.0376 111.423 36.416C111.546 36.7943 111.715 37.1421 111.93 37.4592C112.157 37.3818 112.315 37.2519 112.405 37.0693C112.51 36.8866 112.63 36.7114 112.766 36.5436C112.503 35.7719 112.164 35.0688 111.751 34.4345C111.352 33.785 110.894 33.2647 110.375 32.8738C110.435 32.7672 110.45 32.6837 110.419 32.6232C110.388 32.5476 110.335 32.4873 110.259 32.4423C110.198 32.382 110.137 32.3218 110.076 32.2615C110.015 32.1861 109.984 32.0877 109.983 31.9663C110.088 31.8291 110.216 31.7373 110.368 31.6908C110.534 31.629 110.701 31.6052 110.868 31.6193C111.05 31.6332 111.217 31.6701 111.369 31.7297C111.536 31.7893 111.688 31.8641 111.825 31.9542C111.75 32.0306 111.728 32.1369 111.759 32.2732C111.76 32.349 111.813 32.3714 111.919 32.3404C112.04 32.3092 112.139 32.3086 112.215 32.3384C112.185 32.4448 112.178 32.5283 112.194 32.5888C112.224 32.6341 112.262 32.6718 112.308 32.7018C112.354 32.7319 112.392 32.7695 112.423 32.8148C112.453 32.8601 112.461 32.9283 112.447 33.0194C112.705 33.139 112.957 33.3421 113.201 33.6287C113.446 33.9001 113.66 34.2172 113.845 34.58C114.029 34.9428 114.168 35.3286 114.262 35.7375C114.355 36.1313 114.388 36.5178 114.361 36.8972C114.333 37.2614 114.221 37.5958 114.026 37.9004C113.846 38.1897 113.559 38.4191 113.166 38.5886C113.288 38.7091 113.365 38.8223 113.396 38.9283C113.442 39.0342 113.465 39.1402 113.466 39.2463C113.467 39.3525 113.452 39.4664 113.423 39.5879C113.408 39.6942 113.401 39.8231 113.402 39.9748C113.281 40.0059 113.145 40.0447 112.994 40.0912C112.858 40.1376 112.714 40.1689 112.562 40.1851C112.426 40.186 112.297 40.1716 112.175 40.1421C112.053 40.0974 111.954 40.0146 111.878 39.8938C111.349 40.1703 110.826 40.3406 110.311 40.4046C109.811 40.4686 109.318 40.4642 108.832 40.3916C108.346 40.3038 107.86 40.1705 107.374 39.9917C106.887 39.7977 106.4 39.581 105.913 39.3415C105.454 38.7227 105.131 38.0499 104.945 37.3231C104.773 36.581 104.715 35.8306 104.771 35.0719C104.826 34.3132 104.996 33.5765 105.279 32.8618C105.563 32.1319 105.937 31.4697 106.404 30.8751C106.87 30.2805 107.42 29.7764 108.055 29.3627C108.704 28.9489 109.415 28.6713 110.188 28.5297C110.644 28.7542 111.07 29.0016 111.467 29.272C111.863 29.5424 112.229 29.8509 112.565 30.1976ZM117.269 32.0777C117.148 32.0936 117.065 32.1549 117.02 32.2613C116.975 32.3526 116.884 32.3911 116.748 32.3769C116.571 33.1819 116.599 33.9552 116.831 34.6969C117.064 35.4234 117.432 36.0276 117.935 36.5096C118.454 36.9916 119.07 37.306 119.784 37.453C120.498 37.5848 121.248 37.4586 122.034 37.0742C122.197 36.4513 122.178 35.8599 121.977 35.3C121.791 34.7401 121.537 34.1957 121.215 33.667C120.909 33.123 120.587 32.5943 120.249 32.0808C119.928 31.5521 119.719 31.0075 119.624 30.4469C119.76 30.355 119.889 30.2708 120.01 30.1941C120.13 30.1175 120.244 30.0637 120.35 30.0326C120.471 30.0015 120.592 30.0007 120.714 30.0302C120.85 30.0445 121.002 30.1042 121.17 30.2092C121.325 30.6936 121.571 31.1849 121.908 31.6832C122.26 32.1662 122.582 32.6873 122.873 33.2466C123.18 33.8058 123.412 34.4109 123.568 35.0621C123.724 35.7132 123.698 36.4338 123.491 37.2239C123.388 37.6644 123.185 38.0146 122.884 38.2744C122.597 38.519 122.227 38.711 121.773 38.8505C121.334 38.9747 120.834 39.0538 120.273 39.0878C119.727 39.1218 119.151 39.1483 118.544 39.1675C117.724 38.9757 117.054 38.6312 116.535 38.1341C116.032 37.6369 115.649 37.0555 115.386 36.3899C115.139 35.709 115.006 34.9819 114.985 34.2085C114.965 33.4199 115.036 32.6384 115.197 31.8638C115.348 31.6505 115.551 31.4975 115.809 31.4048C116.066 31.2969 116.399 31.2644 116.809 31.3072C116.886 31.4432 116.978 31.5563 117.084 31.6466C117.206 31.7217 117.268 31.8654 117.269 32.0777ZM129.212 31.9536C128.863 31.9711 128.5 32.0493 128.122 32.1883C127.743 32.3121 127.403 32.4888 127.101 32.7183C126.815 32.9477 126.597 33.2221 126.447 33.5416C126.313 33.861 126.3 34.2251 126.409 34.6339C126.879 34.5853 127.333 34.5141 127.772 34.4202C128.211 34.3111 128.651 34.2096 129.09 34.1158C129.544 34.0218 130.006 33.9505 130.476 33.9019C130.946 33.8381 131.446 33.8197 131.977 33.8465C132.008 33.9373 132.039 34.0281 132.07 34.1189C132.101 34.2097 132.17 34.2699 132.276 34.2996C132.323 34.4661 132.308 34.5723 132.233 34.6183C132.157 34.6643 132.097 34.733 132.052 34.8243C131.793 34.6592 131.505 34.6307 131.187 34.739C130.869 34.8321 130.65 35.0155 130.531 35.2893C130.137 35.3374 129.811 35.4457 129.555 35.6142C129.298 35.7676 129.018 35.8983 128.716 36.0065C128.716 36.0823 128.747 36.1276 128.807 36.1424C128.868 36.142 128.884 36.195 128.854 36.3013C128.642 36.2876 128.49 36.3113 128.399 36.3726C128.309 36.4187 128.21 36.4497 128.104 36.4655C128.059 36.481 128.044 36.5038 128.059 36.5341C128.075 36.5491 128.09 36.5718 128.105 36.602C128.136 36.617 128.159 36.6396 128.174 36.6698C128.189 36.7001 128.167 36.7305 128.106 36.7613C128.016 36.8225 127.925 36.8535 127.834 36.8541C127.758 36.8394 127.682 36.8247 127.606 36.8101C127.53 36.7802 127.454 36.758 127.378 36.7433C127.302 36.7286 127.234 36.7367 127.174 36.7674C127.463 36.9778 127.79 37.1274 128.155 37.216C128.534 37.2893 128.929 37.3398 129.339 37.3674C129.748 37.3951 130.158 37.4151 130.568 37.4276C130.992 37.4248 131.394 37.4525 131.774 37.5107C131.82 37.6469 131.821 37.753 131.776 37.8292C131.746 37.89 131.701 37.9434 131.641 37.9893C131.595 38.0351 131.55 38.0885 131.505 38.1495C131.475 38.1952 131.491 38.2633 131.552 38.3539C131.461 38.3242 131.347 38.3098 131.211 38.3106C131.089 38.2963 130.968 38.3047 130.847 38.3358C130.726 38.3669 130.62 38.4207 130.529 38.4971C130.454 38.5583 130.409 38.642 130.394 38.7483C130.046 38.8719 129.667 38.9199 129.258 38.8923C128.863 38.8493 128.453 38.7762 128.028 38.6728C127.602 38.5695 127.169 38.451 126.729 38.3174C126.288 38.1838 125.855 38.0804 125.43 38.0074C125.353 37.7804 125.207 37.6221 124.995 37.5325C124.782 37.4429 124.591 37.3228 124.423 37.1723C124.268 36.6728 124.174 36.1501 124.14 35.6043C124.121 35.0584 124.156 34.5198 124.243 33.9884C124.346 33.4417 124.502 32.9174 124.711 32.4155C124.935 31.9135 125.212 31.4567 125.543 31.045C125.769 30.6947 126.093 30.4423 126.517 30.2878C126.955 30.1181 127.38 30.0547 127.789 30.0975C128.199 30.1403 128.534 30.2973 128.794 30.5686C129.053 30.8248 129.116 31.2035 128.983 31.7049C128.968 31.796 128.999 31.8413 129.075 31.8408C129.166 31.8402 129.212 31.8778 129.212 31.9536ZM136.521 29.3348C136.704 29.4549 136.886 29.5599 137.069 29.6497C137.267 29.7242 137.463 29.6623 137.659 29.4638C137.873 29.6596 138.094 29.8477 138.323 30.0282C138.566 30.1934 138.81 30.3663 139.054 30.5467C139.009 30.6076 138.979 30.6912 138.965 30.7975C138.965 30.8885 138.966 30.9795 138.966 31.0705C138.982 31.1614 138.99 31.2523 138.991 31.3433C138.992 31.4192 138.984 31.4799 138.969 31.5255C138.635 31.376 138.27 31.2798 137.876 31.2369C137.496 31.1787 137.109 31.151 136.715 31.1535C136.32 31.1561 135.919 31.1815 135.509 31.2297C135.115 31.2778 134.744 31.3333 134.396 31.3963C135.22 32.2554 136.015 33.0844 136.778 33.8832C137.557 34.6668 138.351 35.4654 139.16 36.2791C139.132 36.6433 139.058 36.9698 138.939 37.2588C138.835 37.5325 138.7 37.7836 138.534 38.0122C138.384 38.2407 138.211 38.4618 138.015 38.6754C137.835 38.8889 137.662 39.11 137.497 39.3386C137.177 39.2193 136.874 39.2365 136.587 39.3901C136.315 39.5284 136.088 39.6664 135.907 39.804C135.634 39.73 135.345 39.6788 135.042 39.6505C134.738 39.607 134.457 39.5406 134.199 39.4513C133.955 39.3619 133.742 39.2344 133.559 39.0687C133.391 38.8878 133.306 38.6305 133.304 38.2969C133.334 38.2967 133.349 38.2814 133.349 38.2511C133.349 38.2056 133.356 38.1676 133.371 38.1372C133.735 38.1045 134.106 38.0869 134.485 38.0844C134.864 38.0667 135.228 38.034 135.577 37.9862C135.925 37.9384 136.251 37.8604 136.553 37.7523C136.856 37.6441 137.12 37.4831 137.346 37.2693C137.115 36.6035 136.77 36.0445 136.312 35.5925C135.869 35.1404 135.388 34.7265 134.87 34.3507C134.352 33.975 133.826 33.5993 133.293 33.2236C132.775 32.8478 132.325 32.4034 131.942 31.8902C132.016 31.6774 132.03 31.5104 131.984 31.3894C131.953 31.2531 131.937 31.0636 131.935 30.821C132.206 30.5765 132.531 30.3696 132.909 30.2003C133.287 30.031 133.681 29.8919 134.089 29.783C134.498 29.6742 134.915 29.588 135.339 29.5246C135.763 29.4611 136.157 29.3978 136.521 29.3348ZM138.438 30.3004C138.469 30.3306 138.469 30.3382 138.438 30.3232C138.423 30.293 138.423 30.2854 138.438 30.3004ZM138.737 30.7762C138.768 30.8064 138.768 30.8064 138.737 30.7762C138.722 30.746 138.722 30.746 138.737 30.7762ZM146.049 29.5906C146.189 30.0296 146.463 30.3008 146.874 30.4042C147.299 30.4924 147.777 30.5272 148.308 30.5086C148.853 30.4746 149.407 30.4407 149.968 30.4066C150.529 30.3726 151.03 30.4452 151.471 30.6243C151.532 30.73 151.624 30.8356 151.746 30.941C151.883 31.0311 152.005 31.1288 152.112 31.2343C152.219 31.3398 152.288 31.4607 152.319 31.597C152.365 31.7332 152.321 31.8927 152.185 32.0756C152.049 32.0917 151.935 32.0924 151.844 32.0778C151.753 32.0633 151.662 32.0411 151.571 32.0114C151.495 32.0119 151.457 32.0273 151.457 32.0576C151.473 32.0727 151.488 32.0953 151.503 32.1256C151.534 32.1557 151.549 32.1859 151.549 32.2163C151.565 32.2313 151.542 32.2391 151.481 32.2395C151.314 32.2102 151.14 32.1886 150.958 32.1747C150.791 32.1606 150.639 32.1313 150.502 32.0867C150.517 32.0259 150.532 31.9879 150.547 31.9726C150.577 31.9572 150.6 31.9571 150.615 31.9722C150.645 31.972 150.676 31.9718 150.706 31.9716C150.736 31.9714 150.767 31.956 150.797 31.9255C150.63 31.8811 150.425 31.8369 150.182 31.793C149.939 31.7491 149.688 31.7204 149.43 31.707C149.172 31.6935 148.93 31.7178 148.703 31.78C148.475 31.827 148.309 31.9342 148.204 32.1018C148.249 31.9801 148.241 31.9195 148.18 31.9199C148.12 31.9052 148.074 31.8675 148.043 31.8071C147.892 31.8991 147.733 31.9532 147.566 31.9695C147.415 31.9705 147.256 31.9791 147.089 31.9954C146.937 31.9963 146.786 32.0125 146.634 32.0438C146.498 32.0751 146.362 32.1518 146.226 32.274C146.29 32.7135 146.293 33.1533 146.235 33.5935C146.177 34.0186 146.18 34.4432 146.243 34.8675C146.307 35.3069 146.401 35.7385 146.525 36.1624C146.664 36.5862 146.803 37.0099 146.943 37.4337C147.082 37.8574 147.198 38.2889 147.292 38.7282C147.386 39.1522 147.427 39.5918 147.415 40.0469C146.915 40.1715 146.528 40.1437 146.254 39.9635C145.98 39.7681 145.75 39.5118 145.566 39.1945C145.382 38.8772 145.213 38.5371 145.059 38.1741C144.92 37.811 144.729 37.5241 144.485 37.3133C144.529 37.1765 144.559 37.0247 144.573 36.8578C144.602 36.6756 144.646 36.5236 144.706 36.4019C144.523 36.1604 144.392 35.8731 144.314 35.5399C144.251 35.1915 144.211 34.8353 144.193 34.4714C144.175 34.0924 144.165 33.7133 144.163 33.3341C144.175 32.9549 144.173 32.606 144.156 32.2876C144.049 32.1822 143.935 32.1298 143.814 32.1306C143.707 32.1313 143.594 32.1473 143.473 32.1784C143.352 32.2095 143.223 32.2407 143.087 32.2719C142.965 32.2879 142.836 32.266 142.699 32.2062C142.579 32.298 142.504 32.4274 142.474 32.5945C142.445 32.7615 142.37 32.8909 142.249 32.9827C141.87 32.9549 141.575 33.0099 141.363 33.1478C141.167 33.2856 141.001 33.408 140.865 33.5151C140.683 33.4404 140.485 33.3811 140.272 33.337C140.06 33.2777 139.862 33.2183 139.68 33.1588C139.497 33.0842 139.337 32.9867 139.2 32.8662C139.063 32.7306 138.978 32.5492 138.946 32.3219C139.096 32.0479 139.315 31.8341 139.602 31.6806C139.904 31.5269 140.229 31.4034 140.578 31.3102C140.941 31.2168 141.32 31.1384 141.714 31.0752C142.108 31.0119 142.479 30.9412 142.827 30.8631C143.175 30.785 143.478 30.6844 143.735 30.5614C144.007 30.4231 144.195 30.2323 144.3 29.9889C144.587 29.805 144.859 29.6895 145.117 29.6423C145.389 29.5798 145.7 29.5626 146.049 29.5906ZM152.287 38.0128C152.5 38.1176 152.638 38.2987 152.7 38.5561C152.763 38.7984 152.81 39.0711 152.842 39.3742C152.555 39.5884 152.23 39.6815 151.866 39.6536C151.517 39.6104 151.205 39.4759 150.93 39.2502C150.944 38.9468 150.896 38.712 150.789 38.5459C150.682 38.3646 150.544 38.2138 150.377 38.0936C150.376 38.0178 150.391 37.9722 150.421 37.9568C150.451 37.9263 150.466 37.8731 150.466 37.7973C150.45 37.7215 150.404 37.6839 150.329 37.6844C150.253 37.6849 150.222 37.6396 150.237 37.5485C150.201 36.7297 150.128 36.0022 150.018 35.3659C149.907 34.7145 149.812 34.0932 149.732 33.5023C149.791 33.2592 149.812 32.9785 149.795 32.6601C149.793 32.3416 149.783 32.0156 149.766 31.682C149.748 31.3484 149.746 31.0299 149.76 30.7265C149.773 30.4231 149.832 30.1649 149.936 29.9518C150.041 29.7236 150.214 29.5632 150.457 29.4707C150.698 29.3629 151.04 29.3531 151.48 29.4412C151.576 30.1231 151.641 30.8051 151.676 31.4874C151.725 32.1545 151.768 32.8367 151.803 33.5341C151.853 34.2163 151.911 34.9288 151.976 35.6715C152.042 36.4143 152.145 37.1947 152.287 38.0128ZM160.168 33.1606C160.108 33.1914 160.093 33.2142 160.123 33.2292C160.153 33.229 160.168 33.2061 160.168 33.1606C160.274 33.1903 160.282 33.2357 160.192 33.297C160.116 33.3581 160.079 33.4115 160.079 33.457C160.276 33.486 160.382 33.4322 160.396 33.2956C160.503 33.3708 160.58 33.4764 160.626 33.6126C160.688 33.7336 160.741 33.8621 160.788 33.9983C160.834 34.1193 160.896 34.2327 160.972 34.3384C161.049 34.444 161.163 34.5039 161.315 34.5181C161.392 34.7451 161.416 34.9725 161.387 35.2002C161.374 35.4277 161.337 35.6479 161.278 35.8606C161.234 36.0581 161.182 36.2329 161.122 36.3849C161.062 36.537 161.033 36.6509 161.033 36.7268C160.627 37.1541 160.136 37.4834 159.561 37.7147C159.001 37.9459 158.418 38.0787 157.812 38.113C157.205 38.1321 156.613 38.0526 156.036 37.8744C155.473 37.6961 154.986 37.4187 154.574 37.0422C154.162 36.6506 153.863 36.1596 153.677 35.5694C153.491 34.9639 153.487 34.2511 153.663 33.4309C153.766 32.9752 153.946 32.5645 154.201 32.1988C154.472 31.8179 154.788 31.4973 155.15 31.2371C155.513 30.9769 155.898 30.7923 156.307 30.6835C156.731 30.5593 157.14 30.5339 157.535 30.6071C157.93 30.6652 158.295 30.8372 158.63 31.1232C158.981 31.3939 159.264 31.794 159.48 32.3234C159.481 32.4144 159.526 32.4596 159.617 32.459C159.724 32.4583 159.83 32.4576 159.936 32.4569C159.922 32.6238 159.953 32.7449 160.029 32.8203C160.121 32.8803 160.167 32.9938 160.168 33.1606ZM157.779 33.0853C157.429 32.8753 157.125 32.7863 156.867 32.8183C156.609 32.8504 156.398 32.9579 156.232 33.141C156.066 33.3241 155.947 33.5676 155.873 33.8714C155.799 34.16 155.778 34.4635 155.811 34.7818C155.858 35.1 155.959 35.4103 156.113 35.7126C156.266 36.0149 156.48 36.2638 156.754 36.4591C157.042 36.4117 157.338 36.3946 157.641 36.4078C157.945 36.4058 158.233 36.4039 158.506 36.4021C158.794 36.3851 159.051 36.3455 159.279 36.2833C159.521 36.221 159.717 36.0984 159.868 35.9154C159.835 35.5516 159.749 35.2261 159.611 34.9388C159.473 34.6516 159.304 34.3948 159.105 34.1686C158.922 33.9423 158.708 33.739 158.464 33.5586C158.236 33.3781 158.007 33.2203 157.779 33.0853ZM169.029 27.9607C169.181 27.9446 169.295 27.9742 169.371 28.0495C169.447 28.1097 169.561 28.1317 169.713 28.1155C169.668 28.2371 169.638 28.3283 169.624 28.3891C169.624 28.4346 169.624 28.4801 169.625 28.5256C169.64 28.5558 169.663 28.6012 169.694 28.6616C169.724 28.7069 169.763 28.7749 169.809 28.8656C169.733 28.8813 169.687 28.874 169.672 28.8438C169.657 28.8136 169.619 28.7986 169.558 28.799C169.469 29.1333 169.419 29.5052 169.406 29.9148C169.394 30.3244 169.389 30.7567 169.392 31.2117C169.395 31.6515 169.375 32.1066 169.333 32.5771C169.305 33.0475 169.217 33.4955 169.069 33.9211C169.114 33.9966 169.176 34.0493 169.252 34.0792C169.343 34.1089 169.411 34.1615 169.457 34.2371C169.412 34.3284 169.398 34.4119 169.413 34.4876C169.429 34.5633 169.445 34.6391 169.46 34.7148C169.491 34.7904 169.507 34.8662 169.507 34.942C169.508 35.0027 169.463 35.0712 169.372 35.1476C169.556 35.4346 169.657 35.7373 169.674 36.0557C169.706 36.374 169.693 36.6926 169.635 37.0115C169.576 37.3152 169.487 37.6191 169.368 37.9232C169.264 38.2121 169.174 38.4857 169.1 38.744C168.584 38.6867 168.12 38.5078 167.709 38.2071C167.313 37.9064 166.924 37.5601 166.542 37.1683C166.175 36.7764 165.809 36.3769 165.442 35.9698C165.075 35.5627 164.679 35.224 164.252 34.9538C164.332 35.5296 164.381 36.1284 164.401 36.7501C164.42 37.3567 164.431 37.9026 164.434 38.3879C164.284 38.6316 164.103 38.7769 163.891 38.8238C163.694 38.8706 163.444 38.857 163.14 38.7832C163.094 38.7077 163.055 38.6245 163.024 38.5337C162.994 38.4429 162.955 38.3522 162.909 38.2615C162.878 38.1707 162.832 38.0951 162.771 38.0349C162.71 37.9746 162.626 37.9448 162.52 37.9455C162.455 37.2634 162.427 36.5356 162.437 35.762C162.447 34.9733 162.389 34.147 162.262 33.2834C162.215 32.9955 162.182 32.7151 162.165 32.4422C162.164 32.1692 162.208 31.9414 162.297 31.7588C162.387 31.5762 162.538 31.4539 162.75 31.3919C162.977 31.3145 163.296 31.3276 163.706 31.4311C164.104 32.0048 164.54 32.5252 165.013 32.9923C165.501 33.4441 166.035 33.8652 166.614 34.2558C166.645 34.3617 166.638 34.43 166.592 34.4607C166.547 34.4761 166.532 34.5293 166.548 34.6202C166.684 34.6496 166.799 34.702 166.89 34.7772C166.997 34.8372 167.088 34.9048 167.164 34.9802C167.256 35.0554 167.347 35.1306 167.439 35.2059C167.53 35.2811 167.645 35.341 167.781 35.3856C167.838 34.8241 167.865 34.2096 167.86 33.5423C167.856 32.875 167.874 32.2151 167.915 31.5626C167.972 30.8949 168.074 30.2497 168.221 29.6268C168.369 29.004 168.638 28.4487 169.029 27.9607ZM166.846 35.005C166.877 35.0351 166.877 35.0427 166.846 35.0278C166.831 34.9975 166.831 34.9899 166.846 35.005ZM175.533 29.0783C175.715 29.1984 175.898 29.3034 176.081 29.3932C176.278 29.4677 176.475 29.4057 176.671 29.2073C176.885 29.403 177.106 29.5912 177.334 29.7717C177.578 29.9369 177.822 30.1097 178.066 30.2901C178.021 30.3511 177.991 30.4347 177.977 30.541C177.977 30.632 177.978 30.723 177.978 30.814C177.994 30.9049 178.002 30.9958 178.003 31.0868C178.003 31.1626 177.996 31.2234 177.981 31.269C177.647 31.1195 177.282 31.0233 176.887 30.9804C176.508 30.9222 176.121 30.8944 175.727 30.897C175.332 30.8996 174.931 30.925 174.521 30.9732C174.127 31.0213 173.756 31.0768 173.408 31.1398C174.232 31.9989 175.026 32.8278 175.79 33.6267C176.569 34.4102 177.363 35.2089 178.172 36.0226C178.144 36.3867 178.07 36.7133 177.951 37.0023C177.846 37.276 177.712 37.5271 177.546 37.7557C177.396 37.9842 177.223 38.2053 177.027 38.4189C176.847 38.6324 176.674 38.8535 176.508 39.0821C176.189 38.9628 175.886 38.98 175.599 39.1335C175.327 39.2718 175.1 39.4098 174.919 39.5475C174.645 39.4735 174.357 39.4223 174.053 39.394C173.75 39.3505 173.469 39.284 173.21 39.1947C172.967 39.1053 172.754 38.9778 172.571 38.8122C172.403 38.6313 172.318 38.374 172.315 38.0404C172.346 38.0402 172.361 38.0249 172.361 37.9946C172.36 37.9491 172.368 37.9111 172.383 37.8807C172.746 37.8479 173.118 37.8303 173.497 37.8278C173.876 37.8102 174.24 37.7774 174.589 37.7297C174.937 37.6819 175.263 37.6039 175.565 37.4957C175.868 37.3876 176.132 37.2266 176.358 37.0127C176.126 36.3469 175.782 35.788 175.324 35.336C174.881 34.8839 174.4 34.47 173.882 34.0942C173.364 33.7185 172.838 33.3427 172.305 32.9671C171.787 32.5913 171.336 32.1468 170.954 31.6337C171.028 31.4208 171.042 31.2539 170.996 31.1329C170.965 30.9966 170.948 30.8071 170.947 30.5644C171.218 30.32 171.543 30.1131 171.921 29.9438C172.299 29.7745 172.692 29.6354 173.101 29.5265C173.51 29.4176 173.927 29.3315 174.351 29.268C174.775 29.2046 175.169 29.1413 175.533 29.0783ZM177.45 30.0439C177.481 30.0741 177.481 30.0816 177.45 30.0667C177.435 30.0364 177.435 30.0289 177.45 30.0439ZM177.749 30.5197C177.779 30.5498 177.779 30.5498 177.749 30.5197C177.734 30.4895 177.734 30.4895 177.749 30.5197Z" fill="#FBF7EF"/>
<path d="M65.8556 37.403C65.9017 37.4298 65.9977 37.4238 66.1435 37.3851C66.3026 37.3233 66.4618 37.2615 66.621 37.1998C66.7936 37.1149 66.9388 37.0373 67.0567 36.967C67.1697 36.8784 67.2099 36.8093 67.1771 36.7594C67.2634 36.717 67.3071 36.7347 67.3082 36.8124C67.3228 36.8671 67.3549 36.878 67.4048 36.8453C67.4728 36.8077 67.5318 36.7725 67.5816 36.7398C67.6314 36.707 67.6351 36.6475 67.5927 36.5613C67.7992 36.604 67.9953 36.5714 68.1813 36.4635C68.3624 36.3373 68.5137 36.2093 68.6353 36.0795C68.696 36.1609 68.7992 36.1823 68.945 36.1436C69.1042 36.0818 69.2245 36.0206 69.3059 35.9599C69.2962 35.9235 69.264 35.9125 69.2094 35.927C69.1681 35.9185 69.1493 35.8845 69.153 35.825C69.436 35.7888 69.7367 35.7089 70.0551 35.5854C70.3868 35.4387 70.7185 35.2921 71.0503 35.1455C71.382 34.9988 71.6979 34.8662 71.9981 34.7474C72.3164 34.6239 72.5874 34.5421 72.8109 34.5023C72.8462 34.4149 72.9526 34.3379 73.13 34.2712C73.3025 34.1864 73.4513 34.1956 73.5763 34.299C73.6127 34.2893 73.6055 34.262 73.5545 34.217C73.5035 34.172 73.5006 34.124 73.5455 34.0731C73.5917 34.0998 73.6305 34.0993 73.6621 34.0714C73.6889 34.0252 73.7077 34.0593 73.7185 34.1734C73.7769 34.0994 73.8195 34.0393 73.8462 33.9932C73.873 33.9471 73.9307 33.9805 74.0192 34.0936C74.0266 33.9746 74.0826 33.8914 74.1871 33.8441C74.2867 33.7787 74.4004 33.729 74.5279 33.6951C74.6555 33.6612 74.7831 33.6273 74.9106 33.5935C75.0382 33.5596 75.1403 33.5032 75.2169 33.4243C75.3444 33.3904 75.4902 33.3517 75.6543 33.3082C75.8183 33.2646 75.989 33.2095 76.1664 33.1429C76.3438 33.0763 76.5072 32.9938 76.6567 32.8956C76.8062 32.7974 76.9211 32.6791 77.0014 32.5407C77.0974 32.5347 77.1866 32.5403 77.2692 32.5573C77.3518 32.5744 77.4526 32.5867 77.5716 32.5941C77.6203 32.4836 77.7765 32.3738 78.0402 32.2648C78.299 32.1375 78.5116 32.1298 78.6779 32.2418C78.7277 32.209 78.7545 32.1629 78.7582 32.1034C78.7801 32.039 78.8135 31.9814 78.8585 31.9304C78.9642 31.9609 79.0717 31.9616 79.181 31.9325C79.2855 31.8853 79.3809 31.8404 79.4672 31.798C79.5486 31.7374 79.6167 31.6998 79.6714 31.6853C79.726 31.6707 79.7655 31.709 79.7897 31.8002C79.8298 31.731 79.8863 31.6867 79.9592 31.6673C80.0273 31.6297 80.0886 31.6037 80.1433 31.5892C80.2162 31.5698 80.2891 31.5504 80.362 31.5311C80.4301 31.4935 80.4817 31.431 80.5171 31.3436C80.613 31.3376 80.6865 31.3571 80.7375 31.4021C80.7836 31.4289 80.8546 31.4393 80.9506 31.4333C80.9543 31.3738 81.04 31.2925 81.2077 31.1894C81.3754 31.0864 81.5571 30.9991 81.7527 30.9276C81.9617 30.8331 82.1598 30.7707 82.3469 30.7406C82.5291 30.6922 82.6572 30.6971 82.7313 30.7555C82.9257 30.6063 83.1251 30.4753 83.3292 30.3626C83.5468 30.2268 83.7867 30.2118 84.0489 30.3178C84.0891 30.2486 84.159 30.1812 84.2587 30.1158C84.3583 30.0503 84.4604 29.9939 84.5649 29.9466C84.6694 29.8994 84.7629 29.8843 84.8455 29.9014C84.9463 29.9136 85.0112 29.9744 85.0403 30.0837C85.0295 29.9696 85.0715 29.8706 85.1663 29.7869C85.2793 29.6983 85.3996 29.6371 85.5272 29.6033C85.6682 29.5463 85.7957 29.5124 85.9099 29.5016C86.0423 29.486 86.1431 29.4982 86.2123 29.5384C86.351 29.3259 86.5369 29.218 86.7701 29.2146C86.9985 29.193 87.2057 29.1282 87.3916 29.0203C87.5471 29.018 87.7475 28.9648 87.993 28.8606C88.2384 28.7564 88.493 28.6497 88.7567 28.5407C89.0204 28.4316 89.2707 28.3457 89.5076 28.2827C89.7396 28.2016 89.9224 28.1921 90.056 28.2541C90.1813 28.0648 90.3442 27.9435 90.5446 27.8903C90.7403 27.8188 90.9188 27.8299 91.0802 27.9236C91.158 27.9224 91.2284 27.894 91.2917 27.8382C91.3683 27.7593 91.4291 27.6944 91.474 27.6434C91.519 27.5924 91.5531 27.5736 91.5761 27.587C91.6126 27.5774 91.6386 27.6387 91.6543 27.7711C91.7454 27.7469 91.7885 27.7257 91.7837 27.7075C91.7971 27.6844 91.7922 27.6662 91.7692 27.6528C91.7643 27.6346 91.7504 27.6188 91.7273 27.6054C91.6994 27.5738 91.7013 27.544 91.7329 27.5161C91.8835 27.4956 91.9862 27.4781 92.0408 27.4636C92.0955 27.4491 92.1446 27.5238 92.1882 27.6879C92.1822 27.5919 92.2339 27.5294 92.3432 27.5004C92.4708 27.4665 92.5176 27.3857 92.4838 27.2582C92.5663 27.2753 92.6441 27.2741 92.717 27.2548C92.8081 27.2306 92.8901 27.2088 92.963 27.1894C93.0311 27.1518 93.0973 27.144 93.1616 27.1659C93.2393 27.1648 93.3176 27.2025 93.3965 27.2791C93.4415 27.2282 93.4318 27.1917 93.3675 27.1698C93.3165 27.1248 93.3226 27.0744 93.3858 27.0186C93.5183 27.0029 93.6373 27.0104 93.7429 27.0408C93.8437 27.0531 93.9469 27.0744 94.0526 27.1049C93.9481 27.1522 93.7731 27.2279 93.5276 27.3321C93.3004 27.4315 93.0641 27.5333 92.8186 27.6375C92.5732 27.7417 92.3411 27.8228 92.1224 27.8809C91.9219 27.9341 91.7938 27.9292 91.738 27.8659C91.6856 28.0359 91.5774 28.1427 91.4134 28.1863C91.2676 28.225 91.1631 28.2723 91.0999 28.3281C91.0452 28.3426 91.0039 28.334 90.976 28.3024C90.9433 28.2526 90.9038 28.2143 90.8577 28.1875C90.8272 28.2932 90.7688 28.3672 90.6826 28.4096C90.5963 28.4521 90.5094 28.4556 90.422 28.4203C90.2774 28.5368 90.0689 28.6702 89.7967 28.8205C89.5245 28.9708 89.2852 29.0246 89.0787 28.9819C89.0423 28.9916 89.0289 29.0147 89.0386 29.0511C89.0483 29.0876 89.0464 29.1173 89.033 29.1404C89.0003 29.0905 88.9432 29.096 88.8617 29.1566C88.7937 29.1942 88.7567 29.165 88.7507 29.069C88.7105 29.1382 88.654 29.1825 88.5811 29.2019C88.5082 29.2212 88.4262 29.243 88.3351 29.2672C88.2622 29.2866 88.1826 29.3175 88.0963 29.3599C88.0234 29.3792 87.9693 29.4326 87.934 29.52C87.9195 29.4654 87.8849 29.4453 87.8302 29.4598C87.789 29.4513 87.741 29.4543 87.6863 29.4688C87.6499 29.4785 87.6043 29.4906 87.5496 29.5051C87.5083 29.4965 87.4713 29.4674 87.4386 29.4175C87.3705 29.4551 87.3486 29.5195 87.3728 29.6106C87.3922 29.6835 87.3793 29.7454 87.3343 29.7964C86.9602 29.8567 86.5866 29.9559 86.2136 30.094C85.8406 30.2321 85.493 30.3927 85.171 30.5758C84.8697 30.6168 84.5757 30.6851 84.289 30.7808C84.0022 30.8764 83.7203 30.9903 83.4433 31.1224C83.1614 31.2363 82.8861 31.3387 82.6176 31.4295C82.3491 31.5203 82.0916 31.579 81.845 31.6055C81.7635 31.6661 81.7118 31.7286 81.6899 31.793C81.6631 31.8391 81.609 31.8925 81.5276 31.9531C81.4595 31.9907 81.4183 31.9822 81.4037 31.9275C81.3892 31.8728 81.3479 31.8643 81.2799 31.9019C80.7756 32.1333 80.3029 32.3369 79.8618 32.5126C79.4341 32.6652 79.0064 32.8178 78.5787 32.9704C78.151 33.123 77.7076 33.2896 77.2483 33.4701C76.8023 33.6275 76.3042 33.8086 75.7537 34.0133C71.7633 35.7365 67.7375 37.547 63.6764 39.445C59.6104 41.3248 55.6451 43.3631 51.7805 45.5601C51.6615 45.5527 51.5497 45.5726 51.4452 45.6199C51.3589 45.6623 51.2751 45.7138 51.1936 45.7745C51.1073 45.8169 51.012 45.8618 50.9074 45.909C50.8163 45.9332 50.7021 45.944 50.5649 45.9415C50.5285 45.9511 50.5175 45.9833 50.532 46.038C50.5599 46.0696 50.5581 46.0994 50.5265 46.1273C50.2616 46.1586 49.9859 46.2221 49.6991 46.3177C49.4075 46.3952 49.1202 46.452 48.8372 46.4881C48.5675 46.5012 48.3271 46.4773 48.1158 46.4163C47.8997 46.3372 47.7462 46.1633 47.6554 45.8948C48.0119 45.2539 48.4424 44.6713 48.947 44.1471C49.465 43.5998 50.0018 43.0866 50.5573 42.6074C51.1129 42.1282 51.6684 41.649 52.224 41.1698C52.7795 40.6906 53.2914 40.1937 53.7595 39.6792C53.8726 39.5906 54.0105 39.4857 54.1734 39.3644C54.3497 39.22 54.5077 39.0805 54.6475 38.9458C54.8007 38.7881 54.9175 38.64 54.9978 38.5016C55.0963 38.3584 55.1286 38.223 55.0948 38.0955C55.1506 38.1587 55.2149 38.1806 55.2878 38.1612C55.3559 38.1237 55.4191 38.0679 55.4775 37.9938C55.5358 37.9198 55.5851 37.8482 55.6252 37.779C55.6788 37.6867 55.728 37.6151 55.773 37.5641C55.5205 37.4947 55.2532 37.5169 54.9713 37.6308C54.6846 37.7264 54.3718 37.7607 54.033 37.7337C53.9783 37.7482 53.9193 37.7833 53.8561 37.8391C53.7881 37.8767 53.72 37.9143 53.652 37.9519C53.5791 37.9713 53.5129 37.9791 53.4533 37.9754C53.389 37.9535 53.3356 37.8994 53.2932 37.8131C53.2858 37.9321 53.2389 38.0128 53.1527 38.0552C53.0846 38.0928 52.9935 38.117 52.8793 38.1278C52.7833 38.1338 52.6807 38.1513 52.5713 38.1804C52.462 38.2094 52.369 38.2634 52.2924 38.3422C51.7543 38.4462 51.2512 38.609 50.7834 38.8308C50.3107 39.0344 49.8254 39.1535 49.3273 39.1883C49.2909 39.1979 49.2775 39.221 49.2872 39.2575C49.292 39.2757 49.2811 39.3079 49.2543 39.354C49.2264 39.3224 49.1602 39.3302 49.0557 39.3775C48.9646 39.4017 48.8576 39.4398 48.7349 39.4919C48.6304 39.5392 48.5144 39.5798 48.3868 39.6136C48.2726 39.6245 48.1785 39.6007 48.1045 39.5423C48.0729 39.5702 48.0619 39.6024 48.0716 39.6388C48.0764 39.6571 48.0746 39.6868 48.066 39.7281C44.2071 41.0651 40.4708 42.4964 36.857 44.022C33.2384 45.5293 29.607 47.0985 25.9628 48.7297C24.5983 49.2482 23.2143 49.8401 21.8107 50.5055C20.4023 51.1527 19.0462 51.7763 17.7424 52.3762C17.6732 52.336 17.5978 52.3463 17.5164 52.4069C17.4301 52.4493 17.3463 52.5009 17.2648 52.5615C17.2016 52.6173 17.1336 52.6549 17.0607 52.6743C17.006 52.6888 16.955 52.6438 16.9078 52.5393C16.9174 52.5757 16.8998 52.6195 16.8548 52.6704C16.828 52.7166 16.7897 52.756 16.7399 52.7887C16.6852 52.8033 16.6372 52.8062 16.596 52.7977C16.5729 52.7843 16.5723 52.7454 16.5943 52.6811C16.5091 52.8013 16.3395 52.9341 16.0855 53.0796C15.8498 53.2202 15.5933 53.3566 15.3163 53.4887C15.0344 53.6026 14.7659 53.6934 14.5107 53.7612C14.2738 53.8241 14.1117 53.8379 14.0242 53.8026C13.9283 53.8086 13.89 53.848 13.9093 53.9209C13.9421 53.9708 13.9427 54.0096 13.911 54.0375C13.8006 53.9888 13.7344 53.9967 13.7124 54.061C13.7039 54.1023 13.6613 54.1624 13.5847 54.2413C13.4256 54.303 13.2615 54.3466 13.0927 54.3719C12.919 54.379 12.7641 54.4202 12.628 54.4954C12.5391 54.675 12.3987 54.7708 12.2068 54.7828C12.0331 54.7899 11.8758 54.8219 11.7349 54.8789C10.7274 55.4196 9.72979 55.8504 8.74199 56.1712C7.74936 56.4739 6.75488 56.8063 5.75854 57.1685C5.46582 57.1682 5.12384 57.2395 4.73259 57.3824C4.34135 57.5253 3.96349 57.6452 3.59901 57.742C3.25276 57.834 2.94665 57.8567 2.6807 57.8103C2.40991 57.7457 2.26926 57.5099 2.25874 57.103C2.35613 56.882 2.47828 56.7911 2.62521 56.8301C2.78552 56.846 2.94099 56.8437 3.09162 56.8233C3.62866 56.6416 4.19118 56.4824 4.77918 56.3458C5.36235 56.1909 5.92544 56.0706 6.46845 55.9849C6.51714 55.8745 6.58036 55.8186 6.6581 55.8175C6.75406 55.8115 6.88162 55.7777 7.0408 55.7159C7.10999 55.756 7.11967 55.7925 7.06984 55.8252C7.01517 55.8397 7.00904 55.8901 7.05147 55.9764C7.24966 55.7677 7.48728 55.5973 7.76434 55.4652C8.04141 55.3331 8.33242 55.2168 8.63739 55.1162C8.96058 55.0109 9.29288 54.9031 9.63429 54.793C9.9757 54.6828 10.3074 54.5361 10.6295 54.3531C10.8482 54.295 11.1076 54.2066 11.4077 54.0878C11.7078 53.9691 12.0262 53.8455 12.3628 53.7171C12.7127 53.5657 13.0536 53.4166 13.3853 53.27C13.7304 53.1003 14.0415 52.9494 14.3186 52.8173C15.9601 52.1667 17.6577 51.4329 19.4112 50.6161C21.1647 49.7992 22.889 49.0193 24.5841 48.2765C24.6205 48.2668 24.643 48.2413 24.6516 48.2C24.6601 48.1588 24.662 48.129 24.6571 48.1108C24.6474 48.0743 24.6541 48.0628 24.6772 48.0762C24.7003 48.0896 24.7421 48.137 24.8028 48.2184C25.2379 47.9468 25.6377 47.7626 26.0021 47.6658C26.38 47.5459 26.7956 47.3477 27.2489 47.0713C27.2999 47.1162 27.3436 47.1339 27.38 47.1242C27.4299 47.0915 27.4797 47.0587 27.5295 47.026C27.5745 46.975 27.6243 46.9423 27.679 46.9278C27.7289 46.895 27.7908 46.9078 27.8648 46.9662C28.0009 46.891 28.1413 46.7952 28.286 46.6788C28.4488 46.5575 28.6129 46.5139 28.778 46.5481C28.8996 46.4182 29.0193 46.3182 29.1372 46.2478C29.2733 46.1727 29.4422 46.1473 29.6438 46.1718C29.7301 46.1294 29.8091 46.0596 29.8808 45.9625C29.9526 45.8655 30.0437 45.8413 30.1542 45.8899C30.2319 45.8888 30.2702 45.8494 30.2691 45.7716C30.2814 45.6708 30.3068 45.6933 30.3456 45.8391C30.6762 45.6148 31.0371 45.4311 31.4283 45.2882C31.8378 45.1404 32.2127 44.9726 32.5529 44.7846C32.695 44.8054 32.8068 44.7855 32.8882 44.7249C32.9879 44.6594 33.0784 44.5963 33.1599 44.5357C33.2365 44.4568 33.3203 44.4052 33.4115 44.381C33.4977 44.3386 33.601 44.36 33.7211 44.4451C33.7382 44.3626 33.81 44.2655 33.9364 44.1538C34.0811 44.0374 34.2043 44.0241 34.3063 44.1141C34.355 44.0037 34.4316 43.9248 34.5361 43.8775C34.654 43.8072 34.7754 43.8237 34.9004 43.9271C34.9759 43.7705 35.075 43.6661 35.1977 43.614C35.3204 43.5619 35.4389 43.5304 35.5531 43.5196C35.6672 43.5088 35.7699 43.4913 35.861 43.4671C35.9521 43.4429 36.0129 43.378 36.0434 43.2723C36.194 43.2518 36.3356 43.2338 36.468 43.2181C36.6004 43.2025 36.6727 43.1442 36.6849 43.0434C36.8635 43.0545 37.0141 43.034 37.1368 42.9819C37.2778 42.925 37.4072 42.8614 37.5251 42.791C37.6381 42.7025 37.756 42.6321 37.8788 42.58C37.9966 42.5097 38.1448 42.4801 38.3234 42.4912C38.4097 42.4488 38.4753 42.4021 38.5203 42.3511C38.5604 42.2819 38.6121 42.2194 38.6753 42.1636C38.7616 42.1212 38.812 42.1273 38.8265 42.182C38.8593 42.2318 38.903 42.2495 38.9577 42.235C39.0294 42.1379 39.12 42.0748 39.2293 42.0458C39.3338 41.9985 39.4407 41.9603 39.5501 41.9313C39.6594 41.9023 39.7688 41.8732 39.8781 41.8442C39.9826 41.7969 40.075 41.7041 40.1553 41.5657C40.2524 41.6375 40.3192 41.6685 40.3556 41.6588C40.4103 41.6443 40.4443 41.6255 40.4577 41.6025C40.4845 41.5563 40.5137 41.5193 40.5453 41.4914C40.5769 41.4635 40.6273 41.4696 40.6965 41.5098C41.3856 41.0927 42.1286 40.7685 42.9256 40.5373C43.7227 40.3061 44.4784 40.0664 45.1928 39.8181C45.2196 39.772 45.2488 39.735 45.2804 39.7071C45.3302 39.6743 45.3661 39.6258 45.388 39.5614C45.5033 39.6283 45.6066 39.6497 45.6977 39.6255C45.784 39.5831 45.8678 39.5315 45.9493 39.4709C46.0489 39.4054 46.1328 39.3539 46.2008 39.3163C46.2871 39.2739 46.3764 39.2794 46.4686 39.333C46.5367 39.2954 46.575 39.2559 46.5835 39.2146C46.5872 39.1551 46.614 39.109 46.6638 39.0763C46.7453 39.0156 46.7866 39.0242 46.7877 39.1019C46.7888 39.1796 46.8234 39.1997 46.8915 39.1621C46.9487 39.0104 47.0575 38.9424 47.2178 38.9584C47.3915 38.9513 47.5172 38.9472 47.595 38.946C47.6764 38.8854 47.7554 38.8156 47.832 38.7367C47.9038 38.6396 48.0155 38.6197 48.1673 38.677C48.2536 38.6345 48.2761 38.6091 48.2348 38.6005C48.1887 38.5737 48.1996 38.5416 48.2677 38.504C48.2993 38.4761 48.329 38.4779 48.357 38.5095C48.3849 38.5411 48.417 38.5521 48.4535 38.5424C48.5483 38.4587 48.6619 38.409 48.7943 38.3934C48.945 38.3729 49.0956 38.3524 49.2462 38.3319C49.4151 38.3065 49.5609 38.2678 49.6836 38.2157C49.8245 38.1588 49.9261 38.0635 49.9881 37.93C50.0525 37.9519 50.1101 37.9854 50.1611 38.0304C50.2072 38.0571 50.2801 38.0378 50.3798 37.9723C50.4162 37.9626 50.4205 37.942 50.3926 37.9104C50.3781 37.8557 50.3866 37.8144 50.4182 37.7865C50.6295 37.8474 50.819 37.8264 50.9867 37.7233C51.1678 37.5972 51.3683 37.5439 51.5881 37.5636C51.638 37.5308 51.6532 37.478 51.6338 37.4051C51.703 37.4453 51.7625 37.449 51.8124 37.4162C51.8622 37.3835 51.912 37.3507 51.9619 37.318C52.0299 37.2804 52.0913 37.2544 52.146 37.2398C52.2189 37.2205 52.2923 37.24 52.3664 37.2984C52.5025 37.2232 52.6185 37.1826 52.7145 37.1766C52.8238 37.1476 52.9143 37.0845 52.9861 36.9874C54.3845 36.5965 55.4287 36.3777 56.1186 36.3311C56.8268 36.2796 57.267 36.3577 57.4393 36.5656C57.6249 36.7504 57.5857 37.0437 57.3218 37.4455C57.076 37.8424 56.7009 38.303 56.1963 38.8272C55.7099 39.3465 55.1257 39.9016 54.4437 40.4924C53.78 41.0784 53.1162 41.6644 52.4525 42.2504C51.8069 42.8315 51.2045 43.3915 50.6453 43.9302C50.0812 44.4507 49.6556 44.9051 49.3686 45.2935C50.2165 45.1073 51.0519 44.8367 51.8745 44.4816C52.7105 44.1035 53.5302 43.7005 54.3335 43.2725C55.1367 42.8446 55.9285 42.41 56.7087 41.9686C57.5023 41.5042 58.2874 41.0811 59.0639 40.6993C59.3555 40.6219 59.6489 40.5147 59.9442 40.3777C60.2346 40.2225 60.5251 40.0674 60.8155 39.9122C61.1193 39.7339 61.4189 39.5764 61.7142 39.4394C62.0046 39.2842 62.2956 39.1679 62.5872 39.0905C62.7404 38.9327 62.8966 38.823 63.0558 38.7612C63.2283 38.6763 63.3942 38.603 63.5534 38.5412C63.7126 38.4794 63.8626 38.4201 64.0036 38.3631C64.1397 38.288 64.2637 38.1672 64.3756 38.001C64.4217 38.0277 64.4861 38.0497 64.5687 38.0667C64.6464 38.0656 64.689 38.0055 64.6964 37.8865C64.7656 37.9267 64.8573 37.9413 64.9714 37.9305C65.0808 37.9015 65.1877 37.8633 65.2922 37.816C65.4101 37.7457 65.5189 37.6778 65.6185 37.6123C65.7134 37.5286 65.7924 37.4588 65.8556 37.403ZM65.8556 37.403C65.8277 37.3714 65.8253 37.3623 65.8483 37.3757C65.8896 37.3842 65.892 37.3934 65.8556 37.403ZM14.7564 52.262C14.7843 52.2936 14.7824 52.3234 14.7508 52.3513C14.7374 52.3744 14.7471 52.4108 14.7799 52.4606C14.7021 52.4618 14.6536 52.4259 14.6342 52.353C14.6331 52.2753 14.6738 52.2449 14.7564 52.262Z" fill="#FBF7EF"/>
</svg>
