<svg width="16" height="29" viewBox="0 0 16 29" fill="none" xmlns="http://www.w3.org/2000/svg">
<path d="M15.6249 12.8446L4.66087 28.0448C4.4738 28.294 4.19352 28.4185 3.88217 28.4185C3.75768 28.4185 3.60189 28.3874 3.47718 28.325C3.07219 28.1382 2.85428 27.6708 2.97877 27.2348L5.62645 17.4543H0.923008C0.58037 17.4543 0.268791 17.2675 0.113219 16.9559C-0.0425653 16.6443 -0.0425651 16.3017 0.144288 15.9904L9.86242 0.821372C10.1116 0.447664 10.5788 0.291886 10.9837 0.447664C11.3887 0.603448 11.638 1.03953 11.5756 1.47554L10.0493 11.3806H14.8773C15.2199 11.3806 15.5625 11.5674 15.7183 11.879C15.8739 12.1903 15.8115 12.5642 15.6247 12.8445L15.6249 12.8446Z" fill="#E1B456"/>
</svg>
