<svg width="196" height="31" viewBox="0 0 196 31" fill="none" xmlns="http://www.w3.org/2000/svg">
<path d="M22.8841 2.06798C22.8625 2.20166 22.8965 2.30164 22.9859 2.36794C23.0753 2.43423 23.1759 2.51159 23.2876 2.60001C23.1114 2.93488 23.0353 3.26919 23.0594 3.60296C23.0834 3.91446 23.0408 4.27086 22.9317 4.67213C23.0215 4.8052 23.0668 4.96077 23.0678 5.13884C23.0688 5.31692 23.0586 5.49505 23.0373 5.67325C23.0383 5.85132 23.0282 6.02946 23.0069 6.20765C22.9855 6.36359 22.9974 6.51934 23.0428 6.67491C22.9382 7.89978 22.9562 9.14624 23.0967 10.4143C23.2372 11.6823 23.3443 12.9506 23.418 14.219C23.5142 15.5318 23.5103 16.8451 23.4061 18.159C23.3242 19.4506 23.3091 20.764 23.3609 22.0993C23.3621 22.3219 23.3967 22.5443 23.4647 22.7665C23.5326 22.9665 23.5783 23.1888 23.6019 23.4336C23.6493 23.9453 23.6521 24.4684 23.6105 25.0028C23.5689 25.5373 23.5718 26.0604 23.6191 26.5721C23.6665 27.1061 23.6694 27.6292 23.6277 28.1414C23.5859 28.6313 23.5883 29.0765 23.635 29.4769C23.5248 29.6779 23.3918 29.7788 23.236 29.7796C23.08 29.7582 22.9243 29.7813 22.7689 29.849C21.8553 29.6759 20.9424 29.6252 20.0301 29.697C19.1177 29.7465 18.2281 29.8849 17.3612 30.1123C17.3158 29.9567 17.2481 29.7901 17.1581 29.6125C17.068 29.4127 17.1005 29.2567 17.2557 29.1445C17.2085 28.6551 17.1948 28.1766 17.2145 27.709C17.2342 27.2414 17.2428 26.7851 17.2404 26.3399C17.2601 25.8723 17.2575 25.4049 17.2327 24.9376C17.2302 24.4701 17.1607 23.9808 17.0243 23.4695C17.151 22.2 17.1438 20.8979 17.003 19.563C16.8842 18.2058 16.81 16.8373 16.7802 15.4573C16.7145 15.658 16.6491 15.9032 16.5839 16.193C16.5187 16.4827 16.3864 16.7171 16.187 16.8963C15.9046 18.1667 15.5547 19.315 15.1374 20.3412C14.7199 21.3452 14.2582 22.3939 13.7522 23.4874C13.511 24.1566 13.2251 24.7814 12.8943 25.362C12.5859 25.9424 12.2103 26.4564 11.7675 26.9041C11.5007 26.95 11.278 26.9401 11.0996 26.8743C10.921 26.7863 10.7646 26.6758 10.6303 26.543C10.1576 25.5884 9.74029 24.5779 9.37829 23.5114C9.01618 22.4226 8.6762 21.3115 8.35836 20.178C8.06266 19.0221 7.77809 17.8661 7.50465 16.7101C7.25346 15.5539 6.98014 14.4202 6.68469 13.3088C6.57631 13.8436 6.54609 14.4226 6.59402 15.0456C6.64194 15.6686 6.60059 16.2476 6.46996 16.7825C6.4702 16.827 6.48145 16.8492 6.50371 16.8491C6.52585 16.8267 6.53686 16.8044 6.53674 16.7822C6.43275 18.1183 6.35138 19.5211 6.29264 20.9906C6.25616 22.46 6.2198 23.9516 6.18356 25.4654C6.29887 26.1994 6.32503 26.9116 6.26202 27.602C6.19902 28.2924 6.16928 28.9603 6.17282 29.6058C6.10628 29.6507 6.03975 29.6956 5.97321 29.7405C5.92894 29.7853 5.87353 29.8301 5.807 29.875C5.56215 29.8763 5.37301 29.8885 5.23957 29.9115C5.10614 29.9345 4.9395 29.991 4.73965 30.0811C4.00473 30.0184 3.33683 29.9998 2.73596 30.0253C2.13508 30.0509 1.51219 30.1211 0.867276 30.2359C0.800255 30.1917 0.744303 30.1364 0.699419 30.0699C0.654535 30.0033 0.609712 29.9479 0.56495 29.9036C0.596075 27.4549 0.59375 24.9952 0.557976 22.5245C0.54446 20.0538 0.553691 17.6719 0.585668 15.3789C0.752175 13.2633 0.818393 11.126 0.784323 8.96701C0.772391 6.78561 0.782961 4.6486 0.816034 2.55599C0.860187 2.48897 0.91547 2.42188 0.981882 2.35474C1.07043 2.26522 1.09214 2.16493 1.04702 2.05387C1.67064 2.11724 2.3164 2.15823 2.9843 2.17684C3.65208 2.17318 4.31998 2.19179 4.988 2.23266C5.65589 2.25126 6.30172 2.30338 6.92546 2.38901C7.57147 2.47451 8.17326 2.61591 8.73083 2.8132C8.84286 2.94615 8.89936 3.10166 8.90034 3.27973C8.92345 3.43542 9.00196 3.54629 9.13588 3.61234C9.22772 4.12382 9.37533 4.65725 9.57871 5.21263C9.80434 5.76789 10.0412 6.33423 10.2892 6.91163C10.5593 7.46665 10.8072 8.02179 11.0329 8.57705C11.2808 9.13219 11.4952 9.67639 11.6762 10.2096C11.8328 10.3423 11.9337 10.4753 11.9789 10.6087C12.0464 10.7418 12.1141 10.9084 12.182 11.1084C12.5342 10.3941 12.8529 9.6467 13.138 8.86604C13.4454 8.08527 13.7305 7.30461 13.9933 6.52408C14.2783 5.72116 14.5634 4.9405 14.8487 4.18211C15.156 3.40133 15.4858 2.65382 15.8381 1.93958C16.3501 1.93678 16.9178 1.95593 17.5413 1.99704C18.1869 2.01577 18.8326 2.04563 19.4784 2.08661C20.124 2.10534 20.7474 2.12419 21.3485 2.14316C21.9495 2.13987 22.4614 2.11481 22.8841 2.06798ZM6.65075 13.2088C6.6735 13.2977 6.68469 13.3088 6.68432 13.242C6.68383 13.153 6.67264 13.1419 6.65075 13.2088ZM26.5134 29.6544C26.5733 28.441 26.5993 27.1197 26.5915 25.6906C26.6003 24.2613 26.6342 22.8652 26.6932 21.5022C26.7659 19.6073 26.8387 17.7124 26.9114 15.8175C27.0006 13.9059 26.9489 12.045 26.7562 10.2346C26.806 10.2177 26.8391 10.1926 26.8555 10.1593C26.8885 10.1092 26.9215 10.0675 26.9545 10.0341C27.1709 10.0994 27.3954 10.1314 27.6281 10.1301C27.8607 10.1289 28.0933 10.1193 28.3259 10.1014C28.5584 10.0669 28.7908 10.0324 29.0233 9.99786C29.2723 9.94664 29.5048 9.92044 29.7209 9.91926C29.8206 9.91872 29.9535 9.91799 30.1197 9.91708C30.2858 9.89955 30.4519 9.89033 30.6181 9.88943C30.8009 9.88843 30.9588 9.90418 31.092 9.93669C31.2416 9.95249 31.3499 9.99344 31.4167 10.0595C31.5337 10.1919 31.5761 10.3495 31.5439 10.5325C31.5283 10.7154 31.5707 10.873 31.6711 11.0054C31.4956 12.3358 31.4116 13.6824 31.419 15.045C31.4264 16.3911 31.392 17.7041 31.3159 18.9841C31.3997 19.1 31.4419 19.2327 31.4428 19.3823C31.4601 19.5151 31.4609 19.6564 31.4451 19.806C31.4293 19.9557 31.4135 20.1053 31.3977 20.255C31.3985 20.4046 31.4325 20.5373 31.4996 20.6533C31.4038 21.3684 31.3745 22.0998 31.4119 22.8474C31.4491 23.5784 31.4947 24.326 31.5488 25.0901C31.6027 25.8376 31.6401 26.5936 31.6609 27.3579C31.6816 28.1056 31.6192 28.8538 31.4737 29.6024C31.3916 29.769 31.2758 29.8777 31.1265 29.9283C30.9772 29.979 30.8112 30.0049 30.6284 30.0059C30.4622 30.0068 30.2794 29.9995 30.0799 29.9839C29.897 29.9683 29.7226 29.9859 29.5567 30.0366C29.3402 29.9547 29.0908 29.9229 28.8083 29.941C28.5426 29.9591 28.2684 29.9772 27.986 29.9954C27.7202 30.0134 27.4543 30.0066 27.1882 29.9748C26.9222 29.943 26.6972 29.8362 26.5134 29.6544ZM44.199 9.51601C44.382 9.54824 44.59 9.60527 44.8231 9.68709C45.0561 9.75228 45.2637 9.72622 45.4459 9.6089C45.6457 9.69089 45.8536 9.72299 46.0696 9.70519C46.302 9.67069 46.518 9.65289 46.7174 9.6518C46.9167 9.63409 47.0997 9.65801 47.2662 9.72358C47.4493 9.77243 47.5913 9.91291 47.6923 10.145C47.6936 10.3943 47.7114 10.6102 47.7457 10.7928C47.7799 10.9754 47.7478 11.1834 47.6494 11.4165C47.7356 11.9811 47.772 12.5709 47.7588 13.1858C47.7455 13.8008 47.7239 14.4157 47.6941 15.0308C47.6808 15.6457 47.6758 16.2523 47.6791 16.8506C47.6824 17.4488 47.7353 18.0136 47.8379 18.5448C47.7764 19.4425 47.7564 20.3483 47.778 21.2622C47.7996 22.1761 47.8296 23.0899 47.8678 24.0037C47.906 24.9175 47.9276 25.8314 47.9326 26.7454C47.9543 27.6593 47.9342 28.5568 47.8726 29.4379C47.8394 29.4381 47.8227 29.4299 47.8226 29.4132C47.8225 29.3966 47.8058 29.3884 47.7726 29.3886C47.6908 29.6217 47.5587 29.7803 47.3764 29.8644C47.1941 29.9651 46.9867 30.0161 46.754 30.0174C46.5381 30.0352 46.3137 30.0281 46.0809 29.9961C45.8647 29.9807 45.6819 29.9734 45.5323 29.9742C45.4991 29.9744 45.4743 29.9911 45.4578 30.0244C45.458 30.0577 45.4332 30.0744 45.3833 30.0747C45.3998 30.0414 45.4162 30.0164 45.4328 29.9997C45.4493 29.9829 45.4408 29.9581 45.4074 29.925C45.2423 30.1253 45.0268 30.2096 44.7607 30.1778C44.5113 30.1626 44.2705 30.1888 44.0382 30.2566C43.9882 30.2236 43.9464 30.174 43.9128 30.1077C43.8959 30.0579 43.8294 30.05 43.7132 30.0838C43.6962 30.0175 43.6793 29.9594 43.6624 29.9096C43.6622 29.8764 43.6206 29.8517 43.5374 29.8355C43.5021 29.4701 43.3929 29.2547 43.2098 29.1892C42.974 28.6089 42.6716 28.0122 42.3026 27.3994C41.9503 26.7864 41.6062 26.1651 41.2704 25.5355C41.0179 24.9552 40.7572 24.375 40.4881 23.7948C40.219 23.198 39.9665 22.6095 39.7306 22.0291C39.4624 21.5985 39.1939 21.118 38.9251 20.5877C38.6562 20.0408 38.3793 19.5521 38.0944 19.1216C38.0612 19.1217 38.0363 19.1302 38.0198 19.1469C38.0199 19.1635 38.0033 19.1719 37.9701 19.1721C37.9695 19.0724 37.9609 19.006 37.9441 18.9728C37.9116 19.1226 37.9042 19.2888 37.9219 19.4715C37.9395 19.6542 37.9489 19.8536 37.9501 20.0696C37.9679 20.2855 37.969 20.5016 37.9536 20.7177C37.9548 20.9337 37.9227 21.1416 37.8573 21.3414C37.9408 21.424 37.9832 21.5734 37.9844 21.7894C37.9856 22.0054 37.9698 22.1551 37.937 22.2384C38.0043 22.3875 38.0385 22.5702 38.0397 22.7862C38.0409 23.0022 38.0338 23.2266 38.0185 23.4594C38.003 23.6755 37.9876 23.8916 37.9721 24.1077C37.9733 24.3238 37.9993 24.5064 38.0499 24.6557C38.0536 25.3204 38.0492 26.0433 38.0369 26.8245C38.0245 27.6056 38.0616 28.3117 38.1482 28.9427C38.0821 29.0095 38.0243 29.0763 37.9748 29.1431C37.9253 29.2098 37.8925 29.3014 37.8766 29.4178C37.5945 29.5024 37.2459 29.5708 36.8307 29.6229C36.4155 29.6584 36.083 29.6436 35.8334 29.5785C35.7007 29.6291 35.5929 29.6713 35.51 29.7049C35.427 29.722 35.3192 29.7642 35.1866 29.8314C35.1533 29.8149 35.0952 29.8152 35.0122 29.8323C34.9292 29.8494 34.8296 29.8749 34.7134 29.9087C34.5973 29.9426 34.4729 29.9848 34.3402 30.0354C34.2242 30.0859 34.1247 30.1363 34.0419 30.1866C33.9587 30.1538 33.892 30.1293 33.8421 30.1129C33.8089 30.1131 33.7508 30.13 33.6679 30.1637C33.6677 30.1305 33.6509 30.0973 33.6175 30.0643C33.6008 30.0478 33.6257 30.0393 33.6921 30.0389C33.6089 30.0062 33.5671 29.9648 33.5668 29.915C33.5832 29.8651 33.558 29.8153 33.4912 29.7658C33.5077 29.7491 33.5159 29.7242 33.5157 29.6909C33.5322 29.6576 33.5571 29.6492 33.5904 29.6656C33.5569 29.6159 33.5482 29.5495 33.5644 29.4663C33.5805 29.3831 33.5883 29.2917 33.5878 29.192C33.6039 29.0922 33.6117 29.0007 33.6112 28.9177C33.6107 28.8179 33.577 28.735 33.5101 28.6689C33.5684 27.173 33.6016 25.6439 33.6097 24.0817C33.6178 22.5196 33.6089 20.891 33.583 19.1961C33.6158 19.1294 33.6318 19.0047 33.6308 18.8219C33.6463 18.6224 33.6372 18.4812 33.6035 18.3983C33.6677 17.9825 33.6655 17.5837 33.597 17.2018C33.644 16.6864 33.666 16.1462 33.6629 15.5812C33.6763 14.9995 33.6732 14.4261 33.6535 13.8612C33.6503 13.2796 33.6472 12.7063 33.6441 12.1413C33.641 11.5763 33.6547 11.0444 33.6852 10.5457C33.6681 10.4627 33.5931 10.4216 33.4602 10.4223C33.493 10.339 33.5258 10.2641 33.5587 10.1974C33.5915 10.1307 33.5828 10.0477 33.5324 9.94827C33.5819 9.88152 33.6399 9.84797 33.7063 9.84761C33.7894 9.84715 33.8557 9.80524 33.9051 9.72188C33.9715 9.72152 34.0132 9.73791 34.03 9.77105C34.0634 9.80411 34.0965 9.779 34.1293 9.69573C34.4286 9.72733 34.736 9.73395 35.0517 9.71561C35.3839 9.68055 35.6745 9.65404 35.9237 9.63606C36.0902 9.685 36.323 9.72527 36.6223 9.75687C36.9382 9.77176 37.1539 9.72073 37.2696 9.60377C37.3362 9.62002 37.3861 9.62806 37.4193 9.62787C37.4525 9.61108 37.5023 9.60249 37.5687 9.60213C37.8869 10.0491 38.172 10.5128 38.4239 10.9934C38.6924 11.4739 38.9608 11.9377 39.2292 12.3849C39.2297 12.4846 39.2468 12.5759 39.2805 12.6588C39.3142 12.7418 39.3562 12.8246 39.4065 12.9074C39.4568 12.9902 39.4905 13.0732 39.5076 13.1562C39.5412 13.2224 39.5499 13.2889 39.5336 13.3554C39.9864 14.1008 40.3811 14.8714 40.7179 15.6672C41.0546 16.463 41.4243 17.2089 41.8269 17.9046C42.2119 18.4177 42.5471 18.931 42.8324 19.4446C43.1177 19.9416 43.4279 20.4634 43.7633 21.01C43.7033 19.149 43.7016 17.321 43.7582 15.5259C43.8148 13.7142 43.8135 11.9527 43.7543 10.2413C43.8037 10.1746 43.8284 10.1329 43.8284 10.1163C43.8449 10.0996 43.8363 10.0415 43.8025 9.94194C43.8852 9.87502 43.9513 9.79987 44.0007 9.71651C44.0501 9.63315 44.1162 9.56631 44.199 9.51601ZM58.0814 9.11601C58.115 9.1823 58.1816 9.20686 58.2812 9.1897C58.3808 9.15592 58.4556 9.16382 58.5057 9.2134C58.6734 9.49499 58.7583 9.8269 58.7604 10.2091C58.7791 10.5912 58.773 10.9901 58.742 11.4057C58.711 11.8047 58.68 12.2121 58.649 12.6277C58.6346 13.0266 58.6865 13.4002 58.8047 13.7486C58.7553 13.8319 58.706 13.9236 58.6567 14.0236C58.6073 14.1069 58.5746 14.2151 58.5587 14.3482C58.1601 14.3836 57.7364 14.3942 57.2876 14.3801C56.8554 14.3658 56.415 14.3599 55.9663 14.3624C55.5176 14.3482 55.0689 14.359 54.6204 14.3946C54.1885 14.4302 53.7735 14.5073 53.3753 14.6258C53.3441 14.9916 53.3046 15.374 53.257 15.7731C53.2093 16.1722 53.2279 16.5377 53.3128 16.8696C53.529 16.9017 53.7702 16.9419 54.0364 16.9903C54.3025 17.0387 54.5351 17.0208 54.734 16.9366C54.8508 17.0191 55.0172 17.0597 55.2333 17.0585C55.4658 17.0406 55.6818 17.0312 55.8812 17.0301C56.0972 17.0123 56.2883 17.0195 56.4547 17.0518C56.621 17.0842 56.7213 17.1916 56.7556 17.3743C56.7903 17.6566 56.8004 17.9723 56.7857 18.3213C56.7875 18.6537 56.7811 19.0027 56.7665 19.3684C56.7685 19.734 56.7787 20.0912 56.7973 20.4401C56.8324 20.7889 56.8923 21.1043 56.9769 21.3864C56.9938 21.4361 56.9774 21.4695 56.9276 21.4864C56.8944 21.4865 56.8862 21.5115 56.9031 21.5613C56.8869 21.6445 56.9038 21.6859 56.9536 21.6856C57.02 21.6687 57.0534 21.6934 57.0538 21.7599C57.021 21.8431 56.9797 21.9015 56.9301 21.935C56.8804 21.9685 56.8725 22.0434 56.9064 22.1595C56.8067 22.1601 56.7404 22.202 56.7076 22.2852C56.641 22.2524 56.5411 22.228 56.4081 22.2121C56.2917 22.1961 56.2171 22.2298 56.1843 22.313C56.151 22.2966 56.1259 22.2718 56.1091 22.2387C56.0923 22.2055 56.0672 22.1724 56.0338 22.1394C55.6183 22.125 55.2277 22.1105 54.862 22.0959C54.4962 22.0647 54.1141 22.0917 53.7158 22.177C53.7337 22.4261 53.7267 22.6671 53.6948 22.9C53.6627 23.1162 53.639 23.3324 53.6235 23.5485C53.6081 23.7646 53.6092 23.9723 53.627 24.1717C53.6613 24.3709 53.7288 24.5699 53.8296 24.7688C54.0786 24.7176 54.3776 24.691 54.7266 24.6891C55.0756 24.6872 55.4412 24.6852 55.8234 24.6831C56.2222 24.6809 56.6127 24.6705 56.9948 24.6518C57.3935 24.633 57.7506 24.5895 58.066 24.5213C58.3316 24.47 58.5476 24.4688 58.7141 24.5177C58.8804 24.5501 59.0138 24.6324 59.1142 24.7648C59.2146 24.8806 59.2819 25.0381 59.3163 25.2373C59.3671 25.4199 59.4015 25.6357 59.4195 25.8849C59.3701 25.9683 59.3457 26.0598 59.3462 26.1595C59.3634 26.2591 59.3806 26.3587 59.3977 26.4583C59.4148 26.5413 59.4235 26.6244 59.424 26.7075C59.4245 26.7906 59.3999 26.8655 59.3505 26.9322C59.4852 27.2639 59.5535 27.5875 59.5552 27.9033C59.5734 28.2023 59.6584 28.5425 59.81 28.9239C59.7769 28.9407 59.7522 28.9741 59.7358 29.024C59.7361 29.0739 59.7364 29.1237 59.7366 29.1736C59.6702 29.1739 59.637 29.1907 59.6372 29.224C59.6046 29.3405 59.6297 29.3736 59.7125 29.3233C59.5802 29.4403 59.4227 29.5077 59.24 29.5253C59.0573 29.5429 58.8661 29.5356 58.6665 29.5035C58.467 29.4713 58.259 29.4393 58.0428 29.4072C57.8265 29.3585 57.6186 29.3264 57.4191 29.3109C56.871 29.3638 56.3974 29.3747 55.9984 29.3436C55.5993 29.2959 55.1754 29.2733 54.7268 29.2758C54.2783 29.3115 53.8381 29.3554 53.4063 29.4076C52.9911 29.4431 52.5758 29.4786 52.1605 29.5142C51.7453 29.5497 51.3299 29.5686 50.9145 29.5708C50.499 29.5731 50.0667 29.5339 49.6176 29.4533C49.6004 29.3537 49.5585 29.2874 49.4919 29.2546C49.4418 29.2216 49.4 29.1637 49.3663 29.0807C49.3092 27.7516 49.3016 26.3723 49.3436 24.9429C49.4022 23.4968 49.4028 22.0842 49.3454 20.7052C49.3081 19.9576 49.3123 19.2098 49.358 18.4617C49.4037 17.697 49.4494 16.9406 49.4952 16.1925C49.5409 15.4278 49.57 14.6715 49.5825 13.9237C49.6116 13.159 49.5908 12.403 49.5202 11.6556C49.5857 11.4724 49.6012 11.2646 49.5667 11.0321C49.5321 10.7831 49.5059 10.5506 49.4881 10.3346C49.4703 10.1187 49.4859 9.92747 49.5348 9.76102C49.5837 9.59457 49.7244 9.48578 49.9568 9.43466C50.1893 9.40015 50.4718 9.3986 50.8043 9.43002C51.1367 9.44482 51.4195 9.49313 51.6526 9.57494C52.2006 9.50547 52.7489 9.47755 53.2974 9.49117C53.8458 9.48817 54.3859 9.49352 54.9178 9.50723C55.4495 9.50432 55.9812 9.48479 56.5128 9.44865C57.0443 9.39589 57.5672 9.28501 58.0814 9.11601ZM54.4688 27.6818C54.5024 27.7481 54.519 27.748 54.5186 27.6816C54.5183 27.6151 54.5016 27.6152 54.4688 27.6818ZM72.6717 15.6918C72.6385 15.692 72.6302 15.7004 72.6469 15.7169C72.6635 15.7168 72.6718 15.7085 72.6717 15.6918L72.7465 15.6914C72.6814 15.9411 72.633 16.2072 72.6013 16.4899C72.5695 16.756 72.5295 17.0304 72.4812 17.3132C72.4495 17.5959 72.3929 17.8787 72.3113 18.1616C72.2463 18.4279 72.1397 18.686 71.9915 18.9361C71.9758 19.1024 71.9184 19.2523 71.8195 19.3858C71.737 19.5025 71.6379 19.6194 71.5222 19.7364C71.4066 19.8533 71.2825 19.962 71.1501 20.0625C71.0343 20.1628 70.9269 20.2714 70.8278 20.3883C71.3133 21.0338 71.7079 21.7794 72.0117 22.6253C72.3154 23.4712 72.478 24.3344 72.4995 25.2151C72.55 25.3311 72.6085 25.4056 72.6752 25.4385C72.6757 25.5382 72.6679 25.6213 72.6516 25.6879C72.6354 25.7544 72.669 25.8207 72.7524 25.8867C72.7883 26.3685 72.8408 26.8584 72.91 27.3566C72.9791 27.8382 73.0397 28.2865 73.0919 28.7017C72.9762 28.8187 72.9188 28.9602 72.9197 29.1264C72.9371 29.2759 72.888 29.4091 72.7723 29.526C72.4232 29.4947 72.0989 29.4633 71.7996 29.4317C71.5169 29.4 71.226 29.3766 70.9268 29.3616C70.6275 29.33 70.3033 29.3152 69.9544 29.3171C69.6219 29.3023 69.2397 29.3044 68.8077 29.3234C68.7575 29.2572 68.7239 29.1909 68.7069 29.1245C68.6899 29.0415 68.6397 28.9836 68.5564 28.9508C68.6211 28.6181 68.6607 28.2606 68.6752 27.8783C68.6896 27.4794 68.6875 27.0806 68.6687 26.6818C68.6499 26.2831 68.6145 25.9011 68.5627 25.5357C68.5108 25.1704 68.4591 24.8383 68.4077 24.5395C68.5045 24.0072 68.4436 23.5173 68.2251 23.0698C68.0232 22.6056 67.7303 22.2333 67.3466 21.9528C66.9628 21.6724 66.5215 21.5087 66.0227 21.4615C65.5404 21.3977 65.059 21.4917 64.5785 21.7436C64.5851 22.9567 64.6251 24.1946 64.6985 25.4572C64.7718 26.7031 64.828 27.8744 64.8673 28.971C64.8676 29.0375 64.8429 29.0792 64.7932 29.0961C64.7599 29.0963 64.7351 29.113 64.7187 29.1463C64.7864 29.3786 64.7706 29.5283 64.6713 29.5953C64.5718 29.6457 64.4307 29.6714 64.2479 29.6724C64.0816 29.6567 63.9071 29.641 63.7242 29.6254C63.5413 29.6098 63.392 29.6521 63.2762 29.7525C63.1596 29.7033 63.01 29.6958 62.8274 29.73C62.6447 29.7476 62.4536 29.7653 62.2543 29.783C62.0551 29.8173 61.8558 29.835 61.6564 29.8361C61.4736 29.8371 61.3071 29.7882 61.157 29.6893C61.1236 29.6562 61.0901 29.6149 61.0566 29.5652C61.0397 29.5154 61.0063 29.4741 60.9562 29.4411C60.9482 27.9787 60.9317 26.4832 60.9068 24.9544C60.8818 23.4257 60.8568 21.8969 60.8318 20.3682C60.8234 18.8227 60.8233 17.2938 60.8316 15.7815C60.84 14.2692 60.8652 12.7984 60.9072 11.369C60.8736 11.3027 60.8402 11.2613 60.8068 11.2449C60.79 11.2117 60.8146 11.1534 60.8807 11.07L60.756 11.0707C60.7558 11.0374 60.7641 11.0208 60.7807 11.0207C60.8138 11.0039 60.8387 10.9871 60.8552 10.9704C60.7542 10.7383 60.6947 10.4893 60.6766 10.2236C60.6752 9.95767 60.7237 9.71644 60.8222 9.49986C60.9207 9.28328 61.0695 9.1329 61.2684 9.04872C61.4673 8.94793 61.7249 8.95482 62.0413 9.06942C62.6557 8.98297 63.2619 8.90487 63.8597 8.83513C64.4575 8.74877 65.0555 8.69564 65.6536 8.67575C66.2518 8.65586 66.8502 8.68582 67.4489 8.76564C68.0641 8.82875 68.6963 8.95824 69.3455 9.1541C70.0278 9.31656 70.6027 9.61254 71.0704 10.0421C71.538 10.4716 71.9065 10.9847 72.1756 11.5815C72.4614 12.1782 72.6395 12.8337 72.7098 13.5479C72.7968 14.262 72.7841 14.9766 72.6717 15.6918ZM66.72 16.7714C66.9194 16.7703 67.1354 16.7608 67.3679 16.7429C67.6171 16.7249 67.8496 16.6904 68.0653 16.6394C68.281 16.5717 68.4632 16.471 68.6121 16.3372C68.7609 16.2035 68.8429 16.0119 68.8582 15.7626C69.0226 15.4293 69.0872 15.0883 69.052 14.7395C69.0335 14.3906 68.9403 14.067 68.7725 13.7688C68.6212 13.4539 68.412 13.1892 68.145 12.9746C67.8778 12.7434 67.5862 12.5954 67.2701 12.5307C67.1704 12.5312 67.1039 12.5316 67.0707 12.5318C67.0374 12.5319 66.9877 12.5488 66.9214 12.5824C66.6382 12.4677 66.3141 12.4445 65.9488 12.513C65.6002 12.5813 65.2431 12.6165 64.8775 12.6185C64.8279 12.6687 64.8033 12.7187 64.8036 12.7685C64.8205 12.8183 64.7623 12.8269 64.6292 12.7944C64.6145 13.1435 64.5831 13.4843 64.5351 13.8169C64.5037 14.1495 64.4806 14.4903 64.4659 14.8393C64.4677 15.1717 64.4779 15.504 64.4963 15.8363C64.5313 16.1684 64.6163 16.5087 64.7511 16.8569C64.9337 16.806 65.1081 16.7885 65.2743 16.8042C65.4571 16.8032 65.6234 16.8189 65.7731 16.8513C65.9394 16.867 66.0973 16.8745 66.2469 16.8736C66.4131 16.8727 66.5708 16.8386 66.72 16.7714ZM83.0656 15.3608C82.9325 15.3283 82.8327 15.3122 82.7662 15.3126C82.6998 15.3129 82.5834 15.3053 82.4171 15.2895C82.2499 15.091 82.0243 14.8762 81.7406 14.6451C81.4567 14.3974 81.1482 14.208 80.8151 14.0769C80.4986 13.929 80.1825 13.8726 79.867 13.9076C79.5514 13.9425 79.2782 14.1268 79.0474 14.4604C79.1166 14.9586 79.2766 15.3566 79.5275 15.6543C79.7784 15.9521 80.0789 16.1914 80.4289 16.3723C80.93 16.8515 81.4642 17.289 82.0314 17.6847C82.6152 18.0803 83.1825 18.4927 83.7332 18.9218C84.318 19.5002 84.7705 20.1874 85.0906 20.9833C85.4106 21.7626 85.6564 22.6421 85.8279 23.6216C85.7951 23.6882 85.7704 23.7465 85.7541 23.7965C85.7591 24.7105 85.564 25.5092 85.1689 26.1927C84.7905 26.8762 84.2868 27.4522 83.6578 27.921C83.0455 28.3897 82.3413 28.7674 81.5452 29.0543C80.7656 29.3244 79.9856 29.5198 79.2052 29.6404C78.6733 29.6101 78.2073 29.488 77.8073 29.2742C77.4073 29.0603 76.9907 28.8632 76.5577 28.6827C76.2737 28.4184 75.9897 28.1457 75.7056 27.8648C75.4216 27.5838 75.1541 27.2945 74.9032 26.9967C74.6523 26.699 74.4262 26.3844 74.225 26.0532C74.0238 25.7219 73.8806 25.3654 73.7954 24.9836C74.2592 24.7152 74.7063 24.4219 75.1367 24.1038C75.567 23.7857 75.9388 23.3932 76.252 22.9262C76.3351 22.9257 76.4098 22.917 76.4762 22.9C76.5591 22.8663 76.642 22.8326 76.7249 22.7989C76.9587 23.0137 77.1677 23.2452 77.3519 23.4935C77.5527 23.7416 77.7617 23.9815 77.979 24.2129C78.1956 24.3115 78.4287 24.4016 78.6784 24.4833C78.9282 24.565 79.1694 24.6136 79.4021 24.6289C79.6515 24.6442 79.884 24.618 80.0997 24.5503C80.332 24.4826 80.539 24.3485 80.7207 24.1481C80.8353 23.8317 80.8587 23.5657 80.7911 23.35C80.7233 23.1177 80.6142 22.9189 80.4638 22.7535C80.3132 22.5716 80.1461 22.4063 79.9625 22.2577C79.7789 22.1092 79.6118 21.9522 79.4614 21.7869C79.1614 21.6389 78.8944 21.4327 78.6603 21.1681C78.4261 20.8868 78.1757 20.6805 77.9091 20.549C77.4745 20.086 77.0397 19.5816 76.6046 19.0355C76.1862 18.4894 75.809 17.9015 75.4732 17.2719C75.154 16.6421 74.9094 15.9704 74.7393 15.2568C74.5857 14.5264 74.5648 13.7454 74.6766 12.9139C74.872 12.1816 75.2258 11.5399 75.738 10.9887C76.2501 10.4375 76.8543 10.0021 77.5505 9.68255C78.2634 9.36291 79.0268 9.17593 79.8408 9.12162C80.6713 9.05061 81.5027 9.13746 82.335 9.38218C82.835 9.64534 83.2853 9.95031 83.6861 10.2971C84.0867 10.6273 84.4792 10.9824 84.8635 11.3625C84.9303 11.4287 85.0222 11.5196 85.1392 11.6352C85.2727 11.7342 85.3979 11.8499 85.515 11.9822C85.6486 12.0978 85.7655 12.2135 85.8659 12.3292C85.9662 12.445 86.0166 12.5361 86.0169 12.6026C86.0341 12.7022 86.0013 12.7772 85.9184 12.8275C85.8355 12.8612 85.7612 12.9364 85.6953 13.0531C85.5306 13.3199 85.2913 13.6203 84.9774 13.9544C84.6634 14.2885 84.3409 14.5727 84.0099 14.8072C83.8608 14.9077 83.6951 14.9834 83.5125 15.0343C83.3299 15.0685 83.181 15.1773 83.0656 15.3608ZM104.048 28.657C103.732 28.7418 103.376 28.8601 102.978 29.0118C102.58 29.147 102.273 29.2733 102.057 29.3908C101.56 29.5431 101.045 29.6124 100.513 29.5986C99.9813 29.5849 99.4574 29.513 98.9415 29.3829C98.4421 29.2361 97.951 29.0643 97.468 28.8675C97.0015 28.654 96.5765 28.4403 96.1931 28.2263C95.7426 27.8798 95.3746 27.4498 95.0893 26.9361C94.8205 26.4058 94.6013 25.8337 94.4318 25.2197C94.2621 24.5892 94.134 23.9418 94.0472 23.2775C93.9604 22.5966 93.8821 21.9406 93.8121 21.3095C93.8241 20.4619 93.8526 19.5976 93.8977 18.7166C93.9592 17.8189 94.0542 16.9459 94.1825 16.0977C94.3108 15.2494 94.4892 14.4424 94.7176 13.6768C94.9461 12.9111 95.2498 12.2281 95.6287 11.6277C95.8923 11.2108 96.2144 10.8518 96.595 10.5506C96.9755 10.2327 97.3726 9.9148 97.7863 9.59679C98.1016 9.51197 98.4002 9.41894 98.6822 9.31769C98.964 9.19982 99.2377 9.10692 99.5033 9.03899C99.7853 8.95436 100.068 8.90296 100.35 8.8848C100.632 8.85002 100.923 8.88166 101.223 8.97973C102.42 9.10613 103.411 9.49124 104.196 10.1351C104.997 10.7622 105.632 11.5315 106.103 12.4429C106.573 13.3543 106.911 14.3413 107.116 15.4037C107.321 16.4662 107.427 17.4793 107.432 18.4431C107.465 18.526 107.491 18.5924 107.508 18.6421C107.525 18.6919 107.517 18.7584 107.484 18.8417C107.537 19.5228 107.541 20.2456 107.496 21.0103C107.467 21.7583 107.379 22.4983 107.234 23.2303C107.105 23.9622 106.917 24.6695 106.672 25.3522C106.443 26.0182 106.155 26.6097 105.809 27.1268C105.528 27.361 105.23 27.6202 104.916 27.9044C104.618 28.1719 104.329 28.4228 104.048 28.657ZM99.7298 13.9983C99.614 14.0987 99.5151 14.2405 99.433 14.4237C99.3674 14.5903 99.2683 14.6905 99.1355 14.7245C98.8566 15.3741 98.6361 16.0816 98.4741 16.8469C98.3121 17.6123 98.2167 18.3938 98.1878 19.1917C98.1754 19.9728 98.2378 20.7452 98.375 21.5089C98.5286 22.2559 98.7816 22.9442 99.1341 23.5737C99.1676 23.6234 99.1842 23.6316 99.1841 23.5984C99.2004 23.5484 99.217 23.54 99.2338 23.5732C99.736 24.2518 100.369 24.5059 101.132 24.3356C101.696 24.1164 102.151 23.7234 102.497 23.1565C102.859 22.5729 103.113 21.9151 103.259 21.1831C103.421 20.4344 103.475 19.653 103.421 18.839C103.366 18.025 103.221 17.2697 102.984 16.573C102.748 15.8763 102.421 15.2881 102.003 14.8085C101.584 14.3122 101.084 14.0158 100.502 13.9193C100.419 13.9364 100.311 13.9619 100.178 13.9959C100.046 14.0298 99.9625 14.0054 99.9288 13.9225C99.8958 13.9559 99.871 13.9892 99.8546 14.0226C99.8381 14.0559 99.7966 14.0478 99.7298 13.9983ZM98.595 16.1732C98.6285 16.2229 98.6452 16.2228 98.6449 16.173C98.6445 16.1065 98.6279 16.1066 98.595 16.1732ZM103.734 16.9428C103.751 17.0092 103.76 17.0091 103.759 16.9427C103.759 16.8762 103.751 16.8762 103.734 16.9428ZM118.071 8.88757C118.155 8.9702 118.271 9.01111 118.421 9.01029C118.621 9.192 118.731 9.40744 118.749 9.65662C118.766 9.88918 118.751 10.1468 118.703 10.4296C118.638 10.6294 118.605 10.829 118.606 11.0284C118.608 11.2278 118.617 11.4272 118.635 11.6265C118.669 11.8257 118.687 12.0251 118.688 12.2245C118.705 12.4238 118.69 12.615 118.641 12.7981C118.708 12.8309 118.741 12.8806 118.742 12.9471C118.742 13.0136 118.742 13.0883 118.743 13.1714C118.743 13.2379 118.744 13.3044 118.744 13.3708C118.761 13.4372 118.811 13.4785 118.894 13.4947C118.811 13.5616 118.771 13.6781 118.771 13.8443C118.789 14.0104 118.765 14.1352 118.699 14.2186C118.234 14.2544 117.81 14.2567 117.427 14.2256C117.045 14.1944 116.663 14.1633 116.28 14.1321C115.914 14.0843 115.532 14.0531 115.133 14.0387C114.751 14.0242 114.311 14.0515 113.812 14.1207C113.779 14.1707 113.755 14.2374 113.739 14.3205C113.739 14.387 113.714 14.437 113.665 14.4705C113.665 14.4871 113.698 14.4952 113.765 14.4949C113.732 14.5782 113.716 14.6696 113.716 14.7694C113.717 14.8524 113.717 14.9438 113.718 15.0435C113.735 15.1432 113.735 15.2429 113.719 15.3427C113.72 15.4258 113.687 15.4924 113.621 15.5426C113.621 15.5759 113.629 15.5924 113.646 15.5923C113.679 15.5922 113.704 15.6086 113.721 15.6418C113.688 15.7583 113.672 15.8747 113.673 15.991C113.69 16.0907 113.657 16.1822 113.575 16.2658C113.575 16.2824 113.617 16.2905 113.7 16.29C113.684 16.4563 113.701 16.6307 113.752 16.8132C113.803 16.9957 113.862 17.1533 113.929 17.2859C114.395 17.2501 114.901 17.2224 115.45 17.2028C116.014 17.1831 116.563 17.2548 117.096 17.4181C117.113 17.4679 117.105 17.5011 117.072 17.5179C117.055 17.5347 117.055 17.5596 117.072 17.5927C117.106 17.659 117.147 17.692 117.197 17.6918C117.263 17.6748 117.322 17.6994 117.372 17.7656C117.226 18.481 117.172 19.2125 117.21 19.9601C117.263 20.691 117.309 21.3721 117.345 22.0034C117.279 22.037 117.18 22.0874 117.047 22.1546C116.931 22.2051 116.831 22.1807 116.747 22.0815C116.549 22.1822 116.349 22.2332 116.15 22.2343C115.951 22.2354 115.743 22.2282 115.527 22.2128C115.311 22.1807 115.086 22.1487 114.853 22.1167C114.637 22.0847 114.404 22.086 114.155 22.1206C114.14 22.4198 114.117 22.8021 114.087 23.2676C114.073 23.733 114.091 24.1234 114.143 24.4389C114.06 24.5224 114.036 24.6472 114.07 24.8132C114.104 24.9792 114.097 25.1205 114.048 25.2371C114.064 25.2702 114.081 25.2868 114.098 25.2867C114.114 25.27 114.139 25.2781 114.173 25.3112C114.19 25.3443 114.181 25.3693 114.148 25.3861C114.115 25.4029 114.09 25.428 114.074 25.4613C114.091 25.4778 114.124 25.4859 114.174 25.4857C114.142 25.7684 114.136 26.1091 114.154 26.5078C114.173 26.8899 114.225 27.2469 114.31 27.5788C114.278 27.7618 114.254 27.978 114.239 28.2273C114.223 28.4767 114.175 28.7096 114.093 28.9261C114.027 29.1425 113.904 29.3177 113.722 29.4516C113.556 29.5855 113.299 29.6284 112.95 29.5805C112.95 29.5639 112.933 29.5224 112.899 29.4561C112.849 29.473 112.808 29.4898 112.775 29.5066C112.758 29.5234 112.725 29.5402 112.675 29.557L112.675 29.4324C112.542 29.483 112.442 29.4918 112.376 29.459C112.309 29.4261 112.218 29.4266 112.101 29.4605C111.569 29.3304 111.07 29.3082 110.605 29.3939C110.157 29.4794 109.651 29.5237 109.086 29.5268C109.052 29.4273 108.993 29.3445 108.91 29.2785C108.843 29.2124 108.793 29.1213 108.759 29.0051C108.919 27.9407 109.029 26.8599 109.09 25.7628C109.15 24.649 109.194 23.527 109.221 22.3968C109.248 21.2666 109.267 20.1365 109.277 19.0064C109.304 17.8596 109.356 16.7292 109.433 15.6154C109.43 15.0338 109.402 14.4689 109.349 13.9208C109.296 13.356 109.243 12.7996 109.191 12.2515C109.154 11.7033 109.126 11.1634 109.107 10.6317C109.087 10.1 109.118 9.56804 109.198 9.03582C109.912 8.91558 110.651 8.86169 111.416 8.87412C112.18 8.88656 112.945 8.91561 113.709 8.96129C114.491 8.99025 115.247 9.01935 115.978 9.04858C116.726 9.06111 117.424 9.00744 118.071 8.88757ZM152.624 1.35829C152.603 1.49197 152.637 1.59195 152.726 1.65824C152.816 1.72453 152.916 1.80189 153.028 1.89032C152.852 2.22518 152.776 2.5595 152.8 2.89326C152.824 3.20477 152.781 3.56116 152.672 3.96244C152.762 4.0955 152.807 4.25108 152.808 4.42915C152.809 4.60722 152.799 4.78536 152.778 4.96355C152.779 5.14163 152.769 5.31976 152.747 5.49796C152.726 5.65389 152.738 5.80965 152.783 5.96522C152.679 7.19009 152.697 8.43654 152.837 9.70459C152.978 10.9726 153.085 12.2409 153.158 13.5093C153.255 14.8221 153.251 16.1354 153.147 17.4493C153.065 18.7409 153.049 20.0543 153.101 21.3896C153.103 21.6122 153.137 21.8346 153.205 22.0568C153.273 22.2568 153.319 22.4791 153.342 22.7239C153.39 23.2356 153.393 23.7587 153.351 24.2931C153.309 24.8276 153.312 25.3507 153.359 25.8624C153.407 26.3964 153.41 26.9195 153.368 27.4317C153.326 27.9216 153.329 28.3668 153.375 28.7672C153.265 28.9682 153.132 29.0691 152.976 29.0699C152.82 29.0485 152.665 29.0716 152.509 29.1393C151.596 28.9662 150.683 28.9155 149.77 28.9873C148.858 29.0368 147.968 29.1752 147.102 29.4026C147.056 29.247 146.989 29.0804 146.898 28.9028C146.808 28.703 146.841 28.547 146.996 28.4349C146.949 27.9454 146.935 27.4669 146.955 26.9993C146.975 26.5317 146.983 26.0754 146.981 25.6302C147 25.1626 146.998 24.6952 146.973 24.2279C146.971 23.7604 146.901 23.2711 146.765 22.7598C146.891 21.4903 146.884 20.1882 146.743 18.8533C146.625 17.4961 146.55 16.1276 146.521 14.7476C146.455 14.9483 146.389 15.1935 146.324 15.4833C146.259 15.773 146.127 16.0075 145.927 16.1866C145.645 17.457 145.295 18.6053 144.878 19.6315C144.46 20.6355 143.999 21.6842 143.493 22.7777C143.251 23.4469 142.965 24.0717 142.635 24.6523C142.326 25.2327 141.951 25.7467 141.508 26.1944C141.241 26.2403 141.018 26.2304 140.84 26.1646C140.661 26.0766 140.505 25.9661 140.371 25.8333C139.898 24.8787 139.481 23.8682 139.119 22.8017C138.757 21.7129 138.417 20.6018 138.099 19.4683C137.803 18.3124 137.518 17.1564 137.245 16.0004C136.994 14.8442 136.721 13.7105 136.425 12.5991C136.317 13.1339 136.286 13.7129 136.334 14.3359C136.382 14.9589 136.341 15.5379 136.21 16.0728C136.211 16.1173 136.222 16.1395 136.244 16.1394C136.266 16.117 136.277 16.0947 136.277 16.0725C136.173 17.4086 136.092 18.8114 136.033 20.2809C135.997 21.7503 135.96 23.2419 135.924 24.7558C136.039 25.4897 136.065 26.2019 136.002 26.8923C135.939 27.5827 135.91 28.2506 135.913 28.8962C135.847 28.941 135.78 28.9859 135.714 29.0308C135.669 29.0756 135.614 29.1204 135.547 29.1653C135.303 29.1666 135.113 29.1788 134.98 29.2018C134.847 29.2248 134.68 29.2813 134.48 29.3715C133.745 29.3087 133.077 29.2901 132.476 29.3156C131.875 29.3412 131.253 29.4114 130.608 29.5262C130.541 29.482 130.485 29.4267 130.44 29.3602C130.395 29.2936 130.35 29.2382 130.305 29.1939C130.336 26.7452 130.334 24.2855 130.298 21.8148C130.285 19.3441 130.294 16.9622 130.326 14.6693C130.493 12.5537 130.559 10.4163 130.525 8.25732C130.513 6.07591 130.523 3.9389 130.556 1.84629C130.601 1.77927 130.656 1.71219 130.722 1.64505C130.811 1.55552 130.833 1.45523 130.787 1.34418C131.411 1.40755 132.057 1.44854 132.725 1.46714C133.392 1.46349 134.06 1.4821 134.728 1.52296C135.396 1.54157 136.042 1.59369 136.666 1.67931C137.312 1.76482 137.914 1.90622 138.471 2.10351C138.583 2.23645 138.64 2.39196 138.641 2.57004C138.664 2.72573 138.742 2.8366 138.876 2.90265C138.968 3.41412 139.116 3.94755 139.319 4.50294C139.545 5.0582 139.782 5.62453 140.03 6.20193C140.3 6.75695 140.548 7.31209 140.773 7.86736C141.021 8.4225 141.236 8.96669 141.417 9.49994C141.573 9.63264 141.674 9.76565 141.719 9.89896C141.787 10.0322 141.854 10.1987 141.922 10.3987C142.275 9.68445 142.593 8.93701 142.878 8.15635C143.186 7.37557 143.471 6.59492 143.734 5.81438C144.019 5.01147 144.304 4.23081 144.589 3.47241C144.896 2.69164 145.226 1.94413 145.578 1.22988C146.09 1.22708 146.658 1.24624 147.282 1.28734C147.927 1.30607 148.573 1.33593 149.219 1.37692C149.864 1.39565 150.488 1.4145 151.089 1.43347C151.69 1.43018 152.202 1.40512 152.624 1.35829ZM136.391 12.4991C136.414 12.588 136.425 12.5991 136.425 12.5323C136.424 12.4433 136.413 12.4322 136.391 12.4991ZM163.852 23.4939C163.702 23.528 163.503 23.5291 163.254 23.4972C163.021 23.4652 162.771 23.4334 162.505 23.4016C162.256 23.3697 162.015 23.3461 161.782 23.3308C161.549 23.3154 161.358 23.3414 161.209 23.4087C161.11 23.4591 161.044 23.5259 161.011 23.6092C160.978 23.6758 160.953 23.7591 160.937 23.8589C160.938 23.9586 160.93 24.0666 160.914 24.183C160.898 24.2828 160.857 24.3745 160.791 24.4579C160.792 24.6407 160.793 24.8069 160.794 24.9564C160.811 25.0893 160.779 25.2307 160.696 25.3807C160.747 25.5633 160.723 25.7711 160.625 26.0043C160.543 26.2374 160.52 26.4702 160.554 26.7027C160.456 26.9359 160.382 27.2022 160.334 27.5016C160.286 27.7843 160.287 28.0502 160.338 28.2992C160.307 28.6151 160.2 28.8318 160.018 28.9491C159.852 29.0663 159.645 29.1339 159.396 29.1519C159.163 29.1698 158.906 29.1629 158.623 29.1312C158.34 29.0995 158.091 29.0926 157.875 29.1104C157.593 29.1784 157.311 29.2132 157.028 29.2147C156.745 29.1996 156.438 29.1764 156.105 29.145C156.039 29.0789 155.963 29.0211 155.88 28.9717C155.813 28.9222 155.763 28.856 155.729 28.7731C156.443 25.5619 157.165 22.3838 157.896 19.239C158.643 16.0774 159.381 12.8328 160.111 9.50514C160.178 9.57125 160.219 9.57933 160.236 9.52939C160.269 9.46273 160.293 9.39613 160.309 9.32956C160.724 9.2442 161.14 9.17546 161.555 9.12333C161.986 9.0545 162.41 9.01895 162.825 9.01667C163.241 8.99778 163.631 9.01226 163.997 9.06012C164.38 9.10788 164.721 9.19741 165.021 9.32872C165.222 9.72646 165.383 10.1909 165.502 10.722C165.621 11.2365 165.724 11.7678 165.81 12.3157C165.896 12.8636 165.974 13.4116 166.043 13.9596C166.113 14.5077 166.198 15.0057 166.301 15.4539C166.351 15.6364 166.419 15.8188 166.503 16.0012C166.604 16.1834 166.621 16.3578 166.556 16.5244C166.759 17.1548 166.936 17.777 167.089 18.391C167.242 19.0051 167.387 19.6191 167.523 20.2333C167.659 20.8308 167.796 21.4366 167.932 22.0507C168.085 22.6482 168.263 23.2455 168.465 23.8426L168.392 24.0674C168.476 24.2995 168.561 24.5733 168.646 24.8886C168.747 25.2038 168.84 25.5356 168.925 25.8841C169.027 26.2326 169.112 26.5728 169.18 26.9048C169.265 27.2367 169.333 27.5354 169.384 27.801C169.503 28.2491 169.438 28.5818 169.19 28.7992C168.942 29.0166 168.619 29.0848 168.219 29.0039C168.003 28.9885 167.729 28.9983 167.397 29.0334C167.065 29.0518 166.724 29.0703 166.375 29.0888C166.026 29.0907 165.702 29.0925 165.403 29.0941C165.104 29.0791 164.888 29.0305 164.754 28.9481C164.654 28.8822 164.57 28.7331 164.502 28.5008C164.451 28.2684 164.408 28.0028 164.373 27.7038C164.355 27.4048 164.337 27.1058 164.319 26.8067C164.3 26.4911 164.274 26.242 164.24 26.0593C164.154 25.5446 164.102 25.0879 164.083 24.6892C164.064 24.2738 163.987 23.8754 163.852 23.4939ZM161.412 19.5189C161.778 19.5501 162.102 19.565 162.385 19.5634C162.684 19.5618 162.991 19.585 163.307 19.6331C163.202 18.6865 163.056 17.7483 162.868 16.8187C162.697 15.8891 162.484 15.0011 162.23 14.155C162.069 15.1364 161.933 16.0428 161.821 16.8743C161.71 17.7058 161.573 18.5874 161.412 19.5189ZM182.5 15.0911C182.467 15.0912 182.458 15.0996 182.475 15.1161C182.492 15.116 182.5 15.1077 182.5 15.0911L182.575 15.0907C182.51 15.3403 182.461 15.6064 182.43 15.8891C182.398 16.1552 182.358 16.4296 182.309 16.7124C182.278 16.9951 182.221 17.2779 182.14 17.5609C182.075 17.8271 181.968 18.0853 181.82 18.3354C181.804 18.5016 181.747 18.6515 181.648 18.785C181.565 18.9018 181.466 19.0186 181.35 19.1356C181.235 19.2526 181.111 19.3613 180.978 19.4617C180.863 19.562 180.755 19.6707 180.656 19.7875C181.142 20.433 181.536 21.1786 181.84 22.0245C182.144 22.8704 182.306 23.7337 182.328 24.6143C182.378 24.7304 182.437 24.8048 182.503 24.8377C182.504 24.9374 182.496 25.0205 182.48 25.0871C182.464 25.1537 182.497 25.22 182.581 25.286C182.616 25.7677 182.669 26.2577 182.738 26.7558C182.807 27.2374 182.868 27.6857 182.92 28.1009C182.804 28.2179 182.747 28.3594 182.748 28.5256C182.765 28.6751 182.716 28.8083 182.601 28.9253C182.251 28.8939 181.927 28.8625 181.628 28.8309C181.345 28.7992 181.054 28.7759 180.755 28.7609C180.456 28.7293 180.132 28.7144 179.783 28.7163C179.45 28.7015 179.068 28.7036 178.636 28.7226C178.586 28.6564 178.552 28.5901 178.535 28.5237C178.518 28.4407 178.468 28.3829 178.385 28.3501C178.449 28.0174 178.489 27.6598 178.503 27.2775C178.518 26.8786 178.516 26.4798 178.497 26.0811C178.478 25.6823 178.443 25.3003 178.391 24.935C178.339 24.5697 178.287 24.2376 178.236 23.9387C178.333 23.4064 178.272 22.9165 178.053 22.469C177.851 22.0048 177.559 21.6325 177.175 21.3521C176.791 21.0717 176.35 20.9079 175.851 20.8608C175.369 20.7969 174.887 20.891 174.407 21.1429C174.413 22.356 174.453 23.5938 174.527 24.8564C174.6 26.1024 174.656 27.2737 174.695 28.3703C174.696 28.4367 174.671 28.4784 174.621 28.4953C174.588 28.4955 174.563 28.5122 174.547 28.5456C174.615 28.7778 174.599 28.9275 174.499 28.9945C174.4 29.0449 174.259 29.0706 174.076 29.0716C173.91 29.0559 173.735 29.0402 173.552 29.0246C173.37 29.009 173.22 29.0514 173.104 29.1517C172.988 29.1025 172.838 29.095 172.656 29.1292C172.473 29.1469 172.282 29.1645 172.083 29.1822C171.883 29.2166 171.684 29.2343 171.485 29.2354C171.302 29.2364 171.135 29.1874 170.985 29.0885C170.952 29.0555 170.918 29.0141 170.885 28.9644C170.868 28.9147 170.834 28.8733 170.784 28.8403C170.776 27.378 170.76 25.8824 170.735 24.3537C170.71 22.8249 170.685 21.2962 170.66 19.7674C170.652 18.222 170.652 16.6931 170.66 15.1808C170.668 13.6684 170.693 12.1976 170.735 10.7682C170.702 10.7019 170.668 10.6605 170.635 10.6441C170.618 10.6109 170.643 10.5527 170.709 10.4692L170.584 10.4699C170.584 10.4366 170.592 10.42 170.609 10.4199C170.642 10.4031 170.667 10.3863 170.683 10.3696C170.582 10.1375 170.523 9.88857 170.505 9.62278C170.503 9.35689 170.552 9.11566 170.65 8.89909C170.749 8.68251 170.898 8.53213 171.097 8.44795C171.296 8.34715 171.553 8.35405 171.87 8.46865C172.484 8.3822 173.09 8.3041 173.688 8.23436C174.286 8.14799 174.884 8.09487 175.482 8.07498C176.08 8.05509 176.678 8.08505 177.277 8.16487C177.892 8.22798 178.525 8.35746 179.174 8.55333C179.856 8.71578 180.431 9.01177 180.899 9.44129C181.366 9.87081 181.735 10.384 182.004 10.9807C182.29 11.5774 182.468 12.2329 182.538 12.9471C182.625 13.6612 182.612 14.3759 182.5 15.0911ZM176.548 16.1706C176.748 16.1695 176.964 16.16 177.196 16.1421C177.445 16.1241 177.678 16.0896 177.894 16.0386C178.109 15.9709 178.291 15.8702 178.44 15.7365C178.589 15.6027 178.671 15.4111 178.686 15.1618C178.851 14.8285 178.915 14.4875 178.88 14.1387C178.862 13.7898 178.769 13.4663 178.601 13.1681C178.449 12.8531 178.24 12.5884 177.973 12.3738C177.706 12.1426 177.414 11.9946 177.098 11.9299C176.999 11.9304 176.932 11.9308 176.899 11.931C176.866 11.9312 176.816 11.9481 176.75 11.9817C176.466 11.8669 176.142 11.8437 175.777 11.9122C175.428 11.9806 175.071 12.0158 174.706 12.0178C174.656 12.0679 174.631 12.1179 174.632 12.1677C174.649 12.2175 174.591 12.2261 174.457 12.1936C174.443 12.5427 174.411 12.8835 174.363 13.2162C174.332 13.5487 174.309 13.8895 174.294 14.2386C174.296 14.5709 174.306 14.9032 174.324 15.2355C174.36 15.5677 174.445 15.9079 174.579 16.2561C174.762 16.2053 174.936 16.1877 175.103 16.2034C175.285 16.2024 175.452 16.2181 175.601 16.2505C175.768 16.2662 175.926 16.2737 176.075 16.2729C176.241 16.272 176.399 16.2379 176.548 16.1706ZM192.894 14.76C192.761 14.7275 192.661 14.7114 192.594 14.7118C192.528 14.7122 192.412 14.7045 192.245 14.6888C192.078 14.4903 191.853 14.2755 191.569 14.0444C191.285 13.7966 190.976 13.6072 190.643 13.4761C190.327 13.3283 190.011 13.2718 189.695 13.3068C189.38 13.3417 189.106 13.526 188.876 13.8597C188.945 14.3578 189.105 14.7558 189.356 15.0536C189.607 15.3513 189.907 15.5906 190.257 15.7715C190.758 16.2507 191.292 16.6882 191.86 17.0839C192.443 17.4796 193.011 17.8919 193.561 18.321C194.146 18.8994 194.599 19.5866 194.919 20.3825C195.239 21.1619 195.485 22.0413 195.656 23.0208C195.623 23.0875 195.599 23.1458 195.582 23.1957C195.587 24.1097 195.392 24.9084 194.997 25.592C194.619 26.2754 194.115 26.8515 193.486 27.3202C192.874 27.7889 192.17 28.1666 191.373 28.4535C190.594 28.7237 189.814 28.9191 189.033 29.0396C188.501 29.0093 188.035 28.8872 187.635 28.6734C187.235 28.4595 186.819 28.2624 186.386 28.082C186.102 27.8176 185.818 27.545 185.534 27.264C185.25 26.9831 184.982 26.6937 184.731 26.3959C184.481 26.0982 184.254 25.7837 184.053 25.4524C183.852 25.1211 183.709 24.7646 183.624 24.3829C184.087 24.1144 184.535 23.8212 184.965 23.5031C185.395 23.185 185.767 22.7924 186.08 22.3254C186.163 22.3249 186.238 22.3162 186.304 22.2992C186.387 22.2655 186.47 22.2318 186.553 22.1982C186.787 22.4129 186.996 22.6444 187.18 22.8927C187.381 23.1409 187.59 23.3807 187.807 23.6122C188.024 23.7107 188.257 23.8008 188.507 23.8825C188.756 23.9643 188.998 24.0128 189.23 24.0281C189.48 24.0434 189.712 24.0172 189.928 23.9495C190.16 23.8818 190.367 23.7477 190.549 23.5473C190.663 23.2309 190.687 22.9649 190.619 22.7492C190.552 22.517 190.442 22.3181 190.292 22.1528C190.141 21.9708 189.974 21.8055 189.791 21.657C189.607 21.5084 189.44 21.3514 189.29 21.1861C188.99 21.0382 188.723 20.8319 188.489 20.5673C188.254 20.2861 188.004 20.0797 187.737 19.9482C187.303 19.4853 186.868 18.9808 186.433 18.4348C186.014 17.8886 185.637 17.3008 185.301 16.6711C184.982 16.0414 184.738 15.3696 184.568 14.656C184.414 13.9256 184.393 13.1447 184.505 12.3131C184.7 11.5809 185.054 10.9391 185.566 10.3879C186.078 9.83672 186.683 9.40134 187.379 9.08178C188.092 8.76213 188.855 8.57516 189.669 8.52085C190.5 8.44983 191.331 8.53669 192.163 8.78141C192.663 9.04457 193.114 9.34954 193.514 9.69634C193.915 10.0265 194.307 10.3817 194.692 10.7618C194.759 10.8279 194.85 10.9188 194.967 11.0345C195.101 11.1335 195.226 11.2491 195.343 11.3814C195.477 11.497 195.594 11.6127 195.694 11.7285C195.794 11.8442 195.845 11.9354 195.845 12.0018C195.862 12.1015 195.829 12.1764 195.747 12.2267C195.664 12.2604 195.589 12.3356 195.524 12.4523C195.359 12.7191 195.119 13.0195 194.806 13.3536C194.492 13.6877 194.169 13.972 193.838 14.2064C193.689 14.307 193.523 14.3827 193.341 14.4335C193.158 14.4677 193.009 14.5766 192.894 14.76Z" fill="#403A30"/>
</svg>
