<svg width="193" height="31" viewBox="0 0 193 31" fill="none" xmlns="http://www.w3.org/2000/svg">
<path d="M22.8841 2.05041C22.8625 2.18408 22.8965 2.28407 22.9859 2.35036C23.0753 2.41665 23.1759 2.49401 23.2876 2.58243C23.1114 2.9173 23.0353 3.25161 23.0594 3.58538C23.0834 3.89689 23.0408 4.25328 22.9317 4.65455C23.0215 4.78762 23.0668 4.94319 23.0678 5.12127C23.0688 5.29934 23.0586 5.47747 23.0373 5.65567C23.0383 5.83374 23.0282 6.01188 23.0069 6.19007C22.9855 6.34601 22.9974 6.50176 23.0428 6.65734C22.9382 7.8822 22.9562 9.12866 23.0967 10.3967C23.2372 11.6647 23.3443 12.933 23.418 14.2014C23.5142 15.5142 23.5103 16.8276 23.4061 18.1415C23.3242 19.433 23.3091 20.7464 23.3609 22.0817C23.3621 22.3043 23.3967 22.5267 23.4647 22.7489C23.5326 22.9489 23.5783 23.1712 23.6019 23.416C23.6493 23.9277 23.6521 24.4508 23.6105 24.9853C23.5689 25.5197 23.5718 26.0428 23.6191 26.5545C23.6665 27.0885 23.6694 27.6116 23.6277 28.1238C23.5859 28.6138 23.5883 29.0589 23.635 29.4594C23.5248 29.6603 23.3918 29.7612 23.236 29.7621C23.08 29.7406 22.9243 29.7638 22.7689 29.8314C21.8553 29.6583 20.9424 29.6076 20.0301 29.6794C19.1177 29.7289 18.2281 29.8674 17.3612 30.0947C17.3158 29.9391 17.2481 29.7725 17.1581 29.595C17.068 29.3951 17.1005 29.2391 17.2557 29.127C17.2085 28.6375 17.1948 28.159 17.2145 27.6914C17.2342 27.2239 17.2428 26.7675 17.2404 26.3223C17.2601 25.8547 17.2575 25.3873 17.2327 24.92C17.2302 24.4525 17.1607 23.9632 17.0243 23.452C17.151 22.1825 17.1438 20.8803 17.003 19.5455C16.8842 18.1883 16.81 16.8197 16.7802 15.4397C16.7145 15.6404 16.6491 15.8856 16.5839 16.1754C16.5187 16.4651 16.3864 16.6996 16.187 16.8787C15.9046 18.1491 15.5547 19.2974 15.1374 20.3236C14.7199 21.3276 14.2582 22.3764 13.7522 23.4699C13.511 24.139 13.2251 24.7638 12.8943 25.3444C12.5859 25.9248 12.2103 26.4389 11.7675 26.8865C11.5007 26.9325 11.278 26.9225 11.0996 26.8567C10.921 26.7687 10.7646 26.6582 10.6303 26.5254C10.1576 25.5708 9.74029 24.5603 9.37829 23.4938C9.01618 22.405 8.6762 21.2939 8.35836 20.1604C8.06266 19.0045 7.77809 17.8485 7.50465 16.6925C7.25346 15.5364 6.98014 14.4026 6.68469 13.2912C6.57631 13.8261 6.54609 14.405 6.59402 15.028C6.64194 15.651 6.60059 16.23 6.46996 16.7649C6.4702 16.8095 6.48145 16.8317 6.50371 16.8315C6.52585 16.8092 6.53686 16.7868 6.53674 16.7646C6.43275 18.1007 6.35138 19.5036 6.29264 20.973C6.25616 22.4424 6.2198 23.934 6.18356 25.4479C6.29887 26.1818 6.32503 26.894 6.26202 27.5844C6.19902 28.2748 6.16928 28.9428 6.17282 29.5883C6.10628 29.6332 6.03975 29.678 5.97321 29.7229C5.92894 29.7677 5.87353 29.8125 5.807 29.8574C5.56215 29.8587 5.37301 29.8709 5.23957 29.8939C5.10614 29.9169 4.9395 29.9734 4.73965 30.0636C4.00473 30.0008 3.33683 29.9822 2.73596 30.0077C2.13508 30.0333 1.51219 30.1035 0.867276 30.2183C0.800255 30.1742 0.744303 30.1188 0.699419 30.0523C0.654535 29.9857 0.609712 29.9303 0.56495 29.8861C0.596075 27.4373 0.59375 24.9776 0.557976 22.5069C0.54446 20.0362 0.553691 17.6543 0.585668 15.3614C0.752175 13.2458 0.818393 11.1085 0.784323 8.94943C0.772391 6.76803 0.782961 4.63102 0.816034 2.53841C0.860187 2.47139 0.91547 2.40431 0.981882 2.33716C1.07043 2.24764 1.09214 2.14735 1.04702 2.0363C1.67064 2.09967 2.3164 2.14065 2.9843 2.15926C3.65208 2.15561 4.31998 2.17421 4.988 2.21508C5.65589 2.23369 6.30172 2.2858 6.92546 2.37143C7.57147 2.45693 8.17326 2.59833 8.73083 2.79562C8.84286 2.92857 8.89936 3.08408 8.90034 3.26215C8.92345 3.41785 9.00196 3.52872 9.13588 3.59476C9.22772 4.10624 9.37533 4.63967 9.57871 5.19505C9.80434 5.75032 10.0412 6.31665 10.2892 6.89405C10.5593 7.44907 10.8072 8.00421 11.0329 8.55947C11.2808 9.11461 11.4952 9.65881 11.6762 10.1921C11.8328 10.3248 11.9337 10.4578 11.9789 10.5911C12.0464 10.7243 12.1141 10.8908 12.182 11.0908C12.5342 10.3766 12.8529 9.62912 13.138 8.84847C13.4454 8.06769 13.7305 7.28703 13.9933 6.5065C14.2783 5.70358 14.5634 4.92293 14.8487 4.16453C15.156 3.38375 15.4858 2.63624 15.8381 1.922C16.3501 1.9192 16.9178 1.93835 17.5413 1.97946C18.1869 1.99819 18.8326 2.02805 19.4784 2.06903C20.124 2.08776 20.7474 2.10661 21.3485 2.12558C21.9495 2.1223 22.4614 2.09724 22.8841 2.05041ZM6.65075 13.1912C6.6735 13.2802 6.68469 13.2912 6.68432 13.2244C6.68383 13.1354 6.67264 13.1243 6.65075 13.1912ZM26.1796 29.6387C26.2394 28.4252 26.2654 27.1039 26.2576 25.6748C26.2664 24.2456 26.3003 22.8495 26.3593 21.4864C26.432 19.5915 26.5048 17.6967 26.5775 15.8018C26.6667 13.8902 26.615 12.0292 26.4223 10.2189C26.4721 10.202 26.5052 10.1769 26.5216 10.1435C26.5546 10.0935 26.5876 10.0518 26.6206 10.0184C26.837 10.0836 27.0616 10.1156 27.2942 10.1144C27.5269 10.1131 27.7595 10.1035 27.992 10.0856C28.2245 10.0511 28.457 10.0166 28.6894 9.98211C28.9384 9.93089 29.1709 9.90469 29.387 9.90351C29.4867 9.90296 29.6196 9.90224 29.7858 9.90133C29.9519 9.8838 30.118 9.87458 30.2842 9.87367C30.467 9.87267 30.6249 9.88843 30.7581 9.92094C30.9077 9.93674 31.016 9.97769 31.0828 10.0438C31.1999 10.1761 31.2423 10.3337 31.21 10.5167C31.1944 10.6996 31.2368 10.8573 31.3372 10.9897C31.1617 12.3201 31.0777 13.6666 31.0851 15.0293C31.0925 16.3753 31.0581 17.6884 30.9821 18.9684C31.0658 19.0843 31.1081 19.217 31.1089 19.3665C31.1262 19.4994 31.127 19.6406 31.1112 19.7903C31.0954 19.9399 31.0796 20.0896 31.0638 20.2392C31.0646 20.3888 31.0986 20.5216 31.1657 20.6375C31.0699 21.3526 31.0406 22.084 31.078 22.8316C31.1152 23.5626 31.1608 24.3102 31.2149 25.0744C31.2688 25.8219 31.3062 26.5778 31.327 27.3421C31.3477 28.0898 31.2853 28.838 31.1398 29.5866C31.0577 29.7533 30.9419 29.8619 30.7926 29.9126C30.6434 29.9633 30.4773 29.9891 30.2945 29.9901C30.1283 29.991 29.9455 29.9837 29.746 29.9682C29.5631 29.9526 29.3887 29.9701 29.2228 30.0209C29.0063 29.939 28.7569 29.9071 28.4745 29.9253C28.2087 29.9433 27.9346 29.9615 27.6521 29.9796C27.3864 29.9977 27.1204 29.9908 26.8544 29.9591C26.5883 29.9273 26.3634 29.8205 26.1796 29.6387ZM43.6158 9.50162C43.7988 9.53385 44.0068 9.59088 44.2399 9.6727C44.473 9.7379 44.6805 9.71183 44.8627 9.59451C45.0626 9.67651 45.2705 9.70861 45.4864 9.69081C45.7189 9.6563 45.9348 9.6385 46.1342 9.63741C46.3336 9.6197 46.5165 9.64363 46.683 9.70919C46.8661 9.75804 47.0081 9.89852 47.1091 10.1306C47.1105 10.3799 47.1283 10.5958 47.1625 10.7784C47.1967 10.9611 47.1646 11.169 47.0662 11.4022C47.1524 11.9667 47.1889 12.5565 47.1756 13.1714C47.1623 13.7864 47.1408 14.4014 47.1109 15.0164C47.0977 15.6314 47.0927 16.2379 47.0959 16.8362C47.0992 17.4344 47.1522 17.9992 47.2548 18.5304C47.1932 19.4281 47.1732 20.3339 47.1949 21.2478C47.2165 22.1617 47.2464 23.0755 47.2846 23.9893C47.3229 24.9031 47.3445 25.817 47.3495 26.731C47.3711 27.6449 47.3511 28.5424 47.2894 29.4235C47.2562 29.4237 47.2395 29.4155 47.2394 29.3989C47.2394 29.3822 47.2227 29.374 47.1895 29.3742C47.1076 29.6073 46.9756 29.7659 46.7932 29.85C46.611 29.9507 46.4035 30.0017 46.1709 30.003C45.9549 30.0208 45.7305 30.0137 45.4977 29.9817C45.2816 29.9663 45.0987 29.959 44.9492 29.9598C44.9159 29.96 44.8911 29.9767 44.8747 30.0101C44.8749 30.0433 44.85 30.06 44.8002 30.0603C44.8166 30.027 44.8331 30.002 44.8496 29.9853C44.8661 29.9686 44.8577 29.9437 44.8243 29.9106C44.6592 30.1109 44.4436 30.1952 44.1775 30.1634C43.9282 30.1482 43.6874 30.1744 43.4551 30.2422C43.405 30.2092 43.3632 30.1596 43.3296 30.0933C43.3127 30.0435 43.2462 30.0356 43.1301 30.0695C43.1131 30.0031 43.0962 29.945 43.0793 29.8952C43.0791 29.862 43.0374 29.8373 42.9542 29.8211C42.919 29.4557 42.8098 29.2403 42.6266 29.1748C42.3908 28.5945 42.0884 27.9979 41.7195 27.385C41.3671 26.772 41.023 26.1507 40.6872 25.5211C40.4348 24.9408 40.174 24.3606 39.905 23.7804C39.6358 23.1837 39.3833 22.5951 39.1475 22.0147C38.8792 21.5841 38.6107 21.1037 38.3419 20.5733C38.073 20.0264 37.7961 19.5377 37.5113 19.1072C37.478 19.1073 37.4532 19.1158 37.4366 19.1325C37.4367 19.1491 37.4202 19.1575 37.3869 19.1577C37.3864 19.058 37.3777 18.9916 37.3609 18.9584C37.3285 19.1082 37.3211 19.2744 37.3387 19.4571C37.3563 19.6398 37.3657 19.8392 37.3669 20.0552C37.3847 20.2711 37.3859 20.4872 37.3704 20.7033C37.3716 20.9193 37.3395 21.1272 37.2741 21.327C37.3577 21.4096 37.4001 21.559 37.4012 21.775C37.4024 21.991 37.3866 22.1407 37.3538 22.224C37.4211 22.3732 37.4554 22.5558 37.4565 22.7718C37.4577 22.9878 37.4506 23.2122 37.4353 23.445C37.4199 23.6611 37.4044 23.8772 37.389 24.0933C37.3902 24.3094 37.4161 24.492 37.4668 24.6413C37.4704 25.306 37.4661 26.0289 37.4537 26.8101C37.4414 27.5912 37.4785 28.2973 37.565 28.9283C37.4989 28.9951 37.4411 29.0619 37.3916 29.1287C37.3421 29.1954 37.3094 29.287 37.2934 29.4034C37.0114 29.488 36.6627 29.5564 36.2476 29.6086C35.8323 29.6441 35.4999 29.6293 35.2502 29.5642C35.1176 29.6147 35.0098 29.6569 34.9269 29.6906C34.8439 29.7076 34.7361 29.7498 34.6035 29.817C34.5702 29.8005 34.512 29.8008 34.429 29.8179C34.346 29.835 34.2464 29.8605 34.1303 29.8943C34.0142 29.9282 33.8897 29.9704 33.7571 30.021C33.641 30.0715 33.5416 30.1219 33.4588 30.1722C33.3755 30.1394 33.3089 30.1149 33.2589 30.0985C33.2257 30.0987 33.1676 30.1156 33.0847 30.1493C33.0846 30.1161 33.0678 30.0829 33.0343 30.0499C33.0176 30.0334 33.0425 30.0249 33.109 30.0246C33.0257 29.9918 32.9839 29.9505 32.9837 29.9006C33 29.8507 32.9748 29.8009 32.9081 29.7515C32.9246 29.7347 32.9328 29.7098 32.9326 29.6765C32.949 29.6432 32.9739 29.6348 33.0072 29.6512C32.9737 29.6015 32.965 29.5351 32.9812 29.4519C32.9974 29.3687 33.0052 29.2773 33.0046 29.1776C33.0207 29.0778 33.0285 28.9864 33.0281 28.9033C33.0275 28.8036 32.9938 28.7207 32.927 28.6545C32.9853 27.1586 33.0185 25.6295 33.0265 24.0673C33.0346 22.5052 33.0257 20.8766 32.9998 19.1817C33.0327 19.115 33.0486 18.9903 33.0476 18.8075C33.0631 18.608 33.0541 18.4668 33.0204 18.3839C33.0846 17.9681 33.0824 17.5693 33.0138 17.1874C33.0609 16.672 33.0828 16.1318 33.0797 15.5668C33.0932 14.9851 33.09 14.4117 33.0703 13.8468C33.0672 13.2652 33.064 12.6919 33.0609 12.1269C33.0578 11.5619 33.0716 11.03 33.1021 10.5313C33.085 10.4483 33.01 10.4072 32.877 10.4079C32.9098 10.3246 32.9426 10.2497 32.9755 10.183C33.0084 10.1164 32.9996 10.0333 32.9492 9.93388C32.9987 9.86713 33.0567 9.83358 33.1232 9.83322C33.2063 9.83276 33.2725 9.79085 33.3219 9.70749C33.3884 9.70713 33.43 9.72352 33.4468 9.75666C33.4802 9.78972 33.5133 9.76461 33.5461 9.68134C33.8454 9.71294 34.1529 9.71957 34.4685 9.70122C34.8007 9.66617 35.0914 9.63965 35.3406 9.62167C35.507 9.67061 35.7399 9.71088 36.0392 9.74248C36.355 9.75737 36.5708 9.70634 36.6865 9.58938C36.753 9.60563 36.8029 9.61367 36.8362 9.61349C36.8693 9.59669 36.9191 9.58811 36.9856 9.58774C37.3038 10.0347 37.5888 10.4985 37.8407 10.979C38.1093 11.4595 38.3777 11.9233 38.646 12.3705C38.6466 12.4702 38.6637 12.5616 38.6974 12.6445C38.7311 12.7274 38.7731 12.8102 38.8234 12.893C38.8737 12.9759 38.9074 13.0588 38.9244 13.1418C38.958 13.2081 38.9667 13.2745 38.9505 13.341C39.4032 14.0864 39.798 14.857 40.1347 15.6528C40.4714 16.4487 40.8411 17.1945 41.2437 17.8902C41.6288 18.4033 41.9639 18.9166 42.2493 19.4302C42.5345 19.9272 42.8448 20.449 43.1801 20.9956C43.1201 19.1346 43.1184 17.3066 43.1751 15.5116C43.2316 13.6998 43.2303 11.9383 43.1711 10.2269C43.2206 10.1602 43.2453 10.1185 43.2452 10.1019C43.2617 10.0852 43.2531 10.0271 43.2193 9.92755C43.302 9.86063 43.3681 9.78549 43.4175 9.70212C43.4669 9.61876 43.533 9.55193 43.6158 9.50162ZM57.249 9.10299C57.2826 9.16928 57.3492 9.19384 57.4488 9.17668C57.5483 9.1429 57.6232 9.15079 57.6733 9.20037C57.841 9.48197 57.9259 9.81387 57.928 10.1961C57.9467 10.5782 57.9406 10.9771 57.9096 11.3927C57.8786 11.7917 57.8476 12.199 57.8166 12.6147C57.8022 13.0136 57.8541 13.3872 57.9723 13.7355C57.9229 13.8189 57.8735 13.9106 57.8242 14.0106C57.7748 14.0939 57.7422 14.2021 57.7263 14.3351C57.3276 14.3706 56.9039 14.3812 56.4552 14.367C56.023 14.3528 55.5826 14.3469 55.1339 14.3493C54.6851 14.3352 54.2365 14.3459 53.788 14.3816C53.3561 14.4172 52.9411 14.4943 52.5429 14.6128C52.5117 14.9786 52.4722 15.361 52.4245 15.7601C52.3769 16.1592 52.3955 16.5247 52.4804 16.8566C52.6966 16.8886 52.9378 16.9289 53.2039 16.9773C53.4701 17.0257 53.7027 17.0078 53.9016 16.9236C54.0184 17.0061 54.1848 17.0467 54.4008 17.0455C54.6334 17.0276 54.8494 17.0181 55.0488 17.017C55.2647 16.9992 55.4559 17.0065 55.6222 17.0388C55.7886 17.0712 55.8889 17.1786 55.9231 17.3612C55.9579 17.6436 55.968 17.9593 55.9532 18.3083C55.9551 18.6407 55.9487 18.9897 55.934 19.3554C55.936 19.721 55.9463 20.0782 55.9648 20.4271C56 20.7759 56.0599 21.0913 56.1445 21.3734C56.1614 21.4231 56.145 21.4564 56.0952 21.4733C56.062 21.4735 56.0538 21.4985 56.0707 21.5482C56.0545 21.6314 56.0714 21.6729 56.1212 21.6726C56.1876 21.6556 56.221 21.6804 56.2213 21.7468C56.1886 21.8301 56.1473 21.8885 56.0977 21.922C56.048 21.9555 56.0401 22.0303 56.074 22.1465C55.9742 22.147 55.908 22.1889 55.8752 22.2722C55.8086 22.2393 55.7087 22.215 55.5757 22.1991C55.4593 22.1831 55.3847 22.2167 55.3519 22.3C55.3186 22.2836 55.2935 22.2588 55.2767 22.2256C55.2599 22.1925 55.2348 22.1594 55.2014 22.1263C54.7858 22.112 54.3952 22.0975 54.0296 22.0829C53.6638 22.0517 53.2817 22.0787 52.8833 22.1639C52.9013 22.4131 52.8943 22.6541 52.8624 22.887C52.8303 23.1032 52.8066 23.3193 52.7911 23.5355C52.7757 23.7516 52.7768 23.9593 52.7945 24.1586C52.8289 24.3579 52.8964 24.5569 52.9972 24.7558C53.2462 24.7046 53.5452 24.678 53.8942 24.6761C54.2431 24.6742 54.6087 24.6722 54.9909 24.6701C55.3898 24.6679 55.7803 24.6575 56.1624 24.6388C56.5611 24.62 56.9182 24.5765 57.2335 24.5083C57.4992 24.4569 57.7152 24.4558 57.8816 24.5047C58.048 24.537 58.1814 24.6194 58.2818 24.7518C58.3822 24.8676 58.4495 25.0251 58.4838 25.2243C58.5347 25.4068 58.5691 25.6227 58.5871 25.8719C58.5377 25.9552 58.5133 26.0468 58.5138 26.1465C58.531 26.2461 58.5481 26.3457 58.5653 26.4453C58.5824 26.5283 58.5911 26.6114 58.5916 26.6944C58.592 26.7775 58.5675 26.8525 58.518 26.9192C58.6528 27.2508 58.721 27.5745 58.7228 27.8902C58.741 28.1893 58.826 28.5295 58.9776 28.9109C58.9445 28.9277 58.9197 28.9611 58.9034 29.011C58.9037 29.0609 58.9039 29.1107 58.9042 29.1606C58.8377 29.1609 58.8046 29.1777 58.8048 29.211C58.7722 29.3275 58.7973 29.3606 58.8801 29.3103C58.7478 29.4273 58.5903 29.4946 58.4076 29.5123C58.2249 29.5299 58.0337 29.5226 57.8341 29.4905C57.6345 29.4583 57.4266 29.4262 57.2104 29.3942C56.9941 29.3455 56.7862 29.3134 56.5867 29.2979C56.0386 29.3507 55.565 29.3616 55.166 29.3306C54.7669 29.2829 54.343 29.2603 53.8943 29.2627C53.4458 29.2984 53.0057 29.3424 52.5739 29.3946C52.1586 29.4301 51.7434 29.4656 51.3281 29.5011C50.9128 29.5366 50.4975 29.5555 50.082 29.5578C49.6666 29.5601 49.2343 29.5209 48.7852 29.4403C48.768 29.3406 48.7261 29.2744 48.6594 29.2415C48.6094 29.2086 48.5675 29.1506 48.5339 29.0677C48.4767 27.7386 48.4692 26.3593 48.5112 24.9299C48.5698 23.4838 48.5704 22.0712 48.513 20.6922C48.4756 19.9446 48.4799 19.1967 48.5256 18.4487C48.5713 17.684 48.617 16.9276 48.6628 16.1795C48.7085 15.4148 48.7376 14.6585 48.7501 13.9106C48.7791 13.146 48.7584 12.39 48.6878 11.6426C48.7533 11.4594 48.7688 11.2516 48.7343 11.0191C48.6997 10.77 48.6735 10.5375 48.6557 10.3216C48.6379 10.1056 48.6534 9.91445 48.7024 9.748C48.7513 9.58155 48.892 9.47276 49.1244 9.42163C49.3568 9.38712 49.6393 9.38558 49.9719 9.417C50.3043 9.4318 50.5871 9.4801 50.8202 9.56192C51.3682 9.49245 51.9165 9.46452 52.465 9.47814C53.0133 9.47514 53.5535 9.4805 54.0853 9.4942C54.6171 9.4913 55.1488 9.47177 55.6804 9.43562C56.2119 9.38286 56.7347 9.27198 57.249 9.10299ZM53.6363 27.6688C53.6699 27.7351 53.6866 27.735 53.6862 27.6685C53.6858 27.6021 53.6692 27.6021 53.6363 27.6688ZM71.59 15.6802C71.5568 15.6804 71.5485 15.6887 71.5652 15.7052C71.5819 15.7052 71.5901 15.6968 71.59 15.6802L71.6648 15.6798C71.5997 15.9294 71.5513 16.1956 71.5196 16.4782C71.4878 16.7443 71.4478 17.0187 71.3995 17.3015C71.3678 17.5842 71.3112 17.867 71.2296 18.15C71.1646 18.4162 71.058 18.6744 70.9098 18.9245C70.8941 19.0907 70.8367 19.2406 70.7378 19.3741C70.6553 19.4909 70.5562 19.6078 70.4406 19.7247C70.3249 19.8417 70.2008 19.9504 70.0684 20.0508C69.9526 20.1512 69.8452 20.2598 69.7462 20.3766C70.2316 21.0221 70.6262 21.7678 70.93 22.6136C71.2337 23.4595 71.3963 24.3228 71.4178 25.2034C71.4683 25.3195 71.5268 25.3939 71.5935 25.4268C71.594 25.5265 71.5862 25.6096 71.5699 25.6762C71.5537 25.7428 71.5873 25.8091 71.6707 25.8751C71.7066 26.3568 71.7591 26.8468 71.8283 27.3449C71.8974 27.8265 71.958 28.2749 72.0102 28.69C71.8945 28.807 71.8371 28.9486 71.838 29.1147C71.8554 29.2642 71.8063 29.3974 71.6906 29.5144C71.3415 29.4831 71.0172 29.4516 70.7179 29.42C70.4353 29.3883 70.1443 29.365 69.8451 29.35C69.5458 29.3184 69.2217 29.3035 68.8727 29.3055C68.5402 29.2907 68.158 29.2927 67.726 29.3117C67.6758 29.2455 67.6422 29.1792 67.6252 29.1129C67.6082 29.0299 67.558 28.972 67.4747 28.9392C67.5394 28.6065 67.579 28.249 67.5935 27.8667C67.6079 27.4677 67.6058 27.0689 67.587 26.6702C67.5682 26.2714 67.5328 25.8894 67.481 25.5241C67.4291 25.1588 67.3775 24.8267 67.326 24.5278C67.4228 23.9955 67.3619 23.5056 67.1434 23.0581C66.9415 22.5939 66.6486 22.2216 66.2649 21.9412C65.8811 21.6608 65.4398 21.497 64.941 21.4499C64.4587 21.386 63.9773 21.4801 63.4968 21.732C63.5034 22.9451 63.5434 24.1829 63.6168 25.4455C63.6901 26.6915 63.7463 27.8628 63.7856 28.9594C63.7859 29.0258 63.7612 29.0675 63.7115 29.0844C63.6782 29.0846 63.6534 29.1013 63.637 29.1347C63.7047 29.367 63.6889 29.5166 63.5896 29.5836C63.4901 29.634 63.349 29.6597 63.1662 29.6607C63 29.645 62.8254 29.6294 62.6425 29.6137C62.4596 29.5981 62.3103 29.6405 62.1945 29.7408C62.0779 29.6916 61.9283 29.6841 61.7457 29.7183C61.563 29.736 61.372 29.7536 61.1726 29.7713C60.9734 29.8057 60.7741 29.8234 60.5747 29.8245C60.3919 29.8255 60.2254 29.7765 60.0753 29.6776C60.0419 29.6446 60.0084 29.6032 59.9749 29.5535C59.958 29.5038 59.9246 29.4624 59.8745 29.4295C59.8665 27.9671 59.85 26.4715 59.8251 24.9428C59.8001 23.414 59.7751 21.8853 59.7501 20.3565C59.7417 18.8111 59.7416 17.2822 59.75 15.7699C59.7583 14.2576 59.7835 12.7867 59.8255 11.3573C59.7919 11.291 59.7585 11.2496 59.7251 11.2332C59.7083 11.2001 59.733 11.1418 59.799 11.0583L59.6743 11.059C59.6742 11.0258 59.6824 11.0091 59.699 11.009C59.7321 10.9922 59.757 10.9754 59.7735 10.9587C59.6725 10.7266 59.613 10.4777 59.5949 10.2119C59.5935 9.94601 59.642 9.70477 59.7405 9.4882C59.839 9.27162 59.9878 9.12124 60.1868 9.03706C60.3856 8.93626 60.6432 8.94316 60.9596 9.05776C61.574 8.97131 62.1802 8.89321 62.778 8.82347C63.3758 8.73711 63.9738 8.68398 64.5719 8.66409C65.1701 8.6442 65.7685 8.67416 66.3672 8.75398C66.9824 8.81709 67.6146 8.94658 68.2638 9.14244C68.9461 9.3049 69.521 9.60088 69.9887 10.0304C70.4564 10.4599 70.8248 10.9731 71.0939 11.5699C71.3797 12.1666 71.5578 12.822 71.6282 13.5362C71.7151 14.2503 71.7024 14.965 71.59 15.6802ZM65.6383 16.7597C65.8377 16.7586 66.0537 16.7491 66.2862 16.7312C66.5354 16.7132 66.7679 16.6787 66.9836 16.6277C67.1993 16.56 67.3815 16.4593 67.5304 16.3256C67.6792 16.1918 67.7613 16.0003 67.7765 15.7509C67.9409 15.4176 68.0055 15.0766 67.9703 14.7278C67.9518 14.3789 67.8586 14.0554 67.6908 13.7572C67.5395 13.4422 67.3304 13.1775 67.0633 12.9629C66.7961 12.7317 66.5045 12.5838 66.1884 12.519C66.0887 12.5196 66.0222 12.5199 65.989 12.5201C65.9557 12.5203 65.906 12.5372 65.8397 12.5708C65.5566 12.456 65.2324 12.4328 64.8671 12.5013C64.5185 12.5697 64.1614 12.6049 63.7958 12.6069C63.7463 12.657 63.7216 12.707 63.7219 12.7568C63.7388 12.8066 63.6806 12.8152 63.5475 12.7827C63.5328 13.1318 63.5014 13.4726 63.4534 13.8053C63.422 14.1378 63.3989 14.4786 63.3842 14.8277C63.386 15.16 63.3962 15.4923 63.4146 15.8246C63.4497 16.1568 63.5346 16.497 63.6695 16.8452C63.852 16.7944 64.0264 16.7768 64.1926 16.7925C64.3754 16.7915 64.5417 16.8072 64.6915 16.8397C64.8577 16.8554 65.0156 16.8628 65.1652 16.862C65.3314 16.8611 65.4891 16.827 65.6383 16.7597ZM81.7347 15.3505C81.6016 15.318 81.5018 15.3019 81.4353 15.3023C81.3688 15.3026 81.2524 15.295 81.0862 15.2792C80.9189 15.0807 80.6934 14.8659 80.4096 14.6348C80.1257 14.3871 79.8173 14.1977 79.4842 14.0666C79.1676 13.9187 78.8516 13.8623 78.536 13.8973C78.2205 13.9322 77.9473 14.1165 77.7164 14.4501C77.7856 14.9483 77.9457 15.3463 78.1966 15.644C78.4475 15.9418 78.7479 16.1811 79.0979 16.362C79.5991 16.8412 80.1333 17.2787 80.7004 17.6744C81.2842 18.07 81.8515 18.4824 82.4023 18.9115C82.9871 19.4899 83.4395 20.1771 83.7596 20.973C84.0796 21.7523 84.3254 22.6318 84.497 23.6113C84.4641 23.678 84.4395 23.7363 84.4231 23.7862C84.4281 24.7002 84.2331 25.4989 83.838 26.1824C83.4595 26.8659 82.9558 27.4419 82.3269 27.9107C81.7146 28.3794 81.0103 28.7571 80.2142 29.044C79.4346 29.3141 78.6547 29.5095 77.8743 29.6301C77.3423 29.5998 76.8763 29.4777 76.4763 29.2639C76.0763 29.05 75.6598 28.8529 75.2267 28.6724C74.9427 28.4081 74.6587 28.1354 74.3747 27.8545C74.0906 27.5735 73.8232 27.2842 73.5723 26.9864C73.3214 26.6887 73.0953 26.3741 72.8941 26.0429C72.6928 25.7116 72.5496 25.3551 72.4644 24.9733C72.9283 24.7049 73.3754 24.4117 73.8057 24.0935C74.236 23.7754 74.6078 23.3829 74.921 22.9159C75.0041 22.9154 75.0788 22.9067 75.1452 22.8897C75.2281 22.856 75.311 22.8223 75.3939 22.7886C75.6278 23.0034 75.8368 23.2349 76.0209 23.4832C76.2217 23.7313 76.4307 23.9712 76.648 24.2026C76.8646 24.3012 77.0978 24.3913 77.3475 24.473C77.5972 24.5547 77.8384 24.6033 78.0712 24.6186C78.3205 24.6339 78.5531 24.6077 78.7687 24.54C79.001 24.4723 79.208 24.3382 79.3897 24.1378C79.5043 23.8214 79.5278 23.5554 79.4601 23.3397C79.3924 23.1074 79.2833 22.9086 79.1328 22.7433C78.9822 22.5613 78.8152 22.396 78.6315 22.2474C78.4479 22.0989 78.2809 21.9419 78.1304 21.7766C77.8305 21.6286 77.5635 21.4224 77.3294 21.1578C77.0952 20.8765 76.8448 20.6702 76.5781 20.5387C76.1435 20.0757 75.7087 19.5713 75.2736 19.0252C74.8552 18.4791 74.4781 17.8912 74.1423 17.2616C73.8231 16.6318 73.5784 15.9601 73.4083 15.2465C73.2548 14.5161 73.2339 13.7352 73.3457 12.9036C73.5411 12.1713 73.8949 11.5296 74.407 10.9784C74.9192 10.4272 75.5234 9.99181 76.2196 9.67226C76.9324 9.35261 77.6958 9.16563 78.5098 9.11133C79.3404 9.04031 80.1718 9.12716 81.004 9.37188C81.504 9.63504 81.9544 9.94002 82.3551 10.2868C82.7557 10.617 83.1482 10.9721 83.5325 11.3523C83.5994 11.4184 83.6913 11.5093 83.8082 11.6249C83.9417 11.7239 84.067 11.8396 84.184 11.9719C84.3176 12.0875 84.4346 12.2032 84.5349 12.3189C84.6352 12.4347 84.6856 12.5258 84.686 12.5923C84.7031 12.6919 84.6703 12.7669 84.5875 12.8172C84.5046 12.8509 84.4302 12.9261 84.3644 13.0428C84.1996 13.3096 83.9603 13.61 83.6464 13.9441C83.3325 14.2782 83.01 14.5624 82.6789 14.7969C82.5299 14.8974 82.3641 14.9731 82.1816 15.024C81.999 15.0582 81.85 15.1671 81.7347 15.3505ZM102.218 28.6494C101.903 28.7342 101.546 28.8525 101.148 29.0043C100.75 29.1394 100.443 29.2657 100.228 29.3832C99.7303 29.5355 99.2155 29.6048 98.6836 29.5911C98.1518 29.5774 97.6279 29.5055 97.112 29.3753C96.6127 29.2285 96.1215 29.0567 95.6385 28.8599C95.172 28.6464 94.747 28.4327 94.3637 28.2188C93.9131 27.8722 93.5451 27.4422 93.2598 26.9286C92.991 26.3983 92.7718 25.8261 92.6023 25.2122C92.4327 24.5816 92.3045 23.9342 92.2177 23.2699C92.1309 22.5891 92.0526 21.9331 91.9826 21.302C91.9946 20.4544 92.0231 19.59 92.0682 18.709C92.1297 17.8113 92.2247 16.9383 92.353 16.0901C92.4813 15.2418 92.6597 14.4349 92.8881 13.6692C93.1166 12.9035 93.4203 12.2205 93.7992 11.6201C94.0629 11.2032 94.3849 10.8442 94.7655 10.543C95.146 10.2252 95.5431 9.90723 95.9568 9.58922C96.2721 9.5044 96.5707 9.41137 96.8527 9.31012C97.1345 9.19225 97.4082 9.09935 97.6738 9.03142C97.9558 8.94679 98.238 8.89539 98.5205 8.87723C98.8028 8.84245 99.0938 8.87409 99.3934 8.97216C100.591 9.09856 101.582 9.48367 102.366 10.1275C103.167 10.7546 103.803 11.5239 104.273 12.4353C104.744 13.3468 105.081 14.3337 105.287 15.3961C105.492 16.4586 105.597 17.4717 105.602 18.4356C105.636 18.5185 105.661 18.5848 105.678 18.6346C105.695 18.6843 105.687 18.7509 105.654 18.8341C105.708 19.5152 105.712 20.2381 105.666 21.0028C105.637 21.7507 105.55 22.4907 105.404 23.2227C105.275 23.9546 105.088 24.6619 104.842 25.3446C104.613 26.0106 104.326 26.6022 103.98 27.1192C103.698 27.3534 103.401 27.6126 103.087 27.8968C102.789 28.1644 102.499 28.4152 102.218 28.6494ZM97.9003 13.9908C97.7845 14.0911 97.6856 14.2329 97.6035 14.4161C97.5379 14.5827 97.4388 14.6829 97.306 14.7169C97.0271 15.3665 96.8066 16.074 96.6446 16.8394C96.4826 17.6047 96.3872 18.3863 96.3583 19.1841C96.3459 19.9652 96.4083 20.7376 96.5455 21.5013C96.6991 22.2483 96.9521 22.9366 97.3046 23.5662C97.3381 23.6158 97.3547 23.6241 97.3546 23.5908C97.3709 23.5409 97.3875 23.5325 97.4043 23.5656C97.9065 24.2442 98.5394 24.4983 99.3029 24.328C99.8668 24.1089 100.322 23.7158 100.668 23.1489C101.03 22.5653 101.284 21.9075 101.429 21.1755C101.592 20.4268 101.645 19.6454 101.591 18.8314C101.537 18.0174 101.391 17.2621 101.155 16.5654C100.919 15.8687 100.591 15.2806 100.173 14.8009C99.755 14.3047 99.2548 14.0083 98.6726 13.9117C98.5896 13.9288 98.4818 13.9543 98.349 13.9883C98.2162 14.0223 98.133 13.9978 98.0993 13.9149C98.0663 13.9483 98.0415 13.9817 98.0251 14.015C98.0086 14.0483 97.9671 14.0402 97.9003 13.9908ZM96.7655 16.1657C96.7991 16.2153 96.8157 16.2152 96.8154 16.1654C96.815 16.0989 96.7984 16.099 96.7655 16.1657ZM101.905 16.9352C101.922 17.0016 101.93 17.0016 101.93 16.9351C101.929 16.8686 101.921 16.8687 101.905 16.9352ZM115.993 8.88136C116.076 8.964 116.193 9.00491 116.342 9.00409C116.543 9.18579 116.652 9.40123 116.67 9.65041C116.688 9.88297 116.672 10.1406 116.624 10.4234C116.559 10.6232 116.527 10.8228 116.528 11.0222C116.529 11.2216 116.538 11.421 116.556 11.6203C116.59 11.8195 116.608 12.0189 116.609 12.2183C116.627 12.4176 116.611 12.6088 116.562 12.7919C116.629 12.8247 116.662 12.8744 116.663 12.9409C116.663 13.0073 116.664 13.0821 116.664 13.1652C116.664 13.2317 116.665 13.2982 116.665 13.3646C116.682 13.431 116.732 13.4723 116.815 13.4884C116.733 13.5554 116.692 13.6719 116.693 13.8381C116.71 14.0042 116.686 14.129 116.62 14.2124C116.155 14.2482 115.731 14.2505 115.349 14.2194C114.966 14.1882 114.584 14.1571 114.201 14.1259C113.836 14.0781 113.453 14.0469 113.054 14.0325C112.672 14.018 112.232 14.0453 111.734 14.1145C111.701 14.1645 111.676 14.2311 111.66 14.3143C111.66 14.3808 111.636 14.4308 111.586 14.4643C111.586 14.4809 111.619 14.489 111.686 14.4887C111.653 14.5719 111.637 14.6634 111.637 14.7631C111.638 14.8462 111.638 14.9376 111.639 15.0373C111.656 15.137 111.657 15.2367 111.641 15.3365C111.641 15.4195 111.608 15.4862 111.542 15.5364C111.542 15.5697 111.551 15.5862 111.567 15.5861C111.6 15.586 111.625 15.6024 111.642 15.6356C111.61 15.7521 111.594 15.8685 111.594 15.9848C111.611 16.0844 111.579 16.176 111.496 16.2596C111.496 16.2762 111.538 16.2843 111.621 16.2838C111.605 16.4501 111.623 16.6245 111.674 16.807C111.724 16.9895 111.783 17.1471 111.851 17.2797C112.316 17.2439 112.822 17.2162 113.371 17.1966C113.936 17.1768 114.484 17.2486 115.017 17.4119C115.034 17.4617 115.026 17.4949 114.993 17.5117C114.976 17.5285 114.976 17.5534 114.993 17.5865C115.027 17.6528 115.068 17.6858 115.118 17.6855C115.185 17.6686 115.243 17.6932 115.293 17.7594C115.148 18.4748 115.093 19.2063 115.131 19.9539C115.185 20.6848 115.23 21.3659 115.267 21.9972C115.2 22.0308 115.101 22.0812 114.968 22.1484C114.852 22.1989 114.752 22.1745 114.669 22.0752C114.47 22.176 114.271 22.227 114.071 22.2281C113.872 22.2292 113.664 22.222 113.448 22.2066C113.232 22.1745 113.007 22.1425 112.774 22.1105C112.558 22.0785 112.326 22.0798 112.076 22.1144C112.062 22.4136 112.039 22.7959 112.008 23.2614C111.994 23.7268 112.013 24.1172 112.064 24.4327C111.982 24.5162 111.957 24.641 111.992 24.807C112.026 24.973 112.018 25.1143 111.969 25.2309C111.986 25.264 112.002 25.2805 112.019 25.2805C112.036 25.2637 112.061 25.2719 112.094 25.305C112.111 25.3381 112.103 25.3631 112.069 25.3799C112.036 25.3967 112.011 25.4218 111.995 25.4551C112.012 25.4716 112.045 25.4797 112.095 25.4795C112.063 25.7621 112.057 26.1029 112.076 26.5016C112.094 26.8837 112.146 27.2407 112.231 27.5726C112.199 27.7556 112.175 27.9718 112.16 28.2211C112.144 28.4705 112.096 28.7034 112.014 28.9199C111.949 29.1363 111.825 29.3115 111.643 29.4454C111.478 29.5793 111.22 29.6222 110.871 29.5743C110.871 29.5576 110.854 29.5162 110.82 29.4499C110.771 29.4668 110.729 29.4836 110.696 29.5004C110.679 29.5171 110.646 29.5339 110.597 29.5508L110.596 29.4262C110.463 29.4768 110.364 29.4856 110.297 29.4528C110.23 29.4199 110.139 29.4204 110.023 29.4543C109.49 29.3242 108.992 29.302 108.527 29.3877C108.078 29.4732 107.572 29.5175 107.007 29.5206C106.973 29.4211 106.914 29.3383 106.831 29.2723C106.764 29.2062 106.714 29.1151 106.68 28.9989C106.84 27.9345 106.951 26.8537 107.011 25.7565C107.072 24.6428 107.115 23.5208 107.142 22.3906C107.169 21.2604 107.188 20.1303 107.199 19.0002C107.226 17.8534 107.278 16.723 107.355 15.6092C107.351 15.0276 107.323 14.4627 107.27 13.9146C107.218 13.3498 107.165 12.7934 107.112 12.2453C107.076 11.6971 107.048 11.1571 107.028 10.6255C107.009 10.0938 107.039 9.56184 107.119 9.02961C107.833 8.90938 108.572 8.85548 109.337 8.86792C110.101 8.88035 110.866 8.90941 111.631 8.95508C112.412 8.98404 113.168 9.01314 113.899 9.04238C114.647 9.0549 115.345 9.00123 115.993 8.88136ZM149.963 1.35527C149.941 1.48895 149.975 1.58893 150.064 1.65522C150.154 1.72152 150.254 1.79887 150.366 1.8873C150.19 2.22216 150.114 2.55648 150.138 2.89025C150.162 3.20175 150.119 3.55814 150.01 3.95942C150.1 4.09249 150.145 4.24806 150.146 4.42613C150.147 4.60421 150.137 4.78234 150.116 4.96054C150.117 5.13861 150.107 5.31675 150.085 5.49494C150.064 5.65088 150.076 5.80663 150.121 5.9622C150.017 7.18707 150.035 8.43352 150.175 9.70157C150.316 10.9696 150.423 12.2378 150.496 13.5063C150.593 14.8191 150.589 16.1324 150.485 17.4463C150.403 18.7378 150.388 20.0513 150.439 21.3866C150.441 21.6092 150.475 21.8316 150.543 22.0538C150.611 22.2538 150.657 22.4761 150.68 22.7208C150.728 23.2326 150.731 23.7557 150.689 24.2901C150.647 24.8246 150.65 25.3477 150.698 25.8594C150.745 26.3934 150.748 26.9165 150.706 27.4287C150.664 27.9186 150.667 28.3638 150.713 28.7642C150.603 28.9652 150.47 29.0661 150.314 29.0669C150.159 29.0455 150.003 29.0686 149.847 29.1363C148.934 28.9632 148.021 28.9125 147.109 28.9843C146.196 29.0338 145.307 29.1722 144.44 29.3996C144.394 29.244 144.327 29.0774 144.237 28.8998C144.146 28.7 144.179 28.544 144.334 28.4318C144.287 27.9424 144.273 27.4639 144.293 26.9963C144.313 26.5287 144.321 26.0724 144.319 25.6272C144.339 25.1596 144.336 24.6922 144.311 24.2248C144.309 23.7574 144.239 23.2681 144.103 22.7568C144.229 21.4873 144.222 20.1852 144.081 18.8503C143.963 17.4931 143.888 16.1245 143.859 14.7446C143.793 14.9453 143.728 15.1905 143.662 15.4802C143.597 15.77 143.465 16.0044 143.266 16.1836C142.983 17.454 142.633 18.6023 142.216 19.6285C141.798 20.6325 141.337 21.6812 140.831 22.7747C140.59 23.4438 140.304 24.0687 139.973 24.6492C139.664 25.2297 139.289 25.7437 138.846 26.1913C138.579 26.2373 138.356 26.2274 138.178 26.1616C137.999 26.0735 137.843 25.9631 137.709 25.8303C137.236 24.8757 136.819 23.8651 136.457 22.7987C136.095 21.7099 135.755 20.5988 135.437 19.4652C135.141 18.3093 134.857 17.1534 134.583 15.9974C134.332 14.8412 134.059 13.7075 133.763 12.5961C133.655 13.1309 133.625 13.7098 133.672 14.3329C133.72 14.9559 133.679 15.5349 133.548 16.0698C133.549 16.1143 133.56 16.1365 133.582 16.1364C133.604 16.114 133.615 16.0917 133.615 16.0694C133.511 17.4056 133.43 18.8084 133.371 20.2779C133.335 21.7473 133.298 23.2389 133.262 24.7527C133.377 25.4867 133.404 26.1989 133.34 26.8893C133.277 27.5797 133.248 28.2476 133.251 28.8931C133.185 28.938 133.118 28.9829 133.052 29.0278C133.007 29.0725 132.952 29.1174 132.885 29.1623C132.641 29.1636 132.451 29.1758 132.318 29.1988C132.185 29.2217 132.018 29.2783 131.818 29.3684C131.083 29.3057 130.415 29.2871 129.814 29.3126C129.214 29.3382 128.591 29.4083 127.946 29.5232C127.879 29.479 127.823 29.4237 127.778 29.3571C127.733 29.2906 127.688 29.2352 127.643 29.1909C127.675 26.7422 127.672 24.2825 127.636 21.8118C127.623 19.341 127.632 16.9592 127.664 14.6662C127.831 12.5506 127.897 10.4133 127.863 8.2543C127.851 6.07289 127.861 3.93589 127.895 1.84327C127.939 1.77625 127.994 1.70917 128.06 1.64203C128.149 1.5525 128.171 1.45222 128.125 1.34116C128.749 1.40453 129.395 1.44552 130.063 1.46413C130.731 1.46047 131.398 1.47908 132.066 1.51994C132.734 1.53855 133.38 1.59067 134.004 1.6763C134.65 1.7618 135.252 1.9032 135.809 2.10049C135.921 2.23344 135.978 2.38895 135.979 2.56702C136.002 2.72271 136.08 2.83358 136.214 2.89963C136.306 3.41111 136.454 3.94454 136.657 4.49992C136.883 5.05518 137.12 5.62151 137.368 6.19892C137.638 6.75393 137.886 7.30908 138.111 7.86434C138.359 8.41948 138.574 8.96367 138.755 9.49692C138.911 9.62963 139.012 9.76263 139.057 9.89594C139.125 10.0291 139.193 10.1957 139.26 10.3957C139.613 9.68144 139.931 8.93399 140.216 8.15333C140.524 7.37255 140.809 6.5919 141.072 5.81137C141.357 5.00845 141.642 4.22779 141.927 3.4694C142.235 2.68862 142.564 1.94111 142.917 1.22687C143.429 1.22406 143.996 1.24322 144.62 1.28433C145.265 1.30306 145.911 1.33291 146.557 1.3739C147.203 1.39263 147.826 1.41148 148.427 1.43045C149.028 1.42716 149.54 1.4021 149.963 1.35527ZM133.729 12.4961C133.752 12.585 133.763 12.5961 133.763 12.5293C133.762 12.4403 133.751 12.4292 133.729 12.4961ZM160.856 23.4927C160.707 23.5268 160.507 23.5279 160.258 23.496C160.025 23.464 159.776 23.4322 159.509 23.4004C159.26 23.3685 159.019 23.3449 158.786 23.3296C158.553 23.3142 158.362 23.3402 158.213 23.4075C158.114 23.4579 158.048 23.5247 158.015 23.608C157.982 23.6746 157.958 23.7579 157.942 23.8577C157.942 23.9574 157.934 24.0654 157.918 24.1818C157.902 24.2816 157.861 24.3733 157.795 24.4567C157.796 24.6395 157.797 24.8057 157.798 24.9553C157.815 25.0881 157.783 25.2295 157.701 25.3796C157.751 25.5621 157.728 25.7699 157.629 26.0031C157.547 26.2362 157.524 26.469 157.558 26.7015C157.46 26.9347 157.386 27.201 157.338 27.5004C157.29 27.7832 157.291 28.049 157.343 28.298C157.311 28.614 157.204 28.8306 157.022 28.9479C156.857 29.0651 156.649 29.1327 156.4 29.1507C156.167 29.1686 155.91 29.1617 155.627 29.13C155.344 29.0983 155.095 29.0914 154.879 29.1092C154.597 29.1772 154.315 29.212 154.032 29.2135C153.75 29.1985 153.442 29.1752 153.11 29.1438C153.043 29.0777 152.968 29.0199 152.884 28.9705C152.818 28.921 152.767 28.8548 152.734 28.7719C153.447 25.5607 154.169 22.3826 154.9 19.2378C155.647 16.0762 156.386 12.8316 157.115 9.50395C157.182 9.57006 157.224 9.57814 157.24 9.5282C157.273 9.46154 157.297 9.39494 157.314 9.32837C157.729 9.24301 158.144 9.17427 158.559 9.12214C158.991 9.05331 159.414 9.01775 159.83 9.01548C160.245 8.99659 160.636 9.01107 161.001 9.05893C161.384 9.10669 161.725 9.19622 162.025 9.32753C162.227 9.72527 162.387 10.1897 162.506 10.7208C162.625 11.2354 162.728 11.7666 162.814 12.3145C162.9 12.8624 162.978 13.4104 163.047 13.9585C163.117 14.5065 163.203 15.0046 163.305 15.4527C163.356 15.6352 163.423 15.8176 163.507 16C163.608 16.1822 163.625 16.3566 163.56 16.5232C163.763 17.1536 163.941 17.7758 164.094 18.3898C164.247 19.0039 164.391 19.6179 164.527 20.2321C164.664 20.8296 164.8 21.4354 164.936 22.0496C165.089 22.647 165.267 23.2443 165.47 23.8414L165.396 24.0662C165.48 24.2984 165.565 24.5721 165.65 24.8874C165.751 25.2026 165.844 25.5344 165.929 25.883C166.031 26.2314 166.116 26.5716 166.184 26.9036C166.269 27.2355 166.337 27.5342 166.389 27.7999C166.507 28.2479 166.443 28.5806 166.195 28.798C165.947 29.0154 165.623 29.0837 165.224 29.0027C165.007 28.9873 164.733 28.9971 164.401 29.0322C164.069 29.0506 163.728 29.0691 163.379 29.0876C163.03 29.0895 162.706 29.0913 162.407 29.0929C162.108 29.078 161.892 29.0293 161.758 28.9469C161.658 28.881 161.574 28.7319 161.507 28.4996C161.455 28.2672 161.412 28.0016 161.378 27.7026C161.359 27.4036 161.341 27.1046 161.323 26.8055C161.304 26.4899 161.278 26.2408 161.244 26.0581C161.158 25.5434 161.106 25.0867 161.087 24.688C161.068 24.2726 160.991 23.8742 160.856 23.4927ZM158.416 19.5177C158.782 19.5489 159.106 19.5638 159.389 19.5622C159.688 19.5606 159.995 19.5838 160.311 19.632C160.207 18.6853 160.06 17.7471 159.872 16.8176C159.701 15.8879 159.488 14.9999 159.235 14.1538C159.074 15.1352 158.937 16.0416 158.826 16.8731C158.714 17.7047 158.577 18.5862 158.416 19.5177ZM179.255 15.0912C179.222 15.0914 179.213 15.0998 179.23 15.1163C179.247 15.1162 179.255 15.1079 179.255 15.0912L179.33 15.0908C179.265 15.3405 179.216 15.6066 179.184 15.8893C179.153 16.1554 179.113 16.4298 179.064 16.7126C179.033 16.9953 178.976 17.2781 178.894 17.561C178.829 17.8273 178.723 18.0854 178.575 18.3355C178.559 18.5018 178.502 18.6517 178.403 18.7852C178.32 18.9019 178.221 19.0188 178.105 19.1358C177.99 19.2527 177.866 19.3614 177.733 19.4619C177.617 19.5622 177.51 19.6708 177.411 19.7877C177.896 20.4332 178.291 21.1788 178.595 22.0247C178.899 22.8706 179.061 23.7338 179.083 24.6145C179.133 24.7305 179.192 24.805 179.258 24.8379C179.259 24.9376 179.251 25.0207 179.235 25.0873C179.218 25.1538 179.252 25.2201 179.336 25.2861C179.371 25.7679 179.424 26.2578 179.493 26.756C179.562 27.2376 179.623 27.6859 179.675 28.1011C179.559 28.2181 179.502 28.3596 179.503 28.5258C179.52 28.6753 179.471 28.8085 179.355 28.9254C179.006 28.8941 178.682 28.8627 178.383 28.8311C178.1 28.7994 177.809 28.776 177.51 28.761C177.211 28.7294 176.886 28.7146 176.538 28.7165C176.205 28.7017 175.823 28.7038 175.391 28.7228C175.341 28.6566 175.307 28.5903 175.29 28.5239C175.273 28.4409 175.223 28.383 175.14 28.3502C175.204 28.0175 175.244 27.66 175.258 27.2777C175.273 26.8788 175.271 26.48 175.252 26.0812C175.233 25.6825 175.198 25.3005 175.146 24.9351C175.094 24.5698 175.042 24.2377 174.991 23.9389C175.088 23.4066 175.027 22.9167 174.808 22.4692C174.606 22.005 174.313 21.6327 173.93 21.3522C173.546 21.0718 173.105 20.9081 172.606 20.8609C172.124 20.7971 171.642 20.8911 171.162 21.143C171.168 22.3561 171.208 23.594 171.282 24.8566C171.355 26.1025 171.411 27.2738 171.45 28.3704C171.451 28.4369 171.426 28.4786 171.376 28.4955C171.343 28.4957 171.318 28.5124 171.302 28.5457C171.37 28.778 171.354 28.9277 171.254 28.9947C171.155 29.0451 171.014 29.0708 170.831 29.0718C170.665 29.0561 170.49 29.0404 170.307 29.0248C170.124 29.0092 169.975 29.0515 169.859 29.1519C169.743 29.1027 169.593 29.0952 169.411 29.1294C169.228 29.147 169.037 29.1647 168.837 29.1824C168.638 29.2167 168.439 29.2344 168.239 29.2355C168.057 29.2365 167.89 29.1876 167.74 29.0887C167.707 29.0556 167.673 29.0143 167.64 28.9646C167.623 28.9148 167.589 28.8735 167.539 28.8405C167.531 27.3781 167.515 25.8826 167.49 24.3538C167.465 22.8251 167.44 21.2963 167.415 19.7676C167.406 18.2221 167.406 16.6932 167.415 15.1809C167.423 13.6686 167.448 12.1978 167.49 10.7684C167.457 10.7021 167.423 10.6607 167.39 10.6443C167.373 10.6111 167.398 10.5528 167.464 10.4694L167.339 10.4701C167.339 10.4368 167.347 10.4202 167.364 10.4201C167.397 10.4033 167.422 10.3865 167.438 10.3698C167.337 10.1377 167.278 9.88875 167.26 9.62295C167.258 9.35707 167.307 9.11584 167.405 8.89926C167.504 8.68268 167.653 8.5323 167.852 8.44812C168.05 8.34733 168.308 8.35423 168.624 8.46882C169.239 8.38237 169.845 8.30427 170.443 8.23453C171.041 8.14817 171.639 8.09504 172.237 8.07515C172.835 8.05526 173.433 8.08522 174.032 8.16504C174.647 8.22815 175.279 8.35764 175.929 8.55351C176.611 8.71596 177.186 9.01194 177.654 9.44146C178.121 9.87098 178.49 10.3841 178.759 10.9809C179.045 11.5776 179.223 12.2331 179.293 12.9473C179.38 13.6614 179.367 14.376 179.255 15.0912ZM173.303 16.1708C173.503 16.1697 173.718 16.1602 173.951 16.1423C174.2 16.1243 174.433 16.0898 174.648 16.0388C174.864 15.9711 175.046 15.8704 175.195 15.7366C175.344 15.6029 175.426 15.4113 175.441 15.162C175.606 14.8287 175.67 14.4877 175.635 14.1389C175.617 13.79 175.523 13.4664 175.356 13.1682C175.204 12.8533 174.995 12.5886 174.728 12.374C174.461 12.1428 174.169 11.9948 173.853 11.9301C173.754 11.9306 173.687 11.931 173.654 11.9312C173.621 11.9313 173.571 11.9482 173.505 11.9818C173.221 11.8671 172.897 11.8439 172.532 11.9124C172.183 11.9807 171.826 12.0159 171.461 12.0179C171.411 12.0681 171.386 12.1181 171.387 12.1679C171.404 12.2177 171.345 12.2263 171.212 12.1938C171.198 12.5429 171.166 12.8837 171.118 13.2163C171.087 13.5489 171.064 13.8897 171.049 14.2387C171.051 14.5711 171.061 14.9034 171.079 15.2357C171.114 15.5678 171.199 15.9081 171.334 16.2563C171.517 16.2054 171.691 16.1879 171.857 16.2036C172.04 16.2026 172.207 16.2183 172.356 16.2507C172.523 16.2664 172.68 16.2739 172.83 16.273C172.996 16.2721 173.154 16.238 173.303 16.1708ZM189.4 14.7615C189.266 14.729 189.167 14.713 189.1 14.7133C189.034 14.7137 188.917 14.706 188.751 14.6903C188.584 14.4918 188.358 14.277 188.074 14.0459C187.791 13.7982 187.482 13.6088 187.149 13.4776C186.832 13.3298 186.516 13.2734 186.201 13.3083C185.885 13.3433 185.612 13.5276 185.381 13.8612C185.45 14.3594 185.611 14.7573 185.861 15.0551C186.112 15.3529 186.413 15.5922 186.763 15.7731C187.264 16.2523 187.798 16.6897 188.365 17.0855C188.949 17.4811 189.516 17.8935 190.067 18.3225C190.652 18.901 191.104 19.5882 191.424 20.3841C191.744 21.1634 191.99 22.0428 192.162 23.0224C192.129 23.089 192.104 23.1473 192.088 23.1973C192.093 24.1112 191.898 24.91 191.503 25.5935C191.124 26.2769 190.621 26.853 189.992 27.3218C189.379 27.7904 188.675 28.1682 187.879 28.4551C187.099 28.7252 186.319 28.9206 185.539 29.0412C185.007 29.0109 184.541 28.8888 184.141 28.6749C183.741 28.4611 183.325 28.2639 182.892 28.0835C182.608 27.8192 182.324 27.5465 182.04 27.2655C181.755 26.9846 181.488 26.6952 181.237 26.3975C180.986 26.0997 180.76 25.7852 180.559 25.4539C180.358 25.1227 180.214 24.7662 180.129 24.3844C180.593 24.116 181.04 23.8227 181.471 23.5046C181.901 23.1865 182.273 22.7939 182.586 22.3269C182.669 22.3265 182.744 22.3177 182.81 22.3008C182.893 22.2671 182.976 22.2334 183.059 22.1997C183.293 22.4145 183.502 22.646 183.686 22.8942C183.887 23.1424 184.096 23.3822 184.313 23.6137C184.529 23.7122 184.763 23.8024 185.012 23.8841C185.262 23.9658 185.503 24.0143 185.736 24.0297C185.985 24.0449 186.218 24.0187 186.434 23.9511C186.666 23.8833 186.873 23.7493 187.055 23.5488C187.169 23.2325 187.193 22.9665 187.125 22.7508C187.057 22.5185 186.948 22.3197 186.798 22.1543C186.647 21.9723 186.48 21.8071 186.296 21.6585C186.113 21.5099 185.946 21.353 185.795 21.1876C185.495 21.0397 185.228 20.8334 184.994 20.5688C184.76 20.2876 184.51 20.0812 184.243 19.9497C183.808 19.4868 183.374 18.9823 182.938 18.4363C182.52 17.8902 182.143 17.3023 181.807 16.6726C181.488 16.0429 181.243 15.3712 181.073 14.6575C180.92 13.9272 180.899 13.1462 181.01 12.3147C181.206 11.5824 181.56 10.9407 182.072 10.3895C182.584 9.83826 183.188 9.40287 183.884 9.08332C184.597 8.76367 185.361 8.57669 186.175 8.52239C187.005 8.45137 187.837 8.53822 188.669 8.78295C189.169 9.0461 189.619 9.35108 190.02 9.69787C190.421 10.028 190.813 10.3832 191.197 10.7633C191.264 10.8294 191.356 10.9203 191.473 11.036C191.607 11.135 191.732 11.2506 191.849 11.3829C191.982 11.4985 192.099 11.6142 192.2 11.73C192.3 11.8458 192.35 11.9369 192.351 12.0034C192.368 12.103 192.335 12.178 192.252 12.2283C192.169 12.262 192.095 12.3371 192.029 12.4538C191.864 12.7206 191.625 13.0211 191.311 13.3551C190.997 13.6892 190.675 13.9735 190.344 14.208C190.195 14.3085 190.029 14.3842 189.846 14.435C189.664 14.4693 189.515 14.5781 189.4 14.7615Z" fill="#FBF7EF"/>
</svg>
